<svg width="876" height="109" viewBox="0 0 876 109" fill="none" xmlns="http://www.w3.org/2000/svg">
<g clip-path="url(#clip0_2250_6701)" filter="url(#filter0_bd_2250_6701)">
<path d="M16.6796 54.638C16.6796 33.7304 33.6286 16.7815 54.5361 16.7815H821.26C842.168 16.7815 859.117 33.7304 859.117 54.638V54.638C859.117 75.5455 842.168 92.4945 821.26 92.4945H54.5361C33.6286 92.4945 16.6796 75.5455 16.6796 54.638V54.638Z" fill="white" fill-opacity="0.64"/>
<path d="M821.26 15.8908H54.5361C33.1366 15.8908 15.7889 33.2385 15.7889 54.638C15.7889 76.0375 33.1366 93.3852 54.5361 93.3852H821.26C842.66 93.3852 860.007 76.0375 860.007 54.638C860.007 33.2385 842.66 15.8908 821.26 15.8908Z" stroke="white" stroke-opacity="0.64" stroke-width="1.78148"/>
<g clip-path="url(#clip1_2250_6701)">
<path d="M744.094 25.9075H777.943V83.0927H744.094V25.9075Z" fill="url(#paint0_linear_2250_6701)"/>
</g>
<rect x="26" y="26" width="115" height="58" rx="28.5037" fill="#F7F7F7"/>
<rect x="26.8907" y="26.8907" width="113.219" height="56.2185" rx="27.613" stroke="white" stroke-opacity="0.64" stroke-width="1.78148"/>
<path opacity="0.3" d="M76.1022 62.0548L72.8688 62.5091C72.2542 61.0126 71.5862 58.8748 70.9716 57.0043L64.4781 57.0043L62.8213 62.2686L59.7482 62.2686L66.1081 44.0974L69.6087 43.9371L74.0446 56.5233C74.8463 58.8214 75.4342 60.5316 76.1022 62.0548ZM70.1966 54.626L67.658 47.0102L65.253 54.626L70.1966 54.626ZM110.761 62.0548L107.527 62.5091C106.913 61.0126 106.245 58.8748 105.63 57.0043L99.1366 57.0043L97.4798 62.2686L94.4067 62.2686L100.767 44.0974L104.267 43.9371L108.703 56.5233C109.505 58.8214 110.093 60.5316 110.761 62.0548ZM104.855 54.626L102.317 47.0102L99.9115 54.626L104.855 54.626Z" fill="black"/>
<path d="M85.1164 62.5358C83.8872 62.5358 83.1123 61.9479 83.1123 60.7721C83.1123 59.5696 83.9139 58.7679 85.2233 58.7679C86.3724 58.7679 87.1473 59.3826 87.1473 60.6118C87.1473 61.8944 86.3724 62.5358 85.1164 62.5358Z" fill="black"/>
</g>
<defs>
<filter id="filter0_bd_2250_6701" x="-6.47964" y="-6.37778" width="888.959" height="122.031" filterUnits="userSpaceOnUse" color-interpolation-filters="sRGB">
<feFlood flood-opacity="0" result="BackgroundImageFix"/>
<feGaussianBlur in="BackgroundImageFix" stdDeviation="10.6889"/>
<feComposite in2="SourceAlpha" operator="in" result="effect1_backgroundBlur_2250_6701"/>
<feColorMatrix in="SourceAlpha" type="matrix" values="0 0 0 0 0 0 0 0 0 0 0 0 0 0 0 0 0 0 127 0" result="hardAlpha"/>
<feOffset/>
<feGaussianBlur stdDeviation="7.12593"/>
<feColorMatrix type="matrix" values="0 0 0 0 0 0 0 0 0 0 0 0 0 0 0 0 0 0 0.15 0"/>
<feBlend mode="normal" in2="effect1_backgroundBlur_2250_6701" result="effect2_dropShadow_2250_6701"/>
<feBlend mode="normal" in="SourceGraphic" in2="effect2_dropShadow_2250_6701" result="shape"/>
</filter>
<linearGradient id="paint0_linear_2250_6701" x1="772.53" y1="54.9399" x2="744.094" y2="54.9399" gradientUnits="userSpaceOnUse">
<stop stop-color="#EBEBEB"/>
<stop offset="1" stop-color="#EBEBEB" stop-opacity="0"/>
</linearGradient>
<clipPath id="clip0_2250_6701">
<rect width="846.204" height="79.2759" fill="white" transform="translate(14.8981 15)"/>
</clipPath>
<clipPath id="clip1_2250_6701">
<rect width="706" height="75" fill="white" transform="translate(153 17)"/>
</clipPath>
</defs>
</svg>
