<svg width="122" height="46" viewBox="0 0 122 46" fill="none" xmlns="http://www.w3.org/2000/svg">
<g clip-path="url(#clip0_2223_7077)">
<path d="M22.7969 13.2982C17.5536 13.2982 13.2982 17.5536 13.2982 22.7969C13.2982 28.0402 17.5536 32.2956 22.7969 32.2956C28.0402 32.2956 32.2956 28.0402 32.2956 22.7969C32.2956 17.5536 28.0402 13.2982 22.7969 13.2982ZM22.7969 30.3959C18.5984 30.3959 15.1979 26.9954 15.1979 22.7969C15.1979 18.5985 18.5984 15.198 22.7969 15.198C26.9953 15.198 30.3958 18.5985 30.3958 22.7969C30.3958 26.9954 26.9953 30.3959 22.7969 30.3959Z" fill="#CE1A28"/>
<path d="M22.7969 27.5463C25.4199 27.5463 27.5462 25.4199 27.5462 22.7969C27.5462 20.1739 25.4199 18.0476 22.7969 18.0476C20.1739 18.0476 18.0475 20.1739 18.0475 22.7969C18.0475 25.4199 20.1739 27.5463 22.7969 27.5463Z" fill="#CE1A28"/>
</g>
<path d="M58.2993 17.2518L56.7168 17.3164L53.4873 26.3591L50.4192 17.2518L48.8044 17.3164L47.7548 28.2969H49.1435L49.7894 19.4479L52.8898 28.3453L53.9717 28.2969L57.169 19.5932L57.8149 28.3453L59.2036 28.2L58.2993 17.2518ZM67.0241 27.3603C66.8626 27.3603 66.8141 27.2796 66.8141 27.1504V22.6936C66.8141 21.6601 66.362 20.6105 64.4565 20.6105C63.5846 20.6105 62.4542 20.7558 61.9859 20.885L61.663 22.2091C62.5027 22.0154 63.4069 21.87 64.1497 21.87C64.941 21.87 65.5223 22.2091 65.5223 23.0004V23.8078L63.8106 24.1469C62.9064 24.3245 62.2443 24.6475 61.8083 25.0835C61.4208 25.471 61.227 26.0039 61.227 26.5368C61.227 27.6671 61.9375 28.4422 62.9548 28.4422C63.7299 28.4422 64.6503 27.9739 65.5223 27.1342L65.5546 27.6187C65.5869 28.2484 65.9744 28.4584 66.4104 28.4584C66.8141 28.4584 67.3632 28.3615 67.7023 28.2646L67.8799 27.1827C67.4439 27.3119 67.1371 27.3603 67.0241 27.3603ZM62.5673 26.3268C62.5673 25.584 63.0678 25.1803 63.9883 25.0996L65.5223 24.9704V26.1331C64.6019 26.9243 63.9075 27.2473 63.3908 27.2473C62.8579 27.2473 62.5673 26.8759 62.5673 26.3268ZM71.1343 28.4745C72.1193 28.4745 72.9913 28.2484 73.5726 27.7801C74.0894 27.3764 74.4446 26.8113 74.4446 26.0362C74.4446 25.0189 73.5888 24.4537 72.0547 23.7916C71.1666 23.4202 70.4884 23.1134 70.4884 22.5805C70.4884 22.1123 71.0374 21.87 71.7318 21.87C72.4261 21.87 73.2497 21.9992 73.8148 22.1446L74.0086 20.8527C73.5242 20.7235 72.8298 20.5944 72.1516 20.5944C71.3604 20.5944 70.5691 20.8043 69.9878 21.2564C69.4711 21.644 69.2127 22.2253 69.2127 22.7582C69.2127 23.7432 69.8263 24.163 71.215 24.8251C72.5876 25.471 73.1689 25.7617 73.1689 26.2623C73.1689 26.8436 72.523 27.215 71.651 27.215C70.8113 27.215 69.7779 26.9566 68.9059 26.5529L69.0512 28.0547C69.5357 28.2969 70.3915 28.4745 71.1343 28.4745ZM78.9932 28.4745C79.8329 28.4745 80.7211 28.2323 81.2378 27.9093L81.593 26.5206H81.5446C81.0117 26.9082 80.1559 27.2311 79.3485 27.2311C78.0405 27.2311 77.217 26.3914 77.217 24.6959C77.217 22.8712 78.1697 21.8539 79.6553 21.8539C80.1559 21.8539 80.7534 22.0315 81.1086 22.2253L81.4154 20.8689C81.0602 20.7235 80.495 20.6105 79.8006 20.6105C78.7026 20.6105 77.6691 21.0949 76.9909 21.9023C76.2804 22.742 75.909 23.7593 75.909 24.9381C75.909 27.1504 77.1201 28.4745 78.9932 28.4745ZM87.5942 20.772V26.779C86.8514 27.0858 86.3024 27.2311 85.7049 27.2311C84.8329 27.2311 84.5584 26.779 84.5584 26.0523V20.772H83.2666V26.2461C83.2666 27.764 84.0579 28.4745 85.3497 28.4745C86.1248 28.4745 86.9645 28.1031 87.6265 27.5541H87.675C87.7234 27.8932 87.788 28.2484 87.8364 28.4422L89.0314 28.2969C88.9345 27.6025 88.8699 26.892 88.8699 26.3107V20.772H87.5942ZM92.7746 28.2969V17.1549L91.4828 17.3002V28.2969H92.7746ZM95.8999 18.9957C96.4328 18.9957 96.8849 18.6082 96.8849 18.0107C96.8849 17.4455 96.5135 17.1549 95.9968 17.1549C95.4316 17.1549 95.0117 17.494 95.0117 18.156C95.0117 18.7051 95.3993 18.9957 95.8999 18.9957ZM96.6104 28.2969V20.6913L95.3186 20.8204V28.2969H96.6104ZM100.68 28.2969V22.2899C101.455 21.9831 101.988 21.8377 102.634 21.8377C103.361 21.8377 103.813 22.1123 103.813 23.0165V28.2969H105.105V22.8228C105.105 21.3049 104.281 20.5944 102.893 20.5944C102.134 20.5944 101.229 20.9012 100.6 21.4663H100.551C100.519 21.2403 100.47 20.8043 100.422 20.6267L99.2271 20.772C99.324 21.4663 99.3886 22.1123 99.3886 22.7582V28.2969H100.68ZM110.186 28.4745C111.187 28.4745 112.14 28.0547 112.769 27.3764C113.448 26.6498 113.851 25.6002 113.851 24.2761C113.851 21.9346 112.56 20.5944 110.622 20.5944C109.669 20.5944 108.684 20.9981 107.974 21.87C107.311 22.6774 107.069 23.5817 107.069 24.6636C107.069 27.1827 108.506 28.4745 110.186 28.4745ZM110.525 27.215C109.136 27.215 108.377 26.3107 108.377 24.3568C108.377 22.7743 109.12 21.8539 110.347 21.8539C111.768 21.8539 112.463 22.7259 112.463 24.6636C112.463 26.2784 111.768 27.215 110.525 27.215Z" fill="#383838"/>
<defs>
<clipPath id="clip0_2223_7077">
<rect x="3.7995" y="3.79944" width="37.9949" height="37.9949" rx="18.9974" fill="white"/>
</clipPath>
</defs>
</svg>
