<svg width="122" height="46" viewBox="0 0 122 46" fill="none" xmlns="http://www.w3.org/2000/svg">
<g clip-path="url(#clip0_2223_7126)">
<path d="M22.7969 13.2982C17.5536 13.2982 13.2982 17.5536 13.2982 22.7969C13.2982 28.0402 17.5536 32.2956 22.7969 32.2956C28.0402 32.2956 32.2956 28.0402 32.2956 22.7969C32.2956 17.5536 28.0402 13.2982 22.7969 13.2982ZM22.7969 30.3959C18.5985 30.3959 15.198 26.9954 15.198 22.7969C15.198 18.5985 18.5985 15.198 22.7969 15.198C26.9954 15.198 30.3959 18.5985 30.3959 22.7969C30.3959 26.9954 26.9954 30.3959 22.7969 30.3959Z" fill="#49454F"/>
</g>
<path d="M53.9878 17.3164H48.2392V28.2969H49.6925V23.501H53.455L53.5034 22.2414H49.6925V18.6082H53.9071L53.9878 17.3164ZM61.0231 26.5368C60.5548 26.9082 59.6667 27.215 58.8755 27.215C57.3091 27.215 56.3403 26.5529 56.2595 24.6959C56.2595 24.6475 56.2595 24.5829 56.2757 24.5344L60.9101 24.5667C60.9908 24.1469 61.0554 23.4687 61.0554 23.0973C61.0554 21.5955 60.022 20.5944 58.4718 20.5944C57.5998 20.5944 56.6955 20.9819 56.0173 21.757C55.2745 22.5967 54.9515 23.6463 54.9515 24.6959C54.9515 27.0373 56.2757 28.4584 58.6332 28.4584C59.3276 28.4584 60.2965 28.2 60.7809 27.8609L61.0877 26.5368H61.0231ZM58.2618 21.8539C59.263 21.8539 59.8605 22.4191 59.9089 23.4687L56.3403 23.5817C56.5986 22.3383 57.4222 21.8539 58.2618 21.8539ZM70.422 20.5944C69.6792 20.5944 68.7911 20.885 68.0967 21.5632C67.7415 20.885 67.0794 20.5944 66.3851 20.5944C65.6746 20.5944 64.9318 20.8527 64.1567 21.5794H64.1082C64.0759 21.2726 64.0113 20.885 63.9791 20.6267L62.7841 20.772C62.881 21.4663 62.9456 22.1284 62.9456 22.7582V28.2969H64.2536V22.3383C64.9156 22.0154 65.5131 21.8377 65.9814 21.8377C66.4981 21.8377 67.0471 22.1284 67.0471 22.9519V28.2969H68.3551V22.7582C68.3551 22.6128 68.339 22.4675 68.3228 22.3383C69.0333 22.0154 69.5662 21.8377 70.0829 21.8377C70.5835 21.8377 71.1487 22.1284 71.1487 22.9519V28.2969H72.4567V22.7582C72.4567 21.2403 71.4878 20.5944 70.422 20.5944ZM75.5732 18.9957C76.1061 18.9957 76.5582 18.6082 76.5582 18.0107C76.5582 17.4455 76.1868 17.1549 75.6701 17.1549C75.1049 17.1549 74.6851 17.494 74.6851 18.156C74.6851 18.7051 75.0726 18.9957 75.5732 18.9957ZM76.2837 28.2969V20.6913L74.9919 20.8204V28.2969H76.2837ZM80.3537 28.2969V22.2899C81.1288 21.9831 81.6617 21.8377 82.3076 21.8377C83.0342 21.8377 83.4864 22.1123 83.4864 23.0165V28.2969H84.7782V22.8228C84.7782 21.3049 83.9547 20.5944 82.5659 20.5944C81.807 20.5944 80.9027 20.9012 80.273 21.4663H80.2245C80.1922 21.2403 80.1438 20.8043 80.0953 20.6267L78.9004 20.772C78.9973 21.4663 79.0619 22.1123 79.0619 22.7582V28.2969H80.3537ZM87.889 18.9957C88.4219 18.9957 88.8741 18.6082 88.8741 18.0107C88.8741 17.4455 88.5027 17.1549 87.9859 17.1549C87.4208 17.1549 87.0009 17.494 87.0009 18.156C87.0009 18.7051 87.3885 18.9957 87.889 18.9957ZM88.5996 28.2969V20.6913L87.3077 20.8204V28.2969H88.5996ZM92.6696 28.2969V22.2899C93.4447 21.9831 93.9775 21.8377 94.6234 21.8377C95.3501 21.8377 95.8022 22.1123 95.8022 23.0165V28.2969H97.0941V22.8228C97.0941 21.3049 96.2705 20.5944 94.8818 20.5944C94.1229 20.5944 93.2186 20.9012 92.5888 21.4663H92.5404C92.5081 21.2403 92.4596 20.8043 92.4112 20.6267L91.2163 20.772C91.3131 21.4663 91.3777 22.1123 91.3777 22.7582V28.2969H92.6696ZM102.175 28.4745C103.176 28.4745 104.129 28.0547 104.759 27.3764C105.437 26.6498 105.84 25.6002 105.84 24.2761C105.84 21.9346 104.549 20.5944 102.611 20.5944C101.658 20.5944 100.673 20.9981 99.9627 21.87C99.3006 22.6774 99.0584 23.5817 99.0584 24.6636C99.0584 27.1827 100.496 28.4745 102.175 28.4745ZM102.514 27.215C101.125 27.215 100.366 26.3107 100.366 24.3568C100.366 22.7743 101.109 21.8539 102.336 21.8539C103.757 21.8539 104.452 22.7259 104.452 24.6636C104.452 26.2784 103.757 27.215 102.514 27.215Z" fill="#383838"/>
<defs>
<clipPath id="clip0_2223_7126">
<rect x="3.7995" y="3.79944" width="37.9949" height="37.9949" rx="18.9974" fill="white"/>
</clipPath>
</defs>
</svg>
