<svg width="122" height="47" viewBox="0 0 122 47" fill="none" xmlns="http://www.w3.org/2000/svg">
<g clip-path="url(#clip0_2223_7080)">
<path d="M22.7969 13.9423C17.5536 13.9423 13.2982 18.1977 13.2982 23.441C13.2982 28.6843 17.5536 32.9397 22.7969 32.9397C28.0402 32.9397 32.2956 28.6843 32.2956 23.441C32.2956 18.1977 28.0402 13.9423 22.7969 13.9423ZM22.7969 31.0399C18.5985 31.0399 15.198 27.6394 15.198 23.441C15.198 19.2425 18.5985 15.842 22.7969 15.842C26.9954 15.842 30.3959 19.2425 30.3959 23.441C30.3959 27.6394 26.9954 31.0399 22.7969 31.0399Z" fill="#CE1A28"/>
<path d="M22.7969 28.1903C25.4199 28.1903 27.5463 26.064 27.5463 23.441C27.5463 20.818 25.4199 18.6916 22.7969 18.6916C20.1739 18.6916 18.0476 20.818 18.0476 23.441C18.0476 26.064 20.1739 28.1903 22.7969 28.1903Z" fill="#CE1A28"/>
</g>
<path d="M53.9878 17.9604H48.2392V28.9409H49.6925V24.145H53.455L53.5034 22.8855H49.6925V19.2522H53.9071L53.9878 17.9604ZM61.0231 27.1808C60.5548 27.5522 59.6667 27.859 58.8755 27.859C57.3091 27.859 56.3403 27.197 56.2595 25.34C56.2595 25.2915 56.2595 25.2269 56.2757 25.1785L60.9101 25.2108C60.9908 24.7909 61.0554 24.1127 61.0554 23.7413C61.0554 22.2396 60.022 21.2384 58.4718 21.2384C57.5998 21.2384 56.6955 21.626 56.0173 22.4011C55.2745 23.2407 54.9515 24.2903 54.9515 25.34C54.9515 27.6814 56.2757 29.1024 58.6332 29.1024C59.3276 29.1024 60.2965 28.844 60.7809 28.5049L61.0877 27.1808H61.0231ZM58.2618 22.4979C59.263 22.4979 59.8605 23.0631 59.9089 24.1127L56.3403 24.2258C56.5986 22.9824 57.4222 22.4979 58.2618 22.4979ZM70.422 21.2384C69.6792 21.2384 68.7911 21.5291 68.0967 22.2073C67.7415 21.5291 67.0794 21.2384 66.3851 21.2384C65.6746 21.2384 64.9318 21.4968 64.1567 22.2234H64.1082C64.0759 21.9166 64.0113 21.5291 63.9791 21.2707L62.7841 21.416C62.881 22.1104 62.9456 22.7725 62.9456 23.4022V28.9409H64.2536V22.9824C64.9156 22.6594 65.5131 22.4818 65.9814 22.4818C66.4981 22.4818 67.0471 22.7725 67.0471 23.596V28.9409H68.3551V23.4022C68.3551 23.2569 68.339 23.1116 68.3228 22.9824C69.0333 22.6594 69.5662 22.4818 70.0829 22.4818C70.5835 22.4818 71.1487 22.7725 71.1487 23.596V28.9409H72.4567V23.4022C72.4567 21.8843 71.4878 21.2384 70.422 21.2384ZM75.5732 19.6398C76.1061 19.6398 76.5582 19.2522 76.5582 18.6548C76.5582 18.0896 76.1868 17.7989 75.6701 17.7989C75.1049 17.7989 74.6851 18.138 74.6851 18.8001C74.6851 19.3491 75.0726 19.6398 75.5732 19.6398ZM76.2837 28.9409V21.3353L74.9919 21.4645V28.9409H76.2837ZM80.3537 28.9409V22.9339C81.1288 22.6271 81.6617 22.4818 82.3076 22.4818C83.0342 22.4818 83.4864 22.7563 83.4864 23.6606V28.9409H84.7782V23.4668C84.7782 21.9489 83.9547 21.2384 82.5659 21.2384C81.807 21.2384 80.9027 21.5452 80.273 22.1104H80.2245C80.1922 21.8843 80.1438 21.4483 80.0953 21.2707L78.9004 21.416C78.9973 22.1104 79.0619 22.7563 79.0619 23.4022V28.9409H80.3537ZM87.889 19.6398C88.4219 19.6398 88.8741 19.2522 88.8741 18.6548C88.8741 18.0896 88.5027 17.7989 87.9859 17.7989C87.4208 17.7989 87.0009 18.138 87.0009 18.8001C87.0009 19.3491 87.3885 19.6398 87.889 19.6398ZM88.5996 28.9409V21.3353L87.3077 21.4645V28.9409H88.5996ZM92.6696 28.9409V22.9339C93.4447 22.6271 93.9775 22.4818 94.6234 22.4818C95.3501 22.4818 95.8022 22.7563 95.8022 23.6606V28.9409H97.0941V23.4668C97.0941 21.9489 96.2705 21.2384 94.8818 21.2384C94.1229 21.2384 93.2186 21.5452 92.5888 22.1104H92.5404C92.5081 21.8843 92.4596 21.4483 92.4112 21.2707L91.2163 21.416C91.3131 22.1104 91.3777 22.7563 91.3777 23.4022V28.9409H92.6696ZM102.175 29.1185C103.176 29.1185 104.129 28.6987 104.759 28.0205C105.437 27.2938 105.84 26.2442 105.84 24.9201C105.84 22.5787 104.549 21.2384 102.611 21.2384C101.658 21.2384 100.673 21.6421 99.9627 22.5141C99.3006 23.3215 99.0584 24.2258 99.0584 25.3077C99.0584 27.8267 100.496 29.1185 102.175 29.1185ZM102.514 27.859C101.125 27.859 100.366 26.9547 100.366 25.0009C100.366 23.4184 101.109 22.4979 102.336 22.4979C103.757 22.4979 104.452 23.3699 104.452 25.3077C104.452 26.9224 103.757 27.859 102.514 27.859Z" fill="#383838"/>
<defs>
<clipPath id="clip0_2223_7080">
<rect x="3.7995" y="4.44348" width="37.9949" height="37.9949" rx="18.9974" fill="white"/>
</clipPath>
</defs>
</svg>
