<svg width="122" height="47" viewBox="0 0 122 47" fill="none" xmlns="http://www.w3.org/2000/svg">
<g clip-path="url(#clip0_2223_7129)">
<path d="M22.7969 13.942C17.5536 13.942 13.2982 18.1974 13.2982 23.4407C13.2982 28.684 17.5536 32.9394 22.7969 32.9394C28.0402 32.9394 32.2956 28.684 32.2956 23.4407C32.2956 18.1974 28.0402 13.942 22.7969 13.942ZM22.7969 31.0397C18.5985 31.0397 15.198 27.6392 15.198 23.4407C15.198 19.2423 18.5985 15.8418 22.7969 15.8418C26.9954 15.8418 30.3959 19.2423 30.3959 23.4407C30.3959 27.6392 26.9954 31.0397 22.7969 31.0397Z" fill="#49454F"/>
</g>
<path d="M49.6118 28.9407V17.9602H48.1585V28.9407H49.6118ZM53.7823 28.9407V22.9337C54.5574 22.6269 55.0903 22.4815 55.7362 22.4815C56.4629 22.4815 56.915 22.7561 56.915 23.6603V28.9407H58.2068V23.4666C58.2068 21.9487 57.3833 21.2382 55.9946 21.2382C55.2356 21.2382 54.3314 21.545 53.7016 22.1101H53.6532C53.6209 21.8841 53.5724 21.4481 53.524 21.2705L52.329 21.4158C52.4259 22.1101 52.4905 22.7561 52.4905 23.402V28.9407H53.7823ZM62.3996 19.7849C62.3996 19.3973 62.6257 19.2035 63.0132 19.2035C63.3362 19.2035 63.6268 19.252 63.8852 19.3004L64.2243 17.8633L63.4008 17.7987C62.6903 17.8794 62.3027 17.9925 61.8344 18.4123C61.1885 18.9936 61.0432 19.5911 61.0432 20.3823V21.4158H59.9128L59.7675 22.4815H61.0432V28.9407H62.3996V22.4815H63.9982L64.1597 21.4158H62.3996V19.7849ZM70.856 28.0041C70.6945 28.0041 70.6461 27.9234 70.6461 27.7942V23.3374C70.6461 22.3039 70.1939 21.2543 68.2885 21.2543C67.4165 21.2543 66.2862 21.3996 65.8179 21.5288L65.4949 22.8529C66.3346 22.6592 67.2389 22.5138 67.9817 22.5138C68.7729 22.5138 69.3543 22.8529 69.3543 23.6442V24.4516L67.6426 24.7907C66.7383 24.9683 66.0763 25.2913 65.6403 25.7273C65.2527 26.1148 65.0589 26.6477 65.0589 27.1806C65.0589 28.3109 65.7694 29.086 66.7868 29.086C67.5619 29.086 68.4823 28.6177 69.3543 27.778L69.3866 28.2625C69.4188 28.8922 69.8064 29.1022 70.2424 29.1022C70.6461 29.1022 71.1951 29.0053 71.5342 28.9084L71.7118 27.8265C71.2758 27.9557 70.969 28.0041 70.856 28.0041ZM66.3992 26.9706C66.3992 26.2278 66.8998 25.8241 67.8202 25.7434L69.3543 25.6142V26.7769C68.4338 27.5681 67.7395 27.8911 67.2227 27.8911C66.6899 27.8911 66.3992 27.5197 66.3992 26.9706ZM74.724 28.9407V22.9337C75.4991 22.6269 76.032 22.4815 76.6779 22.4815C77.4046 22.4815 77.8567 22.7561 77.8567 23.6603V28.9407H79.1485V23.4666C79.1485 21.9487 78.325 21.2382 76.9363 21.2382C76.1773 21.2382 75.2731 21.545 74.6433 22.1101H74.5949C74.5626 21.8841 74.5141 21.4481 74.4657 21.2705L73.2707 21.4158C73.3676 22.1101 73.4322 22.7561 73.4322 23.402V28.9407H74.724ZM85.3921 27.5358C84.7462 27.8426 84.2617 27.9557 83.9872 27.9557C83.5512 27.9557 83.2928 27.7457 83.2928 27.3743V22.5623H85.3598L85.3113 21.4158H83.2928V19.1067L81.9849 19.5911V21.4158H80.7415L80.6608 22.5623H81.9849V27.552C81.9849 28.5047 82.437 29.1183 83.5674 29.1183C84.0841 29.1183 84.7623 28.973 85.2306 28.7308L85.4244 27.5358H85.3921ZM87.9521 19.6395C88.485 19.6395 88.9371 19.252 88.9371 18.6545C88.9371 18.0893 88.5657 17.7987 88.049 17.7987C87.4838 17.7987 87.064 18.1378 87.064 18.7998C87.064 19.3489 87.4515 19.6395 87.9521 19.6395ZM88.6626 28.9407V21.3351L87.3708 21.4642V28.9407H88.6626ZM92.5066 28.9407V17.7987L91.2147 17.944V28.9407H92.5066Z" fill="#383838"/>
<defs>
<clipPath id="clip0_2223_7129">
<rect x="3.7995" y="4.44324" width="37.9949" height="37.9949" rx="18.9974" fill="white"/>
</clipPath>
</defs>
</svg>
