<svg width="122" height="46" viewBox="0 0 122 46" fill="none" xmlns="http://www.w3.org/2000/svg">
<g clip-path="url(#clip0_2223_7083)">
<path d="M22.7969 13.5861C17.5536 13.5861 13.2982 17.8415 13.2982 23.0848C13.2982 28.3281 17.5536 32.5835 22.7969 32.5835C28.0402 32.5835 32.2956 28.3281 32.2956 23.0848C32.2956 17.8415 28.0402 13.5861 22.7969 13.5861ZM22.7969 30.6837C18.5984 30.6837 15.1979 27.2832 15.1979 23.0848C15.1979 18.8863 18.5984 15.4858 22.7969 15.4858C26.9953 15.4858 30.3958 18.8863 30.3958 23.0848C30.3958 27.2832 26.9953 30.6837 22.7969 30.6837Z" fill="#CE1A28"/>
<path d="M22.7969 27.8341C25.4199 27.8341 27.5462 25.7078 27.5462 23.0848C27.5462 20.4618 25.4199 18.3354 22.7969 18.3354C20.1739 18.3354 18.0475 20.4618 18.0475 23.0848C18.0475 25.7078 20.1739 27.8341 22.7969 27.8341Z" fill="#CE1A28"/>
</g>
<path d="M49.6118 28.5847V17.6042H48.1585V28.5847H49.6118ZM53.7823 28.5847V22.5777C54.5574 22.2709 55.0903 22.1256 55.7362 22.1256C56.4629 22.1256 56.915 22.4001 56.915 23.3044V28.5847H58.2068V23.1106C58.2068 21.5927 57.3833 20.8822 55.9946 20.8822C55.2356 20.8822 54.3314 21.189 53.7016 21.7542H53.6532C53.6209 21.5281 53.5724 21.0921 53.524 20.9145L52.329 21.0598C52.4259 21.7542 52.4905 22.4001 52.4905 23.046V28.5847H53.7823ZM62.3996 19.4289C62.3996 19.0414 62.6257 18.8476 63.0132 18.8476C63.3362 18.8476 63.6268 18.896 63.8852 18.9445L64.2243 17.5073L63.4008 17.4427C62.6903 17.5235 62.3027 17.6365 61.8344 18.0563C61.1885 18.6377 61.0432 19.2351 61.0432 20.0264V21.0598H59.9128L59.7675 22.1256H61.0432V28.5847H62.3996V22.1256H63.9982L64.1597 21.0598H62.3996V19.4289ZM70.856 27.6481C70.6945 27.6481 70.6461 27.5674 70.6461 27.4382V22.9814C70.6461 21.948 70.1939 20.8984 68.2885 20.8984C67.4165 20.8984 66.2862 21.0437 65.8179 21.1729L65.4949 22.497C66.3346 22.3032 67.2389 22.1579 67.9817 22.1579C68.7729 22.1579 69.3543 22.497 69.3543 23.2882V24.0956L67.6426 24.4347C66.7383 24.6124 66.0763 24.9353 65.6403 25.3713C65.2527 25.7588 65.0589 26.2917 65.0589 26.8246C65.0589 27.955 65.7694 28.73 66.7868 28.73C67.5619 28.73 68.4823 28.2618 69.3543 27.4221L69.3866 27.9065C69.4188 28.5363 69.8064 28.7462 70.2424 28.7462C70.6461 28.7462 71.1951 28.6493 71.5342 28.5524L71.7118 27.4705C71.2758 27.5997 70.969 27.6481 70.856 27.6481ZM66.3992 26.6147C66.3992 25.8719 66.8998 25.4682 67.8202 25.3874L69.3543 25.2583V26.4209C68.4338 27.2122 67.7395 27.5351 67.2227 27.5351C66.6899 27.5351 66.3992 27.1637 66.3992 26.6147ZM74.724 28.5847V22.5777C75.4991 22.2709 76.032 22.1256 76.6779 22.1256C77.4046 22.1256 77.8567 22.4001 77.8567 23.3044V28.5847H79.1485V23.1106C79.1485 21.5927 78.325 20.8822 76.9363 20.8822C76.1773 20.8822 75.2731 21.189 74.6433 21.7542H74.5949C74.5626 21.5281 74.5141 21.0921 74.4657 20.9145L73.2707 21.0598C73.3676 21.7542 73.4322 22.4001 73.4322 23.046V28.5847H74.724ZM85.3921 27.1799C84.7462 27.4867 84.2617 27.5997 83.9872 27.5997C83.5512 27.5997 83.2928 27.3898 83.2928 27.0184V22.2063H85.3598L85.3113 21.0598H83.2928V18.7507L81.9849 19.2351V21.0598H80.7415L80.6608 22.2063H81.9849V27.196C81.9849 28.1487 82.437 28.7623 83.5674 28.7623C84.0841 28.7623 84.7623 28.617 85.2306 28.3748L85.4244 27.1799H85.3921ZM87.9521 19.2836C88.485 19.2836 88.9371 18.896 88.9371 18.2986C88.9371 17.7334 88.5657 17.4427 88.049 17.4427C87.4838 17.4427 87.064 17.7818 87.064 18.4439C87.064 18.9929 87.4515 19.2836 87.9521 19.2836ZM88.6626 28.5847V20.9791L87.3708 21.1083V28.5847H88.6626ZM92.5066 28.5847V17.4427L91.2147 17.5881V28.5847H92.5066Z" fill="#383838"/>
<defs>
<clipPath id="clip0_2223_7083">
<rect x="3.7995" y="4.08728" width="37.9949" height="37.9949" rx="18.9974" fill="white"/>
</clipPath>
</defs>
</svg>
