<svg width="122" height="46" viewBox="0 0 122 46" fill="none" xmlns="http://www.w3.org/2000/svg">
<g clip-path="url(#clip0_2223_7132)">
<path d="M22.7969 13.5861C17.5536 13.5861 13.2982 17.8415 13.2982 23.0848C13.2982 28.3281 17.5536 32.5835 22.7969 32.5835C28.0402 32.5835 32.2956 28.3281 32.2956 23.0848C32.2956 17.8415 28.0402 13.5861 22.7969 13.5861ZM22.7969 30.6837C18.5985 30.6837 15.198 27.2832 15.198 23.0848C15.198 18.8863 18.5985 15.4858 22.7969 15.4858C26.9954 15.4858 30.3959 18.8863 30.3959 23.0848C30.3959 27.2832 26.9954 30.6837 22.7969 30.6837Z" fill="#49454F"/>
</g>
<path d="M53.2935 22.4808C54.2139 22.061 54.9406 21.0921 54.9406 20.1394C54.9406 18.8153 53.8748 17.6042 51.3073 17.6042H48.2392V28.5847H51.7594C53.8264 28.5847 55.538 27.1799 55.538 25.5005C55.538 24.1118 54.7952 22.9007 53.2935 22.4808ZM51.0005 18.896C52.696 18.896 53.4065 19.4773 53.4065 20.4785C53.4065 21.1729 52.7929 21.8995 51.8725 22.174L49.6925 22.1417V18.896H51.0005ZM49.6925 27.3252V23.3528H51.9371C53.3904 23.5627 54.1332 24.2894 54.1332 25.339C54.1332 26.5339 53.3742 27.0022 52.6314 27.3252H49.6925ZM63.2308 26.8246C62.7625 27.196 61.8744 27.5028 61.0832 27.5028C59.5168 27.5028 58.548 26.8408 58.4672 24.9838C58.4672 24.9353 58.4672 24.8707 58.4834 24.8223L63.1178 24.8546C63.1985 24.4347 63.2631 23.7565 63.2631 23.3851C63.2631 21.8834 62.2297 20.8822 60.6795 20.8822C59.8075 20.8822 58.9032 21.2698 58.225 22.0449C57.4822 22.8845 57.1592 23.9341 57.1592 24.9838C57.1592 27.3252 58.4834 28.7462 60.841 28.7462C61.5353 28.7462 62.5042 28.4878 62.9886 28.1487L63.2954 26.8246H63.2308ZM60.4696 22.1417C61.4707 22.1417 62.0682 22.7069 62.1166 23.7565L58.548 23.8696C58.8063 22.6262 59.6299 22.1417 60.4696 22.1417ZM68.6821 20.9468C68.02 20.9468 67.358 21.1729 66.8897 21.4635L66.5829 21.6573H66.5344V17.4427L65.2426 17.6849V28.1003C65.6948 28.504 66.5183 28.7623 67.471 28.7623C68.7144 28.7623 69.6833 28.2941 70.3453 27.6158C71.072 26.873 71.4918 25.7427 71.4918 24.3055C71.4918 22.2063 70.5068 20.9468 68.6821 20.9468ZM67.8586 27.5028C67.3741 27.5028 66.8574 27.4059 66.5344 27.2606V22.7231C67.0673 22.4647 67.6486 22.2386 68.3107 22.2386C69.4249 22.2386 70.1193 23.0622 70.1193 24.5639C70.1193 26.7116 69.2796 27.5028 67.8586 27.5028ZM76.2678 18.5569C76.8814 19.1221 77.495 19.5904 78.2217 20.0748H78.2701L78.8837 19.6065V19.5581C77.6404 18.2824 77.2205 17.798 76.6876 17.2005H75.9287L73.781 19.6227V19.6711L74.4269 20.0748H74.4754L76.2678 18.5569ZM79.1421 26.8246C78.6738 27.196 77.7857 27.5028 76.9944 27.5028C75.4281 27.5028 74.4592 26.8408 74.3785 24.9838C74.3785 24.9353 74.3785 24.8707 74.3946 24.8223L79.0291 24.8546C79.1098 24.4347 79.1744 23.7565 79.1744 23.3851C79.1744 21.8834 78.1409 20.8822 76.5907 20.8822C75.7188 20.8822 74.8145 21.2698 74.1363 22.0449C73.3935 22.8845 73.0705 23.9341 73.0705 24.9838C73.0705 27.3252 74.3946 28.7462 76.7522 28.7462C77.4466 28.7462 78.4155 28.4878 78.8999 28.1487L79.2067 26.8246H79.1421ZM76.3808 22.1417C77.382 22.1417 77.9795 22.7069 78.0279 23.7565L74.4592 23.8696C74.7176 22.6262 75.5411 22.1417 76.3808 22.1417Z" fill="#383838"/>
<defs>
<clipPath id="clip0_2223_7132">
<rect x="3.7995" y="4.08728" width="37.9949" height="37.9949" rx="18.9974" fill="white"/>
</clipPath>
</defs>
</svg>
