<svg width="122" height="47" viewBox="0 0 122 47" fill="none" xmlns="http://www.w3.org/2000/svg">
<g clip-path="url(#clip0_2223_7086)">
<path d="M22.7969 14.2301C17.5536 14.2301 13.2982 18.4855 13.2982 23.7288C13.2982 28.9721 17.5536 33.2275 22.7969 33.2275C28.0402 33.2275 32.2956 28.9721 32.2956 23.7288C32.2956 18.4855 28.0402 14.2301 22.7969 14.2301ZM22.7969 31.3278C18.5984 31.3278 15.1979 27.9272 15.1979 23.7288C15.1979 19.5304 18.5984 16.1298 22.7969 16.1298C26.9953 16.1298 30.3958 19.5304 30.3958 23.7288C30.3958 27.9272 26.9953 31.3278 22.7969 31.3278Z" fill="#CE1A28"/>
<path d="M22.7969 28.4782C25.4199 28.4782 27.5462 26.3518 27.5462 23.7288C27.5462 21.1058 25.4199 18.9795 22.7969 18.9795C20.1739 18.9795 18.0475 21.1058 18.0475 23.7288C18.0475 26.3518 20.1739 28.4782 22.7969 28.4782Z" fill="#CE1A28"/>
</g>
<path d="M53.2935 23.1249C54.2139 22.705 54.9406 21.7362 54.9406 20.7835C54.9406 19.4593 53.8748 18.2482 51.3073 18.2482H48.2392V29.2288H51.7594C53.8264 29.2288 55.538 27.8239 55.538 26.1445C55.538 24.7558 54.7952 23.5447 53.2935 23.1249ZM51.0005 19.5401C52.696 19.5401 53.4065 20.1214 53.4065 21.1226C53.4065 21.8169 52.7929 22.5436 51.8725 22.8181L49.6925 22.7858V19.5401H51.0005ZM49.6925 27.9692V23.9969H51.9371C53.3904 24.2068 54.1332 24.9334 54.1332 25.983C54.1332 27.178 53.3742 27.6463 52.6314 27.9692H49.6925ZM63.2308 27.4686C62.7625 27.84 61.8744 28.1469 61.0832 28.1469C59.5168 28.1469 58.548 27.4848 58.4672 25.6278C58.4672 25.5794 58.4672 25.5148 58.4834 25.4663L63.1178 25.4986C63.1985 25.0788 63.2631 24.4006 63.2631 24.0292C63.2631 22.5274 62.2297 21.5263 60.6795 21.5263C59.8075 21.5263 58.9032 21.9138 58.225 22.6889C57.4822 23.5286 57.1592 24.5782 57.1592 25.6278C57.1592 27.9692 58.4834 29.3902 60.841 29.3902C61.5353 29.3902 62.5042 29.1319 62.9886 28.7928L63.2954 27.4686H63.2308ZM60.4696 22.7858C61.4707 22.7858 62.0682 23.351 62.1166 24.4006L58.548 24.5136C58.8063 23.2702 59.6299 22.7858 60.4696 22.7858ZM68.6821 21.5908C68.02 21.5908 67.358 21.8169 66.8897 22.1076L66.5829 22.3013H66.5344V18.0868L65.2426 18.329V28.7443C65.6948 29.148 66.5183 29.4064 67.471 29.4064C68.7144 29.4064 69.6833 28.9381 70.3453 28.2599C71.072 27.5171 71.4918 26.3867 71.4918 24.9496C71.4918 22.8504 70.5068 21.5908 68.6821 21.5908ZM67.8586 28.1469C67.3741 28.1469 66.8574 28.05 66.5344 27.9046V23.3671C67.0673 23.1087 67.6486 22.8827 68.3107 22.8827C69.4249 22.8827 70.1193 23.7062 70.1193 25.208C70.1193 27.3556 69.2796 28.1469 67.8586 28.1469ZM76.2678 19.201C76.8814 19.7661 77.495 20.2344 78.2217 20.7189H78.2701L78.8837 20.2506V20.2021C77.6404 18.9265 77.2205 18.442 76.6876 17.8445H75.9287L73.781 20.2667V20.3152L74.4269 20.7189H74.4754L76.2678 19.201ZM79.1421 27.4686C78.6738 27.84 77.7857 28.1469 76.9944 28.1469C75.4281 28.1469 74.4592 27.4848 74.3785 25.6278C74.3785 25.5794 74.3785 25.5148 74.3946 25.4663L79.0291 25.4986C79.1098 25.0788 79.1744 24.4006 79.1744 24.0292C79.1744 22.5274 78.1409 21.5263 76.5907 21.5263C75.7188 21.5263 74.8145 21.9138 74.1363 22.6889C73.3935 23.5286 73.0705 24.5782 73.0705 25.6278C73.0705 27.9692 74.3946 29.3902 76.7522 29.3902C77.4466 29.3902 78.4155 29.1319 78.8999 28.7928L79.2067 27.4686H79.1421ZM76.3808 22.7858C77.382 22.7858 77.9795 23.351 78.0279 24.4006L74.4592 24.5136C74.7176 23.2702 75.5411 22.7858 76.3808 22.7858Z" fill="#383838"/>
<defs>
<clipPath id="clip0_2223_7086">
<rect x="3.7995" y="4.73132" width="37.9949" height="37.9949" rx="18.9974" fill="white"/>
</clipPath>
</defs>
</svg>
