<svg width="122" height="47" viewBox="0 0 122 47" fill="none" xmlns="http://www.w3.org/2000/svg">
<g clip-path="url(#clip0_2223_7135)">
<path d="M22.7969 14.2762C17.5536 14.2762 13.2982 18.5317 13.2982 23.775C13.2982 29.0182 17.5536 33.2737 22.7969 33.2737C28.0402 33.2737 32.2956 29.0182 32.2956 23.775C32.2956 18.5317 28.0402 14.2762 22.7969 14.2762ZM22.7969 31.3739C18.5985 31.3739 15.198 27.9734 15.198 23.775C15.198 19.5765 18.5985 16.176 22.7969 16.176C26.9954 16.176 30.3959 19.5765 30.3959 23.775C30.3959 27.9734 26.9954 31.3739 22.7969 31.3739Z" fill="#49454F"/>
</g>
<path d="M52.6153 18.1975L50.9036 18.2944L47.0443 29.2749H48.4976L49.6602 25.7224H53.8748L54.0686 26.2876C54.3915 27.208 54.8437 28.6128 55.1989 29.4202L56.5715 29.0811C56.297 28.4998 55.9579 27.4825 55.4896 26.1745L52.6153 18.1975ZM51.6949 19.5701L53.455 24.5274H50.0639L51.6949 19.5701ZM59.2332 29.2749V18.1329L57.9414 18.2782V29.2749H59.2332ZM69.3182 21.5724C68.5754 21.5724 67.6872 21.8631 66.9929 22.5413C66.6376 21.8631 65.9756 21.5724 65.2812 21.5724C64.5707 21.5724 63.8279 21.8308 63.0528 22.5574H63.0044C62.9721 22.2506 62.9075 21.8631 62.8752 21.6047L61.6803 21.75C61.7771 22.4444 61.8417 23.1064 61.8417 23.7362V29.2749H63.1497V23.3164C63.8118 22.9934 64.4092 22.8158 64.8775 22.8158C65.3943 22.8158 65.9433 23.1064 65.9433 23.93V29.2749H67.2513V23.7362C67.2513 23.5909 67.2351 23.4455 67.219 23.3164C67.9295 22.9934 68.4623 22.8158 68.9791 22.8158C69.4797 22.8158 70.0448 23.1064 70.0448 23.93V29.2749H71.3528V23.7362C71.3528 22.2183 70.3839 21.5724 69.3182 21.5724ZM76.4394 29.4525C77.4405 29.4525 78.3932 29.0327 79.023 28.3545C79.7012 27.6278 80.1049 26.5782 80.1049 25.2541C80.1049 22.9127 78.8131 21.5724 76.8754 21.5724C75.9226 21.5724 74.9376 21.9761 74.2271 22.8481C73.5651 23.6555 73.3228 24.5597 73.3228 25.6416C73.3228 28.1607 74.76 29.4525 76.4394 29.4525ZM76.7785 28.193C75.3898 28.193 74.6308 27.2887 74.6308 25.3348C74.6308 23.7523 75.3736 22.8319 76.6008 22.8319C78.0218 22.8319 78.7162 23.7039 78.7162 25.6416C78.7162 27.2564 78.0218 28.193 76.7785 28.193ZM83.7513 20.1191C83.7513 19.7315 83.9774 19.5378 84.3649 19.5378C84.6879 19.5378 84.9785 19.5862 85.2369 19.6347L85.576 18.1975L84.7525 18.1329C84.042 18.2136 83.6544 18.3267 83.1861 18.7465C82.5402 19.3278 82.3949 19.9253 82.3949 20.7166V21.75H81.2645L81.1192 22.8158H82.3949V29.2749H83.7513V22.8158H85.3499L85.5114 21.75H83.7513V20.1191ZM92.2077 28.3383C92.0462 28.3383 91.9978 28.2576 91.9978 28.1284V23.6716C91.9978 22.6381 91.5456 21.5885 89.6402 21.5885C88.7682 21.5885 87.6379 21.7339 87.1696 21.8631L86.8466 23.1872C87.6863 22.9934 88.5906 22.8481 89.3334 22.8481C90.1246 22.8481 90.706 23.1872 90.706 23.9784V24.7858L88.9943 25.1249C88.09 25.3025 87.428 25.6255 86.992 26.0615C86.6044 26.449 86.4106 26.9819 86.4106 27.5148C86.4106 28.6451 87.1211 29.4202 88.1385 29.4202C88.9136 29.4202 89.834 28.9519 90.706 28.1123L90.7383 28.5967C90.7705 29.2265 91.1581 29.4364 91.5941 29.4364C91.9978 29.4364 92.5468 29.3395 92.8859 29.2426L93.0635 28.1607C92.6275 28.2899 92.3207 28.3383 92.2077 28.3383ZM87.7509 27.3049C87.7509 26.5621 88.2515 26.1584 89.1719 26.0776L90.706 25.9485V27.1111C89.7855 27.9023 89.0912 28.2253 88.5744 28.2253C88.0416 28.2253 87.7509 27.8539 87.7509 27.3049ZM100.403 18.2944L99.1115 18.4882V21.75C98.7563 21.6531 98.3203 21.5885 97.8843 21.5885C96.9962 21.5885 96.0757 21.9599 95.3329 22.7512C94.5578 23.5747 94.1541 24.6243 94.1541 26.1584C94.1541 28.1446 95.2361 29.4364 96.8347 29.4364C97.7551 29.4364 98.5948 29.0488 99.16 28.4191H99.1923C99.2569 28.7582 99.3699 29.1457 99.4991 29.4202L100.759 29.1134C100.565 28.6128 100.403 27.8055 100.403 26.9981V18.2944ZM97.1576 28.2253C96.1726 28.2253 95.5106 27.5471 95.5106 25.7547C95.5106 23.8008 96.3502 22.8319 97.6582 22.8319C98.175 22.8319 98.724 23.0095 99.1115 23.2518V27.3533C98.6917 27.7893 97.965 28.2253 97.1576 28.2253ZM108.119 28.3383C107.958 28.3383 107.909 28.2576 107.909 28.1284V23.6716C107.909 22.6381 107.457 21.5885 105.551 21.5885C104.679 21.5885 103.549 21.7339 103.081 21.8631L102.758 23.1872C103.598 22.9934 104.502 22.8481 105.245 22.8481C106.036 22.8481 106.617 23.1872 106.617 23.9784V24.7858L104.906 25.1249C104.001 25.3025 103.339 25.6255 102.903 26.0615C102.516 26.449 102.322 26.9819 102.322 27.5148C102.322 28.6451 103.032 29.4202 104.05 29.4202C104.825 29.4202 105.745 28.9519 106.617 28.1123L106.65 28.5967C106.682 29.2265 107.069 29.4364 107.505 29.4364C107.909 29.4364 108.458 29.3395 108.797 29.2426L108.975 28.1607C108.539 28.2899 108.232 28.3383 108.119 28.3383ZM103.662 27.3049C103.662 26.5621 104.163 26.1584 105.083 26.0776L106.617 25.9485V27.1111C105.697 27.9023 105.002 28.2253 104.486 28.2253C103.953 28.2253 103.662 27.8539 103.662 27.3049ZM112.229 29.4525C113.214 29.4525 114.086 29.2265 114.668 28.7582C115.184 28.3545 115.54 27.7893 115.54 27.0142C115.54 25.9969 114.684 25.4317 113.15 24.7697C112.262 24.3983 111.583 24.0915 111.583 23.5586C111.583 23.0903 112.132 22.8481 112.827 22.8481C113.521 22.8481 114.345 22.9773 114.91 23.1226L115.104 21.8308C114.619 21.7016 113.925 21.5724 113.247 21.5724C112.455 21.5724 111.664 21.7823 111.083 22.2345C110.566 22.622 110.308 23.2033 110.308 23.7362C110.308 24.7212 110.921 25.1411 112.31 25.8031C113.683 26.449 114.264 26.7397 114.264 27.2403C114.264 27.8216 113.618 28.193 112.746 28.193C111.906 28.193 110.873 27.9346 110.001 27.5309L110.146 29.0327C110.631 29.2749 111.486 29.4525 112.229 29.4525Z" fill="#383838"/>
<defs>
<clipPath id="clip0_2223_7135">
<rect x="3.7995" y="4.77747" width="37.9949" height="37.9949" rx="18.9974" fill="white"/>
</clipPath>
</defs>
</svg>
