<svg width="122" height="47" viewBox="0 0 122 47" fill="none" xmlns="http://www.w3.org/2000/svg">
<g clip-path="url(#clip0_2223_7089)">
<path d="M22.7969 13.9203C17.5536 13.9203 13.2982 18.1757 13.2982 23.419C13.2982 28.6623 17.5536 32.9177 22.7969 32.9177C28.0402 32.9177 32.2956 28.6623 32.2956 23.419C32.2956 18.1757 28.0402 13.9203 22.7969 13.9203ZM22.7969 31.018C18.5984 31.018 15.1979 27.6174 15.1979 23.419C15.1979 19.2206 18.5984 15.82 22.7969 15.82C26.9953 15.82 30.3958 19.2206 30.3958 23.419C30.3958 27.6174 26.9953 31.018 22.7969 31.018Z" fill="#CE1A28"/>
<path d="M22.7969 28.1684C25.4199 28.1684 27.5462 26.042 27.5462 23.419C27.5462 20.796 25.4199 18.6696 22.7969 18.6696C20.1739 18.6696 18.0475 20.796 18.0475 23.419C18.0475 26.042 20.1739 28.1684 22.7969 28.1684Z" fill="#CE1A28"/>
</g>
<path d="M52.6153 17.8415L50.9036 17.9384L47.0443 28.9189H48.4976L49.6602 25.3664H53.8748L54.0686 25.9316C54.3915 26.852 54.8437 28.2569 55.1989 29.0643L56.5715 28.7252C56.297 28.1439 55.9579 27.1265 55.4896 25.8186L52.6153 17.8415ZM51.6949 19.2141L53.455 24.1715H50.0639L51.6949 19.2141ZM59.2332 28.9189V17.777L57.9414 17.9223V28.9189H59.2332ZM69.3182 21.2164C68.5754 21.2164 67.6872 21.5071 66.9929 22.1853C66.6376 21.5071 65.9756 21.2164 65.2812 21.2164C64.5707 21.2164 63.8279 21.4748 63.0528 22.2015H63.0044C62.9721 21.8946 62.9075 21.5071 62.8752 21.2487L61.6803 21.3941C61.7771 22.0884 61.8417 22.7505 61.8417 23.3802V28.9189H63.1497V22.9604C63.8118 22.6374 64.4092 22.4598 64.8775 22.4598C65.3943 22.4598 65.9433 22.7505 65.9433 23.574V28.9189H67.2513V23.3802C67.2513 23.2349 67.2351 23.0896 67.219 22.9604C67.9295 22.6374 68.4623 22.4598 68.9791 22.4598C69.4797 22.4598 70.0448 22.7505 70.0448 23.574V28.9189H71.3528V23.3802C71.3528 21.8623 70.3839 21.2164 69.3182 21.2164ZM76.4394 29.0966C77.4405 29.0966 78.3932 28.6767 79.023 27.9985C79.7012 27.2719 80.1049 26.2223 80.1049 24.8981C80.1049 22.5567 78.8131 21.2164 76.8754 21.2164C75.9226 21.2164 74.9376 21.6201 74.2271 22.4921C73.5651 23.2995 73.3228 24.2038 73.3228 25.2857C73.3228 27.8047 74.76 29.0966 76.4394 29.0966ZM76.7785 27.837C75.3898 27.837 74.6308 26.9328 74.6308 24.9789C74.6308 23.3964 75.3736 22.476 76.6008 22.476C78.0218 22.476 78.7162 23.3479 78.7162 25.2857C78.7162 26.9005 78.0218 27.837 76.7785 27.837ZM83.7513 19.7631C83.7513 19.3756 83.9774 19.1818 84.3649 19.1818C84.6879 19.1818 84.9785 19.2303 85.2369 19.2787L85.576 17.8415L84.7525 17.777C84.042 17.8577 83.6544 17.9707 83.1861 18.3906C82.5402 18.9719 82.3949 19.5694 82.3949 20.3606V21.3941H81.2645L81.1192 22.4598H82.3949V28.9189H83.7513V22.4598H85.3499L85.5114 21.3941H83.7513V19.7631ZM92.2077 27.9824C92.0462 27.9824 91.9978 27.9016 91.9978 27.7725V23.3157C91.9978 22.2822 91.5456 21.2326 89.6402 21.2326C88.7682 21.2326 87.6379 21.3779 87.1696 21.5071L86.8466 22.8312C87.6863 22.6374 88.5906 22.4921 89.3334 22.4921C90.1246 22.4921 90.706 22.8312 90.706 23.6225V24.4299L88.9943 24.769C88.09 24.9466 87.428 25.2695 86.992 25.7055C86.6044 26.0931 86.4106 26.626 86.4106 27.1588C86.4106 28.2892 87.1211 29.0643 88.1385 29.0643C88.9136 29.0643 89.834 28.596 90.706 27.7563L90.7383 28.2407C90.7705 28.8705 91.1581 29.0804 91.5941 29.0804C91.9978 29.0804 92.5468 28.9835 92.8859 28.8866L93.0635 27.8047C92.6275 27.9339 92.3207 27.9824 92.2077 27.9824ZM87.7509 26.9489C87.7509 26.2061 88.2515 25.8024 89.1719 25.7217L90.706 25.5925V26.7551C89.7855 27.5464 89.0912 27.8693 88.5744 27.8693C88.0416 27.8693 87.7509 27.4979 87.7509 26.9489ZM100.403 17.9384L99.1115 18.1322V21.3941C98.7563 21.2972 98.3203 21.2326 97.8843 21.2326C96.9962 21.2326 96.0757 21.604 95.3329 22.3952C94.5578 23.2188 94.1541 24.2684 94.1541 25.8024C94.1541 27.7886 95.2361 29.0804 96.8347 29.0804C97.7551 29.0804 98.5948 28.6929 99.16 28.0631H99.1923C99.2569 28.4022 99.3699 28.7898 99.4991 29.0643L100.759 28.7575C100.565 28.2569 100.403 27.4495 100.403 26.6421V17.9384ZM97.1576 27.8693C96.1726 27.8693 95.5106 27.1911 95.5106 25.3987C95.5106 23.4448 96.3502 22.476 97.6582 22.476C98.175 22.476 98.724 22.6536 99.1115 22.8958V26.9974C98.6917 27.4333 97.965 27.8693 97.1576 27.8693ZM108.119 27.9824C107.958 27.9824 107.909 27.9016 107.909 27.7725V23.3157C107.909 22.2822 107.457 21.2326 105.551 21.2326C104.679 21.2326 103.549 21.3779 103.081 21.5071L102.758 22.8312C103.598 22.6374 104.502 22.4921 105.245 22.4921C106.036 22.4921 106.617 22.8312 106.617 23.6225V24.4299L104.906 24.769C104.001 24.9466 103.339 25.2695 102.903 25.7055C102.516 26.0931 102.322 26.626 102.322 27.1588C102.322 28.2892 103.032 29.0643 104.05 29.0643C104.825 29.0643 105.745 28.596 106.617 27.7563L106.65 28.2407C106.682 28.8705 107.069 29.0804 107.505 29.0804C107.909 29.0804 108.458 28.9835 108.797 28.8866L108.975 27.8047C108.539 27.9339 108.232 27.9824 108.119 27.9824ZM103.662 26.9489C103.662 26.2061 104.163 25.8024 105.083 25.7217L106.617 25.5925V26.7551C105.697 27.5464 105.002 27.8693 104.486 27.8693C103.953 27.8693 103.662 27.4979 103.662 26.9489ZM112.229 29.0966C113.214 29.0966 114.086 28.8705 114.668 28.4022C115.184 27.9985 115.54 27.4333 115.54 26.6583C115.54 25.6409 114.684 25.0758 113.15 24.4137C112.262 24.0423 111.583 23.7355 111.583 23.2026C111.583 22.7343 112.132 22.4921 112.827 22.4921C113.521 22.4921 114.345 22.6213 114.91 22.7666L115.104 21.4748C114.619 21.3456 113.925 21.2164 113.247 21.2164C112.455 21.2164 111.664 21.4264 111.083 21.8785C110.566 22.266 110.308 22.8474 110.308 23.3802C110.308 24.3653 110.921 24.7851 112.31 25.4472C113.683 26.0931 114.264 26.3837 114.264 26.8843C114.264 27.4656 113.618 27.837 112.746 27.837C111.906 27.837 110.873 27.5787 110.001 27.175L110.146 28.6767C110.631 28.9189 111.486 29.0966 112.229 29.0966Z" fill="#383838"/>
<defs>
<clipPath id="clip0_2223_7089">
<rect x="3.7995" y="4.42151" width="37.9949" height="37.9949" rx="18.9974" fill="white"/>
</clipPath>
</defs>
</svg>
