<svg width="122" height="47" viewBox="0 0 122 47" fill="none" xmlns="http://www.w3.org/2000/svg">
<g clip-path="url(#clip0_2223_7138)">
<path d="M22.7969 14.2762C17.5536 14.2762 13.2982 18.5317 13.2982 23.775C13.2982 29.0182 17.5536 33.2737 22.7969 33.2737C28.0402 33.2737 32.2956 29.0182 32.2956 23.775C32.2956 18.5317 28.0402 14.2762 22.7969 14.2762ZM22.7969 31.3739C18.5985 31.3739 15.198 27.9734 15.198 23.775C15.198 19.5765 18.5985 16.176 22.7969 16.176C26.9954 16.176 30.3959 19.5765 30.3959 23.775C30.3959 27.9734 26.9954 31.3739 22.7969 31.3739Z" fill="#49454F"/>
</g>
<path d="M53.2935 23.171C54.2139 22.7512 54.9406 21.7823 54.9406 20.8296C54.9406 19.5055 53.8748 18.2944 51.3073 18.2944H48.2392V29.2749H51.7594C53.8264 29.2749 55.538 27.87 55.538 26.1907C55.538 24.802 54.7952 23.5909 53.2935 23.171ZM51.0005 19.5862C52.696 19.5862 53.4065 20.1675 53.4065 21.1687C53.4065 21.8631 52.7929 22.5897 51.8725 22.8642L49.6925 22.8319V19.5862H51.0005ZM49.6925 28.0154V24.043H51.9371C53.3904 24.2529 54.1332 24.9796 54.1332 26.0292C54.1332 27.2241 53.3742 27.6924 52.6314 28.0154H49.6925ZM60.2758 29.4525C61.2769 29.4525 62.2297 29.0327 62.8594 28.3545C63.5376 27.6278 63.9413 26.5782 63.9413 25.2541C63.9413 22.9127 62.6495 21.5724 60.7118 21.5724C59.759 21.5724 58.774 21.9761 58.0635 22.8481C57.4015 23.6555 57.1592 24.5597 57.1592 25.6416C57.1592 28.1607 58.5964 29.4525 60.2758 29.4525ZM60.6149 28.193C59.2262 28.193 58.4672 27.2887 58.4672 25.3348C58.4672 23.7523 59.21 22.8319 60.4373 22.8319C61.8583 22.8319 62.5526 23.7039 62.5526 25.6416C62.5526 27.2564 61.8583 28.193 60.6149 28.193ZM67.2125 29.2749V18.1329L65.9207 18.2782V29.2749H67.2125ZM71.3551 29.4525C72.3401 29.4525 73.2121 29.2265 73.7934 28.7582C74.3101 28.3545 74.6654 27.7893 74.6654 27.0142C74.6654 25.9969 73.8095 25.4317 72.2755 24.7697C71.3874 24.3983 70.7092 24.0915 70.7092 23.5586C70.7092 23.0903 71.2582 22.8481 71.9525 22.8481C72.6469 22.8481 73.4704 22.9773 74.0356 23.1226L74.2294 21.8308C73.7449 21.7016 73.0506 21.5724 72.3724 21.5724C71.5811 21.5724 70.7899 21.7823 70.2086 22.2345C69.6918 22.622 69.4335 23.2033 69.4335 23.7362C69.4335 24.7212 70.0471 25.1411 71.4358 25.8031C72.8084 26.449 73.3897 26.7397 73.3897 27.2403C73.3897 27.8216 72.7438 28.193 71.8718 28.193C71.0321 28.193 69.9987 27.9346 69.1267 27.5309L69.272 29.0327C69.7564 29.2749 70.6123 29.4525 71.3551 29.4525ZM81.8946 28.3383C81.7331 28.3383 81.6846 28.2576 81.6846 28.1284V23.6716C81.6846 22.6381 81.2325 21.5885 79.327 21.5885C78.4551 21.5885 77.3247 21.7339 76.8564 21.8631L76.5335 23.1872C77.3732 22.9934 78.2774 22.8481 79.0202 22.8481C79.8115 22.8481 80.3928 23.1872 80.3928 23.9784V24.7858L78.6811 25.1249C77.7769 25.3025 77.1148 25.6255 76.6788 26.0615C76.2913 26.449 76.0975 26.9819 76.0975 27.5148C76.0975 28.6451 76.808 29.4202 77.8253 29.4202C78.6004 29.4202 79.5208 28.9519 80.3928 28.1123L80.4251 28.5967C80.4574 29.2265 80.8449 29.4364 81.2809 29.4364C81.6846 29.4364 82.2337 29.3395 82.5728 29.2426L82.7504 28.1607C82.3144 28.2899 82.0076 28.3383 81.8946 28.3383ZM77.4378 27.3049C77.4378 26.5621 77.9383 26.1584 78.8588 26.0776L80.3928 25.9485V27.1111C79.4724 27.9023 78.778 28.2253 78.2613 28.2253C77.7284 28.2253 77.4378 27.8539 77.4378 27.3049ZM86.0048 29.4525C86.9898 29.4525 87.8618 29.2265 88.4431 28.7582C88.9599 28.3545 89.3151 27.7893 89.3151 27.0142C89.3151 25.9969 88.4593 25.4317 86.9252 24.7697C86.0371 24.3983 85.3589 24.0915 85.3589 23.5586C85.3589 23.0903 85.9079 22.8481 86.6023 22.8481C87.2966 22.8481 88.1202 22.9773 88.6853 23.1226L88.8791 21.8308C88.3947 21.7016 87.7003 21.5724 87.0221 21.5724C86.2309 21.5724 85.4396 21.7823 84.8583 22.2345C84.3416 22.622 84.0832 23.2033 84.0832 23.7362C84.0832 24.7212 84.6968 25.1411 86.0855 25.8031C87.4581 26.449 88.0394 26.7397 88.0394 27.2403C88.0394 27.8216 87.3935 28.193 86.5215 28.193C85.6818 28.193 84.6484 27.9346 83.7764 27.5309L83.9217 29.0327C84.4062 29.2749 85.262 29.4525 86.0048 29.4525Z" fill="#383838"/>
<defs>
<clipPath id="clip0_2223_7138">
<rect x="3.7995" y="4.77747" width="37.9949" height="37.9949" rx="18.9974" fill="white"/>
</clipPath>
</defs>
</svg>
