<svg width="122" height="47" viewBox="0 0 122 47" fill="none" xmlns="http://www.w3.org/2000/svg">
<g clip-path="url(#clip0_2223_7092)">
<path d="M22.7969 13.9203C17.5536 13.9203 13.2982 18.1757 13.2982 23.419C13.2982 28.6623 17.5536 32.9177 22.7969 32.9177C28.0402 32.9177 32.2956 28.6623 32.2956 23.419C32.2956 18.1757 28.0402 13.9203 22.7969 13.9203ZM22.7969 31.018C18.5984 31.018 15.1979 27.6174 15.1979 23.419C15.1979 19.2206 18.5984 15.82 22.7969 15.82C26.9953 15.82 30.3958 19.2206 30.3958 23.419C30.3958 27.6174 26.9953 31.018 22.7969 31.018Z" fill="#CE1A28"/>
<path d="M22.7969 28.1684C25.4199 28.1684 27.5462 26.042 27.5462 23.419C27.5462 20.796 25.4199 18.6696 22.7969 18.6696C20.1739 18.6696 18.0475 20.796 18.0475 23.419C18.0475 26.042 20.1739 28.1684 22.7969 28.1684Z" fill="#CE1A28"/>
</g>
<path d="M53.2935 22.8151C54.2139 22.3952 54.9406 21.4264 54.9406 20.4736C54.9406 19.1495 53.8748 17.9384 51.3073 17.9384H48.2392V28.9189H51.7594C53.8264 28.9189 55.538 27.5141 55.538 25.8347C55.538 24.446 54.7952 23.2349 53.2935 22.8151ZM51.0005 19.2303C52.696 19.2303 53.4065 19.8116 53.4065 20.8127C53.4065 21.5071 52.7929 22.2337 51.8725 22.5083L49.6925 22.476V19.2303H51.0005ZM49.6925 27.6594V23.6871H51.9371C53.3904 23.897 54.1332 24.6236 54.1332 25.6732C54.1332 26.8682 53.3742 27.3365 52.6314 27.6594H49.6925ZM60.2758 29.0966C61.2769 29.0966 62.2297 28.6767 62.8594 27.9985C63.5376 27.2719 63.9413 26.2223 63.9413 24.8981C63.9413 22.5567 62.6495 21.2164 60.7118 21.2164C59.759 21.2164 58.774 21.6201 58.0635 22.4921C57.4015 23.2995 57.1592 24.2038 57.1592 25.2857C57.1592 27.8047 58.5964 29.0966 60.2758 29.0966ZM60.6149 27.837C59.2262 27.837 58.4672 26.9328 58.4672 24.9789C58.4672 23.3964 59.21 22.476 60.4373 22.476C61.8583 22.476 62.5526 23.3479 62.5526 25.2857C62.5526 26.9005 61.8583 27.837 60.6149 27.837ZM67.2125 28.9189V17.777L65.9207 17.9223V28.9189H67.2125ZM71.3551 29.0966C72.3401 29.0966 73.2121 28.8705 73.7934 28.4022C74.3101 27.9985 74.6654 27.4333 74.6654 26.6583C74.6654 25.6409 73.8095 25.0758 72.2755 24.4137C71.3874 24.0423 70.7092 23.7355 70.7092 23.2026C70.7092 22.7343 71.2582 22.4921 71.9525 22.4921C72.6469 22.4921 73.4704 22.6213 74.0356 22.7666L74.2294 21.4748C73.7449 21.3456 73.0506 21.2164 72.3724 21.2164C71.5811 21.2164 70.7899 21.4264 70.2086 21.8785C69.6918 22.266 69.4335 22.8474 69.4335 23.3802C69.4335 24.3653 70.0471 24.7851 71.4358 25.4472C72.8084 26.0931 73.3897 26.3837 73.3897 26.8843C73.3897 27.4656 72.7438 27.837 71.8718 27.837C71.0321 27.837 69.9987 27.5787 69.1267 27.175L69.272 28.6767C69.7564 28.9189 70.6123 29.0966 71.3551 29.0966ZM81.8946 27.9824C81.7331 27.9824 81.6846 27.9016 81.6846 27.7725V23.3157C81.6846 22.2822 81.2325 21.2326 79.327 21.2326C78.4551 21.2326 77.3247 21.3779 76.8564 21.5071L76.5335 22.8312C77.3732 22.6374 78.2774 22.4921 79.0202 22.4921C79.8115 22.4921 80.3928 22.8312 80.3928 23.6225V24.4299L78.6811 24.769C77.7769 24.9466 77.1148 25.2695 76.6788 25.7055C76.2913 26.0931 76.0975 26.626 76.0975 27.1588C76.0975 28.2892 76.808 29.0643 77.8253 29.0643C78.6004 29.0643 79.5208 28.596 80.3928 27.7563L80.4251 28.2407C80.4574 28.8705 80.8449 29.0804 81.2809 29.0804C81.6846 29.0804 82.2337 28.9835 82.5728 28.8866L82.7504 27.8047C82.3144 27.9339 82.0076 27.9824 81.8946 27.9824ZM77.4378 26.9489C77.4378 26.2061 77.9383 25.8024 78.8588 25.7217L80.3928 25.5925V26.7551C79.4724 27.5464 78.778 27.8693 78.2613 27.8693C77.7284 27.8693 77.4378 27.4979 77.4378 26.9489ZM86.0048 29.0966C86.9898 29.0966 87.8618 28.8705 88.4431 28.4022C88.9599 27.9985 89.3151 27.4333 89.3151 26.6583C89.3151 25.6409 88.4593 25.0758 86.9252 24.4137C86.0371 24.0423 85.3589 23.7355 85.3589 23.2026C85.3589 22.7343 85.9079 22.4921 86.6023 22.4921C87.2966 22.4921 88.1202 22.6213 88.6853 22.7666L88.8791 21.4748C88.3947 21.3456 87.7003 21.2164 87.0221 21.2164C86.2309 21.2164 85.4396 21.4264 84.8583 21.8785C84.3416 22.266 84.0832 22.8474 84.0832 23.3802C84.0832 24.3653 84.6968 24.7851 86.0855 25.4472C87.4581 26.0931 88.0394 26.3837 88.0394 26.8843C88.0394 27.4656 87.3935 27.837 86.5215 27.837C85.6818 27.837 84.6484 27.5787 83.7764 27.175L83.9217 28.6767C84.4062 28.9189 85.262 29.0966 86.0048 29.0966Z" fill="#383838"/>
<defs>
<clipPath id="clip0_2223_7092">
<rect x="3.7995" y="4.42151" width="37.9949" height="37.9949" rx="18.9974" fill="white"/>
</clipPath>
</defs>
</svg>
