<svg width="117" height="31" viewBox="0 0 117 31" fill="none" xmlns="http://www.w3.org/2000/svg">
<path d="M9.88292 7.3687H14.0663V8.9836H9.88292L9.91387 19.0106L13.6806 21.734H0L3.25099 19.0681V8.97785H0.740555L0.707543 7.36294H3.83064C2.54345 6.58426 1.70595 5.53707 1.70595 4.16C1.70595 1.52668 4.59388 0 7.95007 0C11.8467 0 14.1385 1.43653 14.1385 3.412C14.1385 4.57811 13.334 5.35679 12.0757 5.89573C11.3021 4.81785 9.82311 4.19068 8.53385 4.19068C7.50244 4.19068 6.92486 4.69894 6.92486 5.41625C6.92073 6.34453 8.11097 7.3687 9.88292 7.3687Z" fill="#9E9E9E"/>
<path d="M15.5475 18.2256C15.5475 15.412 18.4767 12.5101 26.2349 11.4016V11.018C26.2349 8.6244 24.6899 6.97881 22.9839 6.97881C22.0165 6.97881 21.5399 7.55418 21.5399 8.38465C21.5399 8.98304 21.8948 9.76173 22.6023 10.3908C21.7772 11.1983 20.4467 11.7679 18.683 11.7679C17.239 11.7679 16.0426 11.1676 16.0426 9.76172C16.0426 7.48705 19.7123 5.57104 24.3144 5.57104C29.1435 5.57104 32.6523 7.21855 32.6523 12.0364V18.2313C32.6523 18.7415 32.9741 19.01 33.5208 19.01C34.2018 18.9892 34.8707 18.8363 35.4846 18.5612C34.3583 20.7764 32.0087 22.1823 29.6262 22.1823C27.7696 22.1823 26.0864 21.3748 26.0864 18.7703V18.4116H25.9894C24.6362 21.0449 22.2227 22.1823 20.0341 22.1823C17.5422 22.1765 15.5475 20.7112 15.5475 18.2256ZM26.2349 14.9651V14.1883C25.5901 13.8078 24.841 13.608 24.0772 13.6129C22.823 13.6129 21.9525 14.3916 21.9525 15.6191C21.9525 16.9616 22.854 17.9532 23.9493 17.9532C25.2365 17.9571 26.2349 17.1189 26.2349 14.9632V14.9651Z" fill="#9E9E9E"/>
<path d="M46.2548 22.0583C47.1862 22.3177 48.0013 22.8524 48.5764 23.5813C49.1515 24.3102 49.4554 25.1935 49.4419 26.0975C49.4419 28.9744 47.1253 31.0074 43.9383 31.0074C41.3309 31.0074 39.1093 29.7204 39.1093 27.4458C39.1093 26.9356 39.3032 26.2471 39.625 25.9114C40.5574 26.5386 43.5835 27.4458 46.1269 27.4458C47.1253 27.4458 47.7772 27.206 47.7772 26.7265C47.7772 25.6793 44.9119 24.7818 41.694 24.7818C41.2714 24.7703 40.8491 24.8102 40.4377 24.9007C40.5361 24.311 40.7907 23.7534 41.1785 23.278C41.5663 22.8026 42.0752 22.4243 42.6593 22.1772C38.6988 21.5788 35.5117 18.3164 35.5117 13.9167C35.5117 8.65003 39.6641 5.59668 44.3962 5.59668C48.7426 5.59668 51.1891 7.81189 51.1891 10.0866C51.1891 12.1215 49.677 13.1994 46.8757 13.4986C45.7804 9.90628 43.3999 8.17054 41.661 8.17054C40.5347 8.17054 39.858 8.85908 39.858 10.2956C39.858 13.2588 42.7563 17.1484 47.3914 17.1484C49.1613 17.1484 50.8982 16.6996 52.0266 15.8327C51.6738 19.214 49.281 21.3698 46.2548 22.0583Z" fill="#9E9E9E"/>
<path d="M53.4647 18.2256C53.4647 15.412 56.3939 12.5101 64.1521 11.4016V11.018C64.1521 8.6244 62.6071 6.97881 60.9012 6.97881C59.9358 6.97881 59.4572 7.55418 59.4572 8.38465C59.4572 8.98304 59.812 9.76173 60.5195 10.3908C59.682 11.1983 58.3618 11.7679 56.6002 11.7679C55.1562 11.7679 53.9598 11.1676 53.9598 9.76172C53.9598 7.48705 57.6295 5.57104 62.2337 5.57104C67.0628 5.57104 70.5716 7.21855 70.5716 12.0364V18.2313C70.5716 18.7415 70.8934 19.01 71.4401 19.01C72.1211 18.9889 72.7899 18.836 73.4039 18.5612C72.2776 20.7764 69.928 22.1823 67.5455 22.1823C65.6889 22.1823 64.0036 21.3748 64.0036 18.7703V18.4116H63.9087C62.5555 21.0449 60.142 22.1823 57.9534 22.1823C55.4615 22.1765 53.4647 20.7112 53.4647 18.2256ZM64.1521 14.9651V14.1883C63.5081 13.8077 62.7596 13.6079 61.9965 13.6129C60.7403 13.6129 59.8718 14.3916 59.8718 15.6191C59.8718 16.9616 60.7733 17.9532 61.8665 17.9532C63.1558 17.9571 64.1521 17.1189 64.1521 14.9632V14.9651Z" fill="#9E9E9E"/>
<path d="M74.8373 19.0949C74.8373 17.269 76.2812 15.8018 78.7566 15.8018C81.2671 15.8018 82.676 17.269 82.676 19.0949C82.676 20.8613 81.2588 22.3266 78.7566 22.3266C76.2874 22.3285 74.8373 20.8613 74.8373 19.0949Z" fill="#9E9E9E"/>
<path d="M100.3 5.98547C98.7856 7.21295 97.4985 9.06758 96.4361 10.8033L89.1626 22.6561L81.7571 10.5348C80.8887 9.09828 79.6943 6.79292 78.6361 5.98547H90.7716C89.6453 6.56085 88.9357 7.422 88.9357 8.82785C88.9357 10.3622 89.9011 12.0615 90.8356 13.6476L91.8979 15.5022L93.0572 13.3177C93.8927 11.7316 94.3444 10.1455 94.3444 8.82785C94.3444 7.39131 93.6369 6.52633 92.3806 5.98547H100.3Z" fill="#9E9E9E"/>
<path d="M99.6204 13.9167C99.6204 8.65003 103.775 5.59668 108.507 5.59668C112.851 5.59668 115.298 7.81189 115.298 10.0866C115.298 12.1215 113.786 13.1994 110.984 13.4986C109.891 9.90628 107.509 8.17054 105.77 8.17054C104.643 8.17054 103.967 8.85908 103.967 10.2956C103.967 13.2588 106.855 17.1484 111.5 17.1484C113.27 17.1484 115.007 16.6996 116.135 15.8327C115.686 20.0234 112.177 22.298 108.152 22.298C103.548 22.298 99.6204 18.7959 99.6204 13.9167Z" fill="#9E9E9E"/>
</svg>
