<svg width="173" height="46" viewBox="0 0 173 46" fill="none" xmlns="http://www.w3.org/2000/svg">
<g clip-path="url(#clip0_1582_23403)">
<path d="M14.7259 11.1808H20.9189V13.5553H14.7259L14.7717 28.2991L20.3479 32.3037H0.0951843L4.90795 28.3837V13.5469H1.1915L1.14263 11.1723H5.76607C3.8605 10.0273 2.62067 8.4875 2.62067 6.46262C2.62067 2.59055 6.89596 0.345703 11.8645 0.345703C17.6331 0.345703 21.0258 2.458 21.0258 5.36276C21.0258 7.07742 19.8348 8.22241 17.972 9.01487C16.8269 7.42994 14.6373 6.50775 12.7287 6.50775C11.2018 6.50775 10.3467 7.25509 10.3467 8.30983C10.3406 9.67479 12.1027 11.1808 14.7259 11.1808Z" fill="black"/>
<path d="M23.1117 27.1455C23.1117 23.0083 27.448 18.7414 38.9333 17.1114V16.5473C38.9333 13.0278 36.646 10.6081 34.1206 10.6081C32.6883 10.6081 31.9829 11.4541 31.9829 12.6753C31.9829 13.5551 32.5082 14.7001 33.5556 15.6251C32.3341 16.8124 30.3644 17.65 27.7534 17.65C25.6158 17.65 23.8446 16.7673 23.8446 14.7001C23.8446 11.3554 29.2773 8.53809 36.0903 8.53809C43.2392 8.53809 48.4337 10.9606 48.4337 18.0448V27.1539C48.4337 27.9041 48.9101 28.2989 49.7193 28.2989C50.7276 28.2683 51.7178 28.0435 52.6265 27.639C50.9592 30.8963 47.4809 32.9635 43.9538 32.9635C41.2054 32.9635 38.7135 31.7762 38.7135 27.9464V27.419H38.5699C36.5666 31.2911 32.9937 32.9635 29.7537 32.9635C26.0647 32.955 23.1117 30.8004 23.1117 27.1455ZM38.9333 22.3512V21.2091C37.9787 20.6495 36.8697 20.3558 35.7391 20.363C33.8824 20.363 32.5937 21.508 32.5937 23.3129C32.5937 25.287 33.9282 26.745 35.5497 26.745C37.4553 26.7507 38.9333 25.5182 38.9333 22.3484V22.3512Z" fill="black"/>
<path d="M68.5705 32.7806C69.9494 33.162 71.156 33.9482 72.0074 35.02C72.8589 36.0918 73.3087 37.3907 73.2887 38.7199C73.2887 42.9501 69.8593 45.9394 65.1412 45.9394C61.2812 45.9394 57.9923 44.0471 57.9923 40.7024C57.9923 39.9523 58.2793 38.9398 58.7557 38.4463C60.136 39.3685 64.6159 40.7024 68.3812 40.7024C69.8592 40.7024 70.8242 40.3499 70.8242 39.6449C70.8242 38.1051 66.5825 36.7852 61.8186 36.7852C61.1931 36.7683 60.5679 36.8271 59.9589 36.9601C60.1045 36.0931 60.4814 35.2731 61.0555 34.574C61.6297 33.875 62.383 33.3188 63.2478 32.9555C57.3845 32.0756 52.6665 27.2785 52.6665 20.809C52.6665 13.0649 58.8137 8.5752 65.8191 8.5752C72.2534 8.5752 75.8752 11.8325 75.8752 15.1772C75.8752 18.1694 73.6368 19.7543 69.4897 20.1942C67.8682 14.9121 64.3441 12.3598 61.7698 12.3598C60.1024 12.3598 59.1008 13.3723 59.1008 15.4846C59.1008 19.8417 63.3913 25.561 70.2532 25.561C72.8733 25.561 75.4446 24.9011 77.1151 23.6264C76.5929 28.5983 73.0505 31.7682 68.5705 32.7806Z" fill="black"/>
<path d="M79.2443 27.1455C79.2443 23.0083 83.5807 18.7414 95.066 17.1114V16.5473C95.066 13.0278 92.7787 10.6081 90.2532 10.6081C88.824 10.6081 88.1155 11.4541 88.1155 12.6753C88.1155 13.5551 88.6408 14.7001 89.6883 15.6251C88.4484 16.8124 86.494 17.65 83.8861 17.65C81.7484 17.65 79.9772 16.7673 79.9772 14.7001C79.9772 11.3554 85.4099 8.53809 92.2259 8.53809C99.3749 8.53809 104.569 10.9606 104.569 18.0448V27.1539C104.569 27.9041 105.046 28.2989 105.855 28.2989C106.863 28.2679 107.853 28.0431 108.762 27.639C107.095 30.8963 103.617 32.9635 100.089 32.9635C97.341 32.9635 94.8461 31.7762 94.8461 27.9464V27.419H94.7056C92.7023 31.2911 89.1294 32.9635 85.8893 32.9635C82.2004 32.955 79.2443 30.8004 79.2443 27.1455ZM95.066 22.3512V21.2091C94.1125 20.6494 93.0045 20.3557 91.8748 20.363C90.015 20.363 88.7294 21.508 88.7294 23.3129C88.7294 25.287 90.0639 26.745 91.6824 26.745C93.591 26.7507 95.066 25.5182 95.066 22.3484V22.3512Z" fill="black"/>
<path d="M110.884 28.4233C110.884 25.7385 113.022 23.5811 116.687 23.5811C120.403 23.5811 122.489 25.7385 122.489 28.4233C122.489 31.0206 120.391 33.1752 116.687 33.1752C113.031 33.1781 110.884 31.0206 110.884 28.4233Z" fill="black"/>
<path d="M148.579 9.14648C146.337 10.9514 144.432 13.6785 142.859 16.2307L132.091 33.6593L121.128 15.8359C119.843 13.7236 118.075 10.3338 116.508 9.14648H134.473C132.806 9.99253 131.756 11.2588 131.756 13.3259C131.756 15.5821 133.185 18.0807 134.568 20.413L136.141 23.1401L137.857 19.9279C139.094 17.5957 139.763 15.2634 139.763 13.3259C139.763 11.2137 138.715 9.94177 136.855 9.14648H148.579Z" fill="black"/>
<path d="M147.573 20.809C147.573 13.0649 153.724 8.5752 160.729 8.5752C167.16 8.5752 170.782 11.8325 170.782 15.1772C170.782 18.1694 168.544 19.7543 164.397 20.1942C162.778 14.9121 159.251 12.3598 156.677 12.3598C155.009 12.3598 154.008 13.3723 154.008 15.4846C154.008 19.8417 158.283 25.561 165.16 25.561C167.78 25.561 170.352 24.9011 172.022 23.6264C171.356 29.7884 166.162 33.1331 160.204 33.1331C153.388 33.1331 147.573 27.9835 147.573 20.809Z" fill="black"/>
</g>
<defs>
<clipPath id="clip0_1582_23403">
<rect width="171.927" height="45.5938" fill="white" transform="translate(0.0951843 0.345703)"/>
</clipPath>
</defs>
</svg>
