<svg width="164" height="27" viewBox="0 0 164 27" fill="none" xmlns="http://www.w3.org/2000/svg">
<path d="M28.8373 1.59912L25.6028 4.61859V26.0663H25.089L6.7591 8.38237V21.8539L10.4687 24.9789H0.696075L4.11291 21.9225V6.0861L0 1.59912H10.7035L22.3047 12.3415V4.61859L18.7139 1.59912H28.8373Z" fill="#9E9E9E"/>
<path d="M48.2338 18.2385C47.5377 23.1874 43.3861 25.6104 39.3091 25.6104C34.4228 25.6104 28.9481 22.1 28.9481 15.8156C28.9481 10.0591 33.503 6.0498 38.4998 6.0498C43.7148 6.0498 47.0958 9.17485 47.3167 13.1419L36.4779 16.7209C38.0219 18.5474 40.345 19.9146 43.1292 19.9146C45.1843 19.9225 47.0212 19.2574 48.2338 18.2385ZM34.5333 11.8512C34.5586 13.0396 34.8726 14.2061 35.4503 15.2587L40.4831 12.87C39.566 10.4127 37.8755 9.17485 36.5524 9.17485C35.4144 9.18277 34.5333 10.0591 34.5333 11.8512Z" fill="#9E9E9E"/>
<path d="M50.1792 15.8519C50.1792 9.8473 54.8086 6.05713 60.5402 6.05713C66.675 6.05713 70.7603 10.4808 70.7603 15.7464C70.7603 21.012 66.8656 25.6441 60.4021 25.6441C54.3667 25.6441 50.1792 21.5715 50.1792 15.8519ZM65.4265 20.2729C65.4265 17.0793 60.3192 9.53322 56.8637 9.53322C56.0185 9.53322 55.3942 10.1983 55.3942 11.357C55.3942 14.5877 60.2419 22.0994 63.7692 22.0994C64.7277 22.0994 65.4265 21.5029 65.4265 20.2729Z" fill="#9E9E9E"/>
<path d="M74.4281 24.4848L74.0248 22.0645C75.9803 22.9017 78.0919 23.3549 80.2342 23.3974C83.8251 23.3974 86.6618 21.5366 86.6618 18.694C86.6618 15.7906 83.8333 14.4472 80.9303 13.1512C77.9195 11.7471 74.87 10.3429 74.87 7.11231C74.87 5.28584 75.8257 3.5676 77.5134 2.37459C79.0216 1.31883 81.1043 0.759277 83.2809 0.759277C84.6955 0.764156 86.1036 0.941549 87.4712 1.28716L87.0292 3.53328C85.6339 3.01851 84.1523 2.75021 82.6566 2.74146C79.3144 2.74146 76.9638 4.39109 76.9638 6.7771C76.9638 9.06018 79.4497 10.2083 82.1788 11.4805C85.3387 13.0246 88.7915 14.6478 88.7915 18.3271C88.7897 19.2215 88.5966 20.1061 88.2242 20.9267C87.8518 21.7473 87.308 22.4866 86.6259 23.0991C84.9686 24.6089 82.1788 25.3479 79.6459 25.3479C77.367 25.3294 75.4943 24.9784 74.4281 24.4848Z" fill="#9E9E9E"/>
<path d="M100.546 22.4834L100.179 24.5184C99.0717 25.0579 97.8498 25.3468 96.6072 25.363C94.3671 25.363 93.4859 24.1331 93.4859 22.1324V10.3739H90.5304L90.6768 8.65298H93.5053V4.79154L95.5023 3.98389V8.65298H100.364L100.253 10.3739H95.5023V21.8183C95.5023 23.0456 96.0907 23.5709 97.1597 23.5709C97.9662 23.5709 99.0684 23.2568 100.43 22.4834H100.546Z" fill="#9E9E9E"/>
<path d="M115.975 20.5174C115.975 22.0271 116.05 23.4207 116.122 25.0044L114.188 25.2499C114.149 24.6534 114.113 23.9856 114.039 23.6002H113.928C112.13 24.656 110.365 25.3211 108.567 25.3211C105.592 25.3211 103.755 23.6689 103.755 20.7206V8.65332H105.774V20.3432C105.774 22.4151 106.879 23.5105 108.934 23.5105C110.712 23.4645 112.451 23.0071 114.003 22.1776V8.65332H115.986L115.975 20.5174Z" fill="#9E9E9E"/>
<path d="M134.173 24.7674L132.226 25.2583C131.965 24.613 131.78 23.942 131.673 23.2577H131.602C130.497 24.3451 128.367 25.3296 126.237 25.3296C122.453 25.3296 120.067 22.45 120.067 18.0977C120.067 14.9726 121.058 12.5549 122.553 10.937C123.323 10.1115 124.268 9.45277 125.326 9.00485C126.384 8.55694 127.53 8.3302 128.687 8.3398C129.633 8.33733 130.574 8.46715 131.48 8.72515V1.2926L133.499 0.978516V20.9852C133.505 22.2727 133.732 23.5507 134.173 24.7674ZM131.491 21.6001V10.8314C130.446 10.3938 129.318 10.1665 128.176 10.1636C125.017 10.1636 122.188 12.5866 122.188 17.4642C122.188 21.7136 123.914 23.5348 126.632 23.5348C128.45 23.5324 130.193 22.8426 131.48 21.616L131.491 21.6001Z" fill="#9E9E9E"/>
<path d="M137.468 2.89669C137.468 1.80926 138.203 1.24707 139.159 1.24707C140.115 1.24707 140.7 1.70369 140.7 2.65123C140.705 2.86752 140.663 3.08244 140.578 3.28273C140.492 3.48302 140.364 3.66444 140.203 3.8158C140.041 3.96716 139.848 4.08524 139.637 4.16276C139.426 4.24028 139.2 4.2756 138.974 4.26654C138.129 4.26654 137.468 3.77561 137.468 2.89669ZM138.129 8.75879L140.15 8.54765V24.9779H138.129V8.75879Z" fill="#9E9E9E"/>
<path d="M144.044 17.0453C144.044 14.6223 144.743 12.4818 146.066 10.9377C146.759 10.1222 147.631 9.46276 148.622 9.00652C149.612 8.55029 150.695 8.30848 151.795 8.29834C155.938 8.29834 158.96 11.2017 158.96 16.4066C158.96 19.2518 158.079 21.5323 156.645 23.0051C155.935 23.745 155.072 24.3361 154.111 24.7409C153.149 25.1458 152.11 25.3555 151.06 25.3568C147.497 25.3647 144.044 22.5564 144.044 17.0453ZM156.827 16.974C156.827 12.4871 154.955 10.1301 151.427 10.1301C148.306 10.1301 146.138 12.6929 146.138 16.5544C146.138 21.0123 148.121 23.5382 151.502 23.5382C154.698 23.5382 156.825 20.8012 156.825 16.974H156.827Z" fill="#9E9E9E"/>
<path d="M162.347 5.89242H162.129C161.386 5.89242 160.994 5.61528 160.654 4.9528H160.505V5.55458L160.914 5.89506H159.179L159.568 5.55458V3.62254L159.179 3.2583H160.541C161.419 3.2583 162.007 3.56183 162.007 4.0686C161.991 4.20839 161.937 4.34182 161.852 4.45634C161.766 4.57086 161.651 4.66268 161.519 4.72317C161.748 5.11116 162.046 5.45164 162.347 5.89242ZM161.038 4.11083C161.038 3.69116 160.889 3.50904 160.505 3.46154V4.68094H160.524C160.908 4.68094 161.035 4.45923 161.035 4.11083H161.038Z" fill="#9E9E9E"/>
<path d="M160.673 7.05571C162.133 7.05571 163.316 5.92483 163.316 4.52981C163.316 3.13479 162.133 2.00391 160.673 2.00391C159.213 2.00391 158.029 3.13479 158.029 4.52981C158.029 5.92483 159.213 7.05571 160.673 7.05571Z" stroke="#9E9E9E" stroke-width="0.625918" stroke-miterlimit="10"/>
</svg>
