<svg width="182" height="29" viewBox="0 0 182 29" fill="none" xmlns="http://www.w3.org/2000/svg">
<path d="M31.9039 1.34253L28.3254 4.68309V28.4116H27.757L7.47787 8.84712V23.7512L11.582 27.2086H0.770096L4.55028 23.8271V6.30666L0 1.34253H11.8417L24.6767 13.2272V4.68309L20.7039 1.34253H31.9039Z" fill="black"/>
<path d="M53.3631 19.7514C52.593 25.2265 47.9999 27.9072 43.4894 27.9072C38.0834 27.9072 32.0266 24.0235 32.0266 17.0708C32.0266 10.7021 37.0658 6.26648 42.594 6.26648C48.3636 6.26648 52.104 9.72385 52.3485 14.1127L40.357 18.0723C42.0653 20.093 44.6353 21.6056 47.7157 21.6056C49.9893 21.6144 52.0215 20.8785 53.3631 19.7514ZM38.2056 12.6848C38.2337 13.9995 38.581 15.2901 39.2202 16.4546L44.7881 13.812C43.7736 11.0934 41.9033 9.72385 40.4395 9.72385C39.1805 9.73261 38.2056 10.7021 38.2056 12.6848Z" fill="black"/>
<path d="M55.5153 17.1113C55.5153 10.4681 60.6371 6.2749 66.9781 6.2749C73.7653 6.2749 78.2851 11.1689 78.2851 16.9945C78.2851 22.82 73.9762 27.9448 66.8253 27.9448C60.1481 27.9448 55.5153 23.4391 55.5153 17.1113ZM72.3841 22.0024C72.3841 18.4691 66.7336 10.1206 62.9107 10.1206C61.9756 10.1206 61.2849 10.8565 61.2849 12.1384C61.2849 15.7126 66.6481 24.0231 70.5505 24.0231C71.6109 24.0231 72.3841 23.3632 72.3841 22.0024Z" fill="black"/>
<path d="M82.3428 26.6621L81.8966 23.9844C84.0601 24.9106 86.3962 25.4121 88.7663 25.4591C92.7391 25.4591 95.8775 23.4004 95.8775 20.2555C95.8775 17.0434 92.7482 15.5571 89.5364 14.1233C86.2055 12.5698 82.8317 11.0164 82.8317 7.44219C82.8317 5.4215 83.8891 3.52053 85.7562 2.20066C87.4248 1.03263 89.729 0.413574 92.137 0.413574C93.702 0.418971 95.2599 0.615229 96.7729 0.997589L96.2839 3.48257C94.7402 2.91306 93.1011 2.61623 91.4464 2.60655C87.7487 2.60655 85.1481 4.4316 85.1481 7.07134C85.1481 9.59721 87.8985 10.8674 90.9177 12.2749C94.4137 13.9832 98.2336 15.779 98.2336 19.8496C98.2316 20.8391 98.018 21.8178 97.606 22.7257C97.1941 23.6335 96.5923 24.4514 95.8378 25.1291C94.0042 26.7994 90.9177 27.617 88.1154 27.617C85.5943 27.5965 83.5224 27.2082 82.3428 26.6621Z" fill="black"/>
<path d="M111.238 24.4485L110.832 26.6999C109.607 27.2967 108.255 27.6164 106.881 27.6343C104.402 27.6343 103.427 26.2735 103.427 24.0601V11.0512H100.157L100.319 9.1473H103.449V4.87523L105.658 3.98169V9.1473H111.037L110.914 11.0512H105.658V23.7126C105.658 25.0705 106.309 25.6516 107.492 25.6516C108.384 25.6516 109.603 25.3041 111.11 24.4485H111.238Z" fill="black"/>
<path d="M128.308 22.2731C128.308 23.9434 128.391 25.4852 128.47 27.2372L126.331 27.5088C126.288 26.8488 126.248 26.1101 126.166 25.6837H126.044C124.054 26.8518 122.102 27.5876 120.112 27.5876C116.821 27.5876 114.789 25.7596 114.789 22.4979V9.14734H117.023V22.0803C117.023 24.3726 118.245 25.5844 120.519 25.5844C122.485 25.5336 124.409 25.0276 126.126 24.1098V9.14734H128.32L128.308 22.2731Z" fill="black"/>
<path d="M148.441 26.9748L146.287 27.5179C145.998 26.8039 145.793 26.0616 145.676 25.3045H145.596C144.374 26.5076 142.018 27.5967 139.662 27.5967C135.475 27.5967 132.835 24.4109 132.835 19.5957C132.835 16.1384 133.932 13.4636 135.585 11.6736C136.437 10.7603 137.483 10.0315 138.654 9.536C139.824 9.04045 141.092 8.7896 142.372 8.80022C143.418 8.79748 144.459 8.94112 145.462 9.22655V1.00362L147.696 0.656128V22.7903C147.702 24.2148 147.954 25.6286 148.441 26.9748ZM145.474 23.4707V11.5568C144.318 11.0726 143.069 10.8212 141.807 10.818C138.311 10.818 135.182 13.4986 135.182 18.8949C135.182 23.5962 137.092 25.6111 140.099 25.6111C142.11 25.6085 144.038 24.8452 145.462 23.4882L145.474 23.4707Z" fill="black"/>
<path d="M152.087 2.77878C152.087 1.57571 152.9 0.953735 153.957 0.953735C155.015 0.953735 155.662 1.45891 155.662 2.50722C155.668 2.7465 155.622 2.98428 155.527 3.20587C155.432 3.42746 155.291 3.62818 155.112 3.79563C154.933 3.96308 154.72 4.09372 154.486 4.17948C154.253 4.26525 154.003 4.30432 153.753 4.2943C152.817 4.2943 152.087 3.75117 152.087 2.77878ZM152.817 9.26427L155.054 9.03066V27.2081H152.817V9.26427Z" fill="black"/>
<path d="M159.362 18.4314C159.362 15.7508 160.135 13.3826 161.599 11.6743C162.365 10.7721 163.331 10.0425 164.426 9.53776C165.522 9.03301 166.72 8.76549 167.937 8.75427C172.521 8.75427 175.864 11.9664 175.864 17.7247C175.864 20.8726 174.889 23.3955 173.303 25.0249C172.517 25.8436 171.563 26.4976 170.499 26.9454C169.435 27.3933 168.286 27.6253 167.124 27.6267C163.182 27.6355 159.362 24.5285 159.362 18.4314ZM173.505 18.3526C173.505 13.3884 171.433 10.7808 167.53 10.7808C164.077 10.7808 161.678 13.6162 161.678 17.8883C161.678 22.8203 163.872 25.6148 167.613 25.6148C171.148 25.6148 173.502 22.5867 173.502 18.3526H173.505Z" fill="black"/>
<path d="M179.611 6.09282H179.37C178.548 6.09282 178.114 5.78622 177.738 5.05328H177.573V5.71906L178.025 6.09575H176.106L176.537 5.71906V3.58156L176.106 3.17859H177.613C178.585 3.17859 179.235 3.5144 179.235 4.07505C179.217 4.22971 179.158 4.37734 179.063 4.50403C178.968 4.63073 178.842 4.73232 178.695 4.79923C178.948 5.22848 179.278 5.60517 179.611 6.09282ZM178.163 4.12177C178.163 3.65748 177.998 3.456 177.573 3.40344V4.75251H177.594C178.019 4.75251 178.16 4.50722 178.16 4.12177H178.163Z" fill="black"/>
<path d="M177.759 7.37955C179.374 7.37955 180.684 6.12841 180.684 4.58504C180.684 3.04167 179.374 1.79053 177.759 1.79053C176.144 1.79053 174.835 3.04167 174.835 4.58504C174.835 6.12841 176.144 7.37955 177.759 7.37955Z" stroke="black" stroke-width="0.692479" stroke-miterlimit="10"/>
</svg>
