<svg width="221" height="36" viewBox="0 0 221 36" fill="none" xmlns="http://www.w3.org/2000/svg">
<g clip-path="url(#clip0_2204_7040)">
<path d="M52.7631 24.3572C49.4765 24.3572 47.1968 22.2485 47.1968 18.316C47.1968 16.2643 47.8048 14.2506 49.1156 12.9208C50.2744 11.572 51.9272 10.964 53.9409 10.964C54.8148 10.964 56.1256 11.173 56.7335 11.382L56.4676 13.2437C55.6507 12.8258 54.4539 12.5028 53.409 12.5028C50.8253 12.5028 48.9066 14.3646 48.9066 17.8221C48.9066 21.5456 50.5404 22.8374 53.333 22.8374C54.5108 22.8374 56.1826 22.2485 56.8855 21.7166L56.2966 23.5593C55.5367 24.0153 54.0549 24.3572 52.7631 24.3572ZM62.0255 24.2812C60.0498 24.2812 58.359 22.7614 58.359 19.7978C58.359 18.525 58.644 17.4612 59.4229 16.5113C60.2588 15.4854 61.4176 15.0105 62.5384 15.0105C64.8181 15.0105 66.3379 16.5873 66.3379 19.3419C66.3379 20.8997 65.863 22.1345 65.0651 22.9894C64.3242 23.7873 63.2034 24.2812 62.0255 24.2812ZM62.4245 22.7994C63.8873 22.7994 64.7042 21.6976 64.7042 19.7978C64.7042 17.5182 63.8873 16.4923 62.2155 16.4923C60.7717 16.4923 59.8978 17.5751 59.8978 19.4369C59.8978 21.7356 60.7907 22.7994 62.4245 22.7994ZM70.4904 24.0723H68.9706V18.848C68.9706 17.4612 68.7806 15.9224 68.6476 15.2195L70.1104 14.9915C70.1864 15.3524 70.3194 16.1313 70.3574 16.6443H70.3954C71.1933 15.4474 71.8582 15.0865 72.5801 14.9725L73.359 15.2005L72.941 17.0432L72.1811 16.9102C71.5732 16.9672 71.1743 17.1952 70.4904 17.9361V24.0723ZM81.5497 22.0015H81.6257L81.2647 23.5593C80.6948 23.9583 79.555 24.2622 78.7381 24.2622C75.9644 24.2622 74.4066 22.5905 74.4066 19.8358C74.4066 18.601 74.7866 17.3662 75.6605 16.3783C76.4584 15.4664 77.5222 15.0105 78.5481 15.0105C80.3718 15.0105 81.5877 16.1883 81.5877 17.9551C81.5877 18.392 81.5117 19.1899 81.4167 19.6839L75.9644 19.6459C75.9454 19.7029 75.9454 19.7788 75.9454 19.8358C76.0404 22.0205 77.1803 22.7994 79.023 22.7994C79.9539 22.7994 80.9988 22.4385 81.5497 22.0015ZM78.3011 16.4923C77.3133 16.4923 76.3444 17.0622 76.0404 18.525L80.2389 18.392C80.1819 17.1572 79.479 16.4923 78.3011 16.4923ZM85.9872 24.2812C85.1133 24.2812 84.1065 24.0723 83.5365 23.7873L83.3656 22.0205C84.3914 22.4955 85.6073 22.7994 86.5951 22.7994C87.621 22.7994 88.3809 22.3625 88.3809 21.6786C88.3809 21.0897 87.697 20.7477 86.0822 19.9878C84.4484 19.2089 83.7265 18.715 83.7265 17.5561C83.7265 16.9292 84.0305 16.2453 84.6384 15.7894C85.3223 15.2575 86.2532 15.0105 87.1841 15.0105C87.9819 15.0105 88.7988 15.1625 89.3688 15.3145L89.1408 16.8342C88.4759 16.6633 87.507 16.5113 86.6901 16.5113C85.8732 16.5113 85.2273 16.7963 85.2273 17.3472C85.2273 17.9741 86.0252 18.335 87.0701 18.772C88.8748 19.5509 89.8817 20.2158 89.8817 21.4126C89.8817 22.3245 89.4637 22.9894 88.8558 23.4643C88.1719 24.0153 87.1461 24.2812 85.9872 24.2812Z" fill="#383838"/>
<path d="M209.376 22.126C209.095 22.126 208.815 22.0574 208.604 21.8517L201.942 15.3374C201.521 14.926 201.521 14.3088 201.942 13.8974C202.363 13.486 202.994 13.486 203.415 13.8974L209.376 19.6574L215.267 13.8974C215.687 13.486 216.319 13.486 216.739 13.8974C217.16 14.3088 217.16 14.926 216.739 15.3374L210.077 21.8517C209.937 22.0574 209.656 22.126 209.376 22.126Z" fill="#383838"/>
<mask id="mask0_2204_7040" style="mask-type:alpha" maskUnits="userSpaceOnUse" x="0" y="0" width="36" height="36">
<rect width="36" height="36" fill="#D9D9D9"/>
</mask>
<g mask="url(#mask0_2204_7040)">
<path d="M17.9712 32.2499C16.027 32.2499 14.1904 31.8754 12.4616 31.1264C10.7327 30.3773 9.22314 29.3576 7.93274 28.0673C6.64236 26.7769 5.62266 25.2648 4.87364 23.5312C4.12459 21.7976 3.75006 19.9538 3.75006 18C3.75006 16.0211 4.13469 14.1649 4.90394 12.4313C5.67316 10.6976 6.71786 9.18942 8.03804 7.90672C9.35824 6.62405 10.9025 5.6106 12.6707 4.86637C14.439 4.12212 16.325 3.75 18.3289 3.75C20.2039 3.75 21.9808 4.06971 23.6596 4.70914C25.3385 5.34856 26.813 6.23366 28.0832 7.36444C29.3534 8.49519 30.3654 9.83893 31.1192 11.3957C31.8731 12.9524 32.25 14.6404 32.25 16.4596C32.25 19.0557 31.4784 21.0865 29.9351 22.5518C28.3918 24.0172 26.4135 24.7499 24 24.7499H21.2827C20.8558 24.7499 20.5144 24.8894 20.2586 25.1682C20.0029 25.4471 19.875 25.7769 19.875 26.1577C19.875 26.6212 20.0625 27.1029 20.4375 27.6029C20.8125 28.1029 21 28.6769 21 29.325C21 30.3153 20.7259 31.0504 20.1779 31.5302C19.6298 32.01 18.8942 32.2499 17.9712 32.2499ZM9.75002 19.1249C10.2846 19.1249 10.7308 18.9461 11.0885 18.5884C11.4461 18.2307 11.625 17.7846 11.625 17.25C11.625 16.7154 11.4461 16.2692 11.0885 15.9115C10.7308 15.5538 10.2846 15.375 9.75002 15.375C9.21542 15.375 8.76927 15.5538 8.41157 15.9115C8.0539 16.2692 7.87506 16.7154 7.87506 17.25C7.87506 17.7846 8.0539 18.2307 8.41157 18.5884C8.76927 18.9461 9.21542 19.1249 9.75002 19.1249ZM14.25 13.1249C14.7846 13.1249 15.2308 12.9461 15.5885 12.5884C15.9461 12.2307 16.125 11.7846 16.125 11.25C16.125 10.7154 15.9461 10.2692 15.5885 9.91151C15.2308 9.55384 14.7846 9.375 14.25 9.375C13.7154 9.375 13.2693 9.55384 12.9116 9.91151C12.5539 10.2692 12.3751 10.7154 12.3751 11.25C12.3751 11.7846 12.5539 12.2307 12.9116 12.5884C13.2693 12.9461 13.7154 13.1249 14.25 13.1249ZM21.75 13.1249C22.2846 13.1249 22.7308 12.9461 23.0885 12.5884C23.4462 12.2307 23.625 11.7846 23.625 11.25C23.625 10.7154 23.4462 10.2692 23.0885 9.91151C22.7308 9.55384 22.2846 9.375 21.75 9.375C21.2154 9.375 20.7693 9.55384 20.4116 9.91151C20.0539 10.2692 19.8751 10.7154 19.8751 11.25C19.8751 11.7846 20.0539 12.2307 20.4116 12.5884C20.7693 12.9461 21.2154 13.1249 21.75 13.1249ZM26.25 19.1249C26.7846 19.1249 27.2308 18.9461 27.5885 18.5884C27.9462 18.2307 28.125 17.7846 28.125 17.25C28.125 16.7154 27.9462 16.2692 27.5885 15.9115C27.2308 15.5538 26.7846 15.375 26.25 15.375C25.7154 15.375 25.2693 15.5538 24.9116 15.9115C24.5539 16.2692 24.3751 16.7154 24.3751 17.25C24.3751 17.7846 24.5539 18.2307 24.9116 18.5884C25.2693 18.9461 25.7154 19.1249 26.25 19.1249ZM17.9712 30C18.2154 30 18.4063 29.9399 18.5438 29.8197C18.6813 29.6995 18.75 29.5346 18.75 29.325C18.75 28.975 18.5625 28.5817 18.1875 28.1452C17.8125 27.7086 17.625 27.025 17.625 26.0942C17.625 25.025 17.9875 24.1586 18.7125 23.4952C19.4375 22.8317 20.325 22.5 21.375 22.5H24C25.7654 22.5 27.2068 21.9827 28.3241 20.948C29.4414 19.9134 30 18.4173 30 16.4596C30 13.425 28.8366 10.923 26.5096 8.9538C24.1827 6.98458 21.4558 5.99996 18.3289 5.99996C14.9 5.99996 11.988 7.16246 9.59282 9.48746C7.19762 11.8125 6.00002 14.65 6.00002 18C6.00002 21.325 7.16877 24.1562 9.50627 26.4937C11.8438 28.8312 14.6654 30 17.9712 30Z" fill="#383838"/>
</g>
</g>
<defs>
<clipPath id="clip0_2204_7040">
<rect width="220.109" height="36" fill="white"/>
</clipPath>
</defs>
</svg>
