<svg width="221" height="36" viewBox="0 0 221 36" fill="none" xmlns="http://www.w3.org/2000/svg">
<path d="M49.6095 24.0723H47.8997V11.154H49.6095V24.0723ZM61.7921 15.0105C63.0459 15.0105 64.1857 15.7704 64.1857 17.5561V24.0723H62.6469V17.7841C62.6469 16.8152 61.982 16.4733 61.3931 16.4733C60.7852 16.4733 60.1583 16.6823 59.3224 17.0622C59.3414 17.2142 59.3604 17.3852 59.3604 17.5561V24.0723H57.8216V17.7841C57.8216 16.8152 57.1757 16.4733 56.5678 16.4733C56.0168 16.4733 55.3139 16.6823 54.535 17.0622V24.0723H52.9962V17.5561C52.9962 16.8152 52.9203 16.0364 52.8063 15.2195L54.2121 15.0485C54.2501 15.3524 54.3261 15.8084 54.3641 16.1693H54.4211C55.3329 15.3145 56.2068 15.0105 57.0427 15.0105C57.8596 15.0105 58.6385 15.3524 59.0564 16.1503C59.8733 15.3524 60.9182 15.0105 61.7921 15.0105ZM73.2855 22.9704C73.4185 22.9704 73.7794 22.9134 74.2924 22.7614L74.0834 24.0343C73.6844 24.1483 73.0385 24.2622 72.5636 24.2622C72.0507 24.2622 71.5947 24.0153 71.5567 23.2744L71.5187 22.7045C70.4929 23.6923 69.41 24.2432 68.4982 24.2432C67.3013 24.2432 66.4654 23.3314 66.4654 22.0015C66.4654 21.3746 66.6934 20.7477 67.1493 20.2918C67.6623 19.7788 68.4412 19.3989 69.505 19.1899L71.5187 18.791V17.8411C71.5187 16.9102 70.8348 16.5113 69.904 16.5113C69.0301 16.5113 67.9662 16.6823 66.9784 16.9102L67.3583 15.3524C67.9092 15.2005 69.239 15.0295 70.2649 15.0295C72.5066 15.0295 73.0385 16.2643 73.0385 17.4802V22.7234C73.0385 22.8754 73.0955 22.9704 73.2855 22.9704ZM68.0422 21.7546C68.0422 22.4005 68.3842 22.8374 69.0111 22.8374C69.619 22.8374 70.4359 22.4575 71.5187 21.5266V20.1588L69.714 20.3108C68.6311 20.4058 68.0422 20.8807 68.0422 21.7546ZM78.615 22.3055L81.0087 22.6855C82.6995 22.9514 83.5164 23.5593 83.5164 24.6422C83.5164 25.5731 82.9654 26.352 82.1485 26.9219C81.2557 27.5488 79.9448 27.9097 78.634 27.9097C76.7343 27.9097 75.1005 27.0359 75.1005 25.763C75.1005 24.9271 75.5754 24.0723 77.2472 23.4454C76.0884 23.2744 75.7084 22.9134 75.7084 22.4955C75.7084 22.0965 76.0884 21.6976 77.4752 20.9567C76.3163 20.5577 75.5944 19.6079 75.5944 18.411C75.5944 17.5182 75.9554 16.7583 76.6583 16.1503C77.3612 15.5044 78.52 15.0865 80.6098 15.0865H83.2314L83.0414 16.2833L81.4076 16.2073V16.2833C81.9966 16.5873 82.3765 17.3472 82.3765 18.0881C82.3765 19.8548 80.6667 21.1657 78.748 21.1657C78.653 21.1657 78.539 21.1657 78.444 21.1467C77.7601 21.5646 77.5322 21.7356 77.5322 21.8876C77.5322 22.0965 77.8741 22.1915 78.615 22.3055ZM78.957 16.4163C77.9121 16.4163 77.2472 17.1762 77.2472 18.2021C77.2472 19.2849 77.8931 20.0068 79.033 20.0068C79.9828 20.0068 80.7427 19.1329 80.7427 18.1831C80.7427 17.0812 80.0968 16.4163 78.957 16.4163ZM78.995 26.6179C80.7237 26.6179 81.7496 25.839 81.7496 24.9841C81.7496 24.3572 81.1607 24.0153 80.1158 23.8633L78.539 23.6353C77.2282 24.1483 76.7153 24.6992 76.7153 25.2881C76.7153 26.105 77.7031 26.6179 78.995 26.6179ZM91.2896 22.0015H91.3656L91.0046 23.5593C90.4347 23.9583 89.2948 24.2622 88.478 24.2622C85.7043 24.2622 84.1465 22.5905 84.1465 19.8358C84.1465 18.601 84.5265 17.3662 85.4004 16.3783C86.1983 15.4664 87.2621 15.0105 88.288 15.0105C90.1117 15.0105 91.3276 16.1883 91.3276 17.9551C91.3276 18.392 91.2516 19.1899 91.1566 19.6839L85.7043 19.6459C85.6853 19.7029 85.6853 19.7788 85.6853 19.8358C85.7803 22.0205 86.9202 22.7994 88.7629 22.7994C89.6938 22.7994 90.7387 22.4385 91.2896 22.0015ZM88.041 16.4923C87.0531 16.4923 86.0843 17.0622 85.7803 18.525L89.9788 18.392C89.9218 17.1572 89.2189 16.4923 88.041 16.4923ZM102.347 15.0105C103.601 15.0105 104.741 15.7704 104.741 17.5561V24.0723H103.202V17.7841C103.202 16.8152 102.537 16.4733 101.948 16.4733C101.34 16.4733 100.713 16.6823 99.8775 17.0622C99.8964 17.2142 99.9154 17.3852 99.9154 17.5561V24.0723H98.3767V17.7841C98.3767 16.8152 97.7307 16.4733 97.1228 16.4733C96.5719 16.4733 95.869 16.6823 95.0901 17.0622V24.0723H93.5513V17.5561C93.5513 16.8152 93.4753 16.0364 93.3613 15.2195L94.7671 15.0485C94.8051 15.3524 94.8811 15.8084 94.9191 16.1693H94.9761C95.888 15.3145 96.7619 15.0105 97.5978 15.0105C98.4146 15.0105 99.1935 15.3524 99.6115 16.1503C100.428 15.3524 101.473 15.0105 102.347 15.0105Z" fill="#383838"/>
<path d="M209.376 22.126C209.095 22.126 208.815 22.0574 208.604 21.8517L201.942 15.3374C201.521 14.926 201.521 14.3088 201.942 13.8974C202.363 13.486 202.994 13.486 203.415 13.8974L209.376 19.6574L215.267 13.8974C215.687 13.486 216.319 13.486 216.739 13.8974C217.16 14.3088 217.16 14.926 216.739 15.3374L210.077 21.8517C209.937 22.0574 209.656 22.126 209.376 22.126Z" fill="#383838"/>
<mask id="mask0_2204_7079" style="mask-type:alpha" maskUnits="userSpaceOnUse" x="0" y="0" width="36" height="36">
<rect width="36" height="36" fill="#D9D9D9"/>
</mask>
<g mask="url(#mask0_2204_7079)">
<path d="M7.875 32.25C6.725 32.25 5.75 31.85 4.95 31.05C4.15 30.25 3.75 29.275 3.75 28.125V7.875C3.75 6.725 4.15 5.75 4.95 4.95C5.75 4.15 6.725 3.75 7.875 3.75H28.125C29.275 3.75 30.25 4.15 31.05 4.95C31.85 5.75 32.25 6.725 32.25 7.875V28.125C32.25 29.275 31.85 30.25 31.05 31.05C30.25 31.85 29.275 32.25 28.125 32.25H7.875ZM7.875 30H28.125C28.65 30 29.094 29.8185 29.457 29.4555C29.819 29.0935 30 28.65 30 28.125V7.875C30 7.35 29.819 6.906 29.457 6.543C29.094 6.181 28.65 6 28.125 6H7.875C7.35 6 6.9065 6.181 6.5445 6.543C6.1815 6.906 6 7.35 6 7.875V28.125C6 28.65 6.1815 29.0935 6.5445 29.4555C6.9065 29.8185 7.35 30 7.875 30ZM9.9 26.25L15 21.15L17.7375 23.85L21 19.725L26.2125 26.25H9.9ZM12.375 14.625C11.65 14.625 11.0315 14.369 10.5195 13.857C10.0065 13.344 9.75 12.725 9.75 12C9.75 11.275 10.0065 10.656 10.5195 10.143C11.0315 9.631 11.65 9.375 12.375 9.375C13.1 9.375 13.719 9.631 14.232 10.143C14.744 10.656 15 11.275 15 12C15 12.725 14.744 13.344 14.232 13.857C13.719 14.369 13.1 14.625 12.375 14.625Z" fill="#383838"/>
</g>
</svg>
