<svg width="221" height="36" viewBox="0 0 221 36" fill="none" xmlns="http://www.w3.org/2000/svg">
<g clip-path="url(#clip0_2204_7037)">
<path  d="M47.9947 11.154H51.4333C54.4349 11.154 55.8407 12.8068 55.8407 14.8395C55.8407 16.0743 55.3087 17.3092 54.4159 18.1071C53.599 18.81 52.4021 19.0949 51.3763 19.0949C50.7874 19.0949 50.1414 19.0189 49.7045 18.962V24.0723H47.9947V11.154ZM51.5093 17.5751C53.238 17.5751 54.0549 16.6443 54.0549 15.0675C54.0549 13.5097 53.219 12.6548 51.3003 12.6548H49.7045V17.3662C50.1984 17.4992 50.9583 17.5751 51.5093 17.5751ZM59.5631 24.0723H58.0433V18.848C58.0433 17.4612 57.8534 15.9224 57.7204 15.2195L59.1832 14.9915C59.2592 15.3524 59.3921 16.1313 59.4301 16.6443H59.4681C60.266 15.4474 60.9309 15.0865 61.6528 14.9725L62.4317 15.2005L62.0138 17.0432L61.2539 16.9102C60.646 16.9672 60.247 17.1952 59.5631 17.9361V24.0723ZM67.1459 24.2812C65.1702 24.2812 63.4794 22.7614 63.4794 19.7978C63.4794 18.525 63.7644 17.4612 64.5433 16.5113C65.3792 15.4854 66.538 15.0105 67.6589 15.0105C69.9385 15.0105 71.4583 16.5873 71.4583 19.3419C71.4583 20.8997 70.9834 22.1345 70.1855 22.9894C69.4446 23.7873 68.3238 24.2812 67.1459 24.2812ZM67.5449 22.7994C69.0077 22.7994 69.8246 21.6976 69.8246 19.7978C69.8246 17.5182 69.0077 16.4923 67.3359 16.4923C65.8921 16.4923 65.0182 17.5751 65.0182 19.4369C65.0182 21.7356 65.9111 22.7994 67.5449 22.7994ZM80.6641 11.154V21.3936C80.6641 22.3435 80.854 23.2934 81.082 23.8823L79.6002 24.2432C79.4482 23.9203 79.3153 23.4643 79.2393 23.0654H79.2013C78.5364 23.8063 77.5485 24.2622 76.4656 24.2622C74.5849 24.2622 73.3121 22.7424 73.3121 20.4058C73.3121 18.601 73.787 17.3662 74.6989 16.3973C75.5728 15.4664 76.6556 15.0295 77.7005 15.0295C78.2134 15.0295 78.7263 15.1055 79.1443 15.2195V11.382L80.6641 11.154ZM76.8456 22.8374C77.7955 22.8374 78.6503 22.3245 79.1443 21.8116V16.9862C78.6883 16.7013 78.0424 16.4923 77.4345 16.4923C75.8957 16.4923 74.9079 17.6321 74.9079 19.9308C74.9079 22.0395 75.6867 22.8374 76.8456 22.8374ZM88.5065 15.2195H90.0072V21.7356C90.0072 22.4195 90.0832 23.2554 90.1972 24.0723L88.7914 24.2432C88.7344 24.0153 88.6584 23.5973 88.6014 23.1984H88.5444C87.7656 23.8443 86.7777 24.2812 85.8658 24.2812C84.346 24.2812 83.4151 23.4454 83.4151 21.6596V15.2195H84.9349V21.4316C84.9349 22.2865 85.2579 22.8184 86.2838 22.8184C86.9867 22.8184 87.6326 22.6475 88.5065 22.2865V15.2195ZM97.6407 22.4195H97.6786L97.4507 23.8253C96.8998 24.1103 96.1019 24.2812 95.4939 24.2812C94.1641 24.2812 93.6322 23.5593 93.6322 22.4385V16.5683H92.0744L92.1694 15.2195H93.6322V13.0728L95.171 12.5028V15.2195H97.5457L97.6027 16.5683H95.171V22.2295C95.171 22.6665 95.4749 22.9134 95.9879 22.9134C96.3108 22.9134 96.8808 22.7804 97.6407 22.4195ZM102.785 24.2812C100.809 24.2812 99.1181 22.7614 99.1181 19.7978C99.1181 18.525 99.4031 17.4612 100.182 16.5113C101.018 15.4854 102.177 15.0105 103.298 15.0105C105.577 15.0105 107.097 16.5873 107.097 19.3419C107.097 20.8997 106.622 22.1345 105.824 22.9894C105.083 23.7873 103.962 24.2812 102.785 24.2812ZM103.184 22.7994C104.646 22.7994 105.463 21.6976 105.463 19.7978C105.463 17.5182 104.646 16.4923 102.975 16.4923C101.531 16.4923 100.657 17.5751 100.657 19.4369C100.657 21.7356 101.55 22.7994 103.184 22.7994Z" fill="#383838"/>
<path d="M209.376 22.126C209.095 22.126 208.815 22.0574 208.604 21.8517L201.942 15.3374C201.521 14.926 201.521 14.3088 201.942 13.8974C202.363 13.486 202.994 13.486 203.415 13.8974L209.376 19.6574L215.267 13.8974C215.687 13.486 216.319 13.486 216.739 13.8974C217.16 14.3088 217.16 14.926 216.739 15.3374L210.077 21.8517C209.937 22.0574 209.656 22.126 209.376 22.126Z" fill="#383838"/>
<mask id="mask0_2204_7037" style="mask-type:alpha" maskUnits="userSpaceOnUse" x="0" y="0" width="36" height="36">
<rect width="36" height="36" fill="#D9D9D9"/>
</mask>
<g mask="url(#mask0_2204_7037)">
<path d="M7.19985 14.4379L11.6251 11.9998V20.4004C11.3251 20.425 11.0125 20.4748 10.6873 20.5498C10.3621 20.6248 10.0495 20.725 9.74955 20.8504V15.1876L7.49955 16.4251C7.19955 16.6003 6.89325 16.6441 6.58065 16.5565C6.26865 16.4689 6.03765 16.2877 5.88765 16.0129L3.30015 11.4751C3.15015 11.2003 3.11265 10.9066 3.18765 10.594C3.26265 10.2814 3.43755 10.0501 3.71235 9.9001L10.8745 5.7754C11.0749 5.65 11.2936 5.5498 11.5306 5.4748C11.7682 5.3998 12.0121 5.3623 12.2623 5.3623C12.4873 5.3623 12.6934 5.4313 12.8806 5.5693C13.0684 5.7067 13.1998 5.8753 13.2748 6.0751C13.6996 7.1251 14.3122 8.0002 15.1126 8.7004C15.9124 9.4 16.8748 9.7498 17.9998 9.7498C19.1248 9.7498 20.0872 9.4 20.887 8.7004C21.6874 8.0002 22.3 7.1251 22.7248 6.0751C22.7998 5.8753 22.9312 5.7067 23.119 5.5693C23.3062 5.4313 23.5249 5.3623 23.7751 5.3623C24.0001 5.3623 24.2314 5.3998 24.469 5.4748C24.706 5.5498 24.9247 5.65 25.1251 5.7754L32.2873 9.9001C32.5375 10.0753 32.7001 10.3192 32.7751 10.6318C32.8501 10.9438 32.8126 11.2375 32.6626 11.5129L30.112 16.0129C29.962 16.2877 29.731 16.4689 29.419 16.5565C29.1064 16.6441 28.8001 16.6003 28.5001 16.4251L26.2501 15.1876V24.4873L24.6373 25.9129C24.5875 25.9375 24.5437 25.9624 24.5059 25.9876C24.4687 26.0128 24.4249 26.0254 24.3745 26.0254V11.9998L28.8376 14.4379L30.6745 11.2123L24.2998 7.4629C23.6746 8.7379 22.7995 9.7504 21.6745 10.5004C20.5495 11.2504 19.3246 11.6254 17.9998 11.6254C16.6996 11.6254 15.481 11.2504 14.344 10.5004C13.2064 9.7504 12.325 8.7379 11.6998 7.4629L5.28735 11.2123L7.19985 14.4379ZM12.562 24.7501C12.0622 24.7501 11.581 24.8251 11.1184 24.9751C10.6558 25.1251 10.237 25.3627 9.86205 25.6879L7.72455 27.4879C7.52475 27.6625 7.29975 27.7435 7.04955 27.7309C6.79995 27.7189 6.58755 27.6004 6.41235 27.3754C6.23715 27.175 6.16215 26.9437 6.18735 26.6815C6.21255 26.4187 6.33765 26.2 6.56265 26.0254L8.66235 24.2623C9.18735 23.7877 9.79365 23.4316 10.4812 23.194C11.1688 22.9564 11.8624 22.8376 12.562 22.8376C13.2622 22.8376 13.9498 22.9564 14.6248 23.194C15.2998 23.4316 15.8998 23.7877 16.4248 24.2623L20.7745 27.9748C21.1495 28.2748 21.5683 28.4998 22.0309 28.6498C22.4935 28.7998 22.9747 28.8748 23.4745 28.8748C23.9497 28.8748 24.4249 28.7998 24.9001 28.6498C25.3747 28.4998 25.7872 28.2748 26.1376 27.9748L28.2373 26.1379C28.4125 25.9879 28.6375 25.9189 28.9123 25.9309C29.1871 25.9435 29.4121 26.05 29.5873 26.2504C29.7625 26.4502 29.8375 26.6815 29.8123 26.9443C29.7871 27.2065 29.662 27.4252 29.437 27.6004L27.3373 29.4004C26.8123 29.8504 26.2123 30.1879 25.5373 30.4129C24.8623 30.6379 24.1747 30.7504 23.4745 30.7504C22.7749 30.7504 22.0813 30.6379 21.3937 30.4129C20.7061 30.1879 20.0998 29.8504 19.5748 29.4004L15.2251 25.6879C14.8747 25.3627 14.4622 25.1251 13.9876 24.9751C13.5124 24.8251 13.0372 24.7501 12.562 24.7501Z" fill="#383838"/>
</g>
</g>
<defs>
<clipPath id="clip0_2204_7037">
<rect width="220.109" height="36" fill="white"/>
</clipPath>
</defs>
</svg>
