<svg width="221" height="36" viewBox="0 0 221 36" fill="none" xmlns="http://www.w3.org/2000/svg">
<path d="M55.0618 11.154L54.9668 12.6738H51.6802V24.0723H49.9895V12.6738H46.5509L46.6649 11.154H55.0618ZM62.3296 22.0015H62.4056L62.0447 23.5593C61.4747 23.9583 60.3349 24.2622 59.518 24.2622C56.7444 24.2622 55.1866 22.5905 55.1866 19.8358C55.1866 18.601 55.5665 17.3662 56.4404 16.3783C57.2383 15.4664 58.3022 15.0105 59.328 15.0105C61.1518 15.0105 62.3676 16.1883 62.3676 17.9551C62.3676 18.392 62.2916 19.1899 62.1966 19.6839L56.7444 19.6459C56.7254 19.7029 56.7254 19.7788 56.7254 19.8358C56.8204 22.0205 57.9602 22.7994 59.803 22.7994C60.7338 22.7994 61.7787 22.4385 62.3296 22.0015ZM59.0811 16.4923C58.0932 16.4923 57.1243 17.0622 56.8204 18.525L61.0188 18.392C60.9618 17.1572 60.2589 16.4923 59.0811 16.4923ZM69.3597 15.2195H71.1265L68.0869 19.5889L71.0885 23.9013L69.3787 24.2622L67.232 20.7667L65.1423 24.0723H63.3185L66.4151 19.6649L63.5655 15.5044L65.1423 14.9345L67.289 18.487L69.3597 15.2195ZM77.8084 22.4195H77.8464L77.6184 23.8253C77.0675 24.1103 76.2696 24.2812 75.6617 24.2812C74.3318 24.2812 73.7999 23.5593 73.7999 22.4385V16.5683H72.2421L72.3371 15.2195H73.7999V13.0728L75.3387 12.5028V15.2195H77.7134L77.7704 16.5683H75.3387V22.2295C75.3387 22.6665 75.6427 22.9134 76.1556 22.9134C76.4786 22.9134 77.0485 22.7804 77.8084 22.4195ZM82.9524 24.2812C80.9766 24.2812 79.2859 22.7614 79.2859 19.7978C79.2859 18.525 79.5708 17.4612 80.3497 16.5113C81.1856 15.4854 82.3445 15.0105 83.4653 15.0105C85.745 15.0105 87.2648 16.5873 87.2648 19.3419C87.2648 20.8997 86.7899 22.1345 85.992 22.9894C85.2511 23.7873 84.1302 24.2812 82.9524 24.2812ZM83.3513 22.7994C84.8141 22.7994 85.631 21.6976 85.631 19.7978C85.631 17.5182 84.8141 16.4923 83.1423 16.4923C81.6985 16.4923 80.8247 17.5751 80.8247 19.4369C80.8247 21.7356 81.7175 22.7994 83.3513 22.7994Z" fill="#383838"/>
<path d="M209.376 22.126C209.095 22.126 208.815 22.0574 208.604 21.8517L201.942 15.3374C201.521 14.926 201.521 14.3088 201.942 13.8974C202.363 13.486 202.994 13.486 203.415 13.8974L209.376 19.6574L215.267 13.8974C215.687 13.486 216.319 13.486 216.739 13.8974C217.16 14.3088 217.16 14.926 216.739 15.3374L210.077 21.8517C209.937 22.0574 209.656 22.126 209.376 22.126Z" fill="#383838"/>
<mask id="mask0_2204_7039" style="mask-type:alpha" maskUnits="userSpaceOnUse" x="0" y="0" width="36" height="36">
<rect width="36" height="36" fill="#D9D9D9"/>
</mask>
<g mask="url(#mask0_2204_7039)">
<path d="M13.5 26.625H22.5C22.825 26.625 23.094 26.519 23.307 26.307C23.519 26.094 23.625 25.825 23.625 25.5C23.625 25.175 23.519 24.906 23.307 24.693C23.094 24.481 22.825 24.375 22.5 24.375H13.5C13.175 24.375 12.9065 24.481 12.6945 24.693C12.4815 24.906 12.375 25.175 12.375 25.5C12.375 25.825 12.4815 26.094 12.6945 26.307C12.9065 26.519 13.175 26.625 13.5 26.625ZM13.5 20.625H22.5C22.825 20.625 23.094 20.5185 23.307 20.3055C23.519 20.0935 23.625 19.825 23.625 19.5C23.625 19.175 23.519 18.906 23.307 18.693C23.094 18.481 22.825 18.375 22.5 18.375H13.5C13.175 18.375 12.9065 18.481 12.6945 18.693C12.4815 18.906 12.375 19.175 12.375 19.5C12.375 19.825 12.4815 20.0935 12.6945 20.3055C12.9065 20.5185 13.175 20.625 13.5 20.625ZM9.45 32.25C8.7 32.25 8.0625 31.9875 7.5375 31.4625C7.0125 30.9375 6.75 30.3 6.75 29.55V6.45C6.75 5.7 7.0125 5.0625 7.5375 4.5375C8.0625 4.0125 8.7 3.75 9.45 3.75H20.25C20.625 3.75 20.975 3.8185 21.3 3.9555C21.625 4.0935 21.9125 4.2875 22.1625 4.5375L28.4625 10.8375C28.7125 11.0875 28.9065 11.375 29.0445 11.7C29.1815 12.025 29.25 12.375 29.25 12.75V29.55C29.25 30.3 28.9875 30.9375 28.4625 31.4625C27.9375 31.9875 27.3 32.25 26.55 32.25H9.45ZM20.25 11.4V6H9.45C9.35 6 9.25 6.05 9.15 6.15C9.05 6.25 9 6.35 9 6.45V29.55C9 29.65 9.05 29.75 9.15 29.85C9.25 29.95 9.35 30 9.45 30H26.55C26.65 30 26.75 29.95 26.85 29.85C26.95 29.75 27 29.65 27 29.55V12.75H21.6C21.225 12.75 20.906 12.6185 20.643 12.3555C20.381 12.0935 20.25 11.775 20.25 11.4Z" fill="#383838"/>
</g>
</svg>
