<svg width="642" height="412" viewBox="0 0 642 412" fill="none" xmlns="http://www.w3.org/2000/svg">
<g clip-path="url(#clip0_1581_20627)">
<g filter="url(#filter0_d_1581_20627)">
<rect width="642" height="412" rx="27.8341" fill="white"/>
</g>
<path d="M183.607 211.34L179.907 199.2L178.067 199.4L182.467 213.1L184.707 213L189.387 199.4H187.447L183.607 211.34ZM193.645 213.22C194.885 213.22 196.065 212.7 196.845 211.86C197.685 210.96 198.185 209.66 198.185 208.02C198.185 205.12 196.585 203.46 194.185 203.46C193.005 203.46 191.785 203.96 190.905 205.04C190.085 206.04 189.785 207.16 189.785 208.5C189.785 211.62 191.565 213.22 193.645 213.22ZM194.065 211.66C192.345 211.66 191.405 210.54 191.405 208.12C191.405 206.16 192.325 205.02 193.845 205.02C195.605 205.02 196.465 206.1 196.465 208.5C196.465 210.5 195.605 211.66 194.065 211.66ZM203.956 213.22C204.996 213.22 206.096 212.92 206.736 212.52L207.176 210.8H207.116C206.456 211.28 205.396 211.68 204.396 211.68C202.776 211.68 201.756 210.64 201.756 208.54C201.756 206.28 202.936 205.02 204.776 205.02C205.396 205.02 206.136 205.24 206.576 205.48L206.956 203.8C206.516 203.62 205.816 203.48 204.956 203.48C203.596 203.48 202.316 204.08 201.476 205.08C200.596 206.12 200.136 207.38 200.136 208.84C200.136 211.58 201.636 213.22 203.956 213.22ZM212.729 200.58C213.489 201.28 214.249 201.86 215.149 202.46H215.209L215.969 201.88V201.82C214.429 200.24 213.909 199.64 213.249 198.9H212.309L209.649 201.9V201.96L210.449 202.46H210.509L212.729 200.58ZM216.289 210.82C215.709 211.28 214.609 211.66 213.629 211.66C211.689 211.66 210.489 210.84 210.389 208.54C210.389 208.48 210.389 208.4 210.409 208.34L216.149 208.38C216.249 207.86 216.329 207.02 216.329 206.56C216.329 204.7 215.049 203.46 213.129 203.46C212.049 203.46 210.929 203.94 210.089 204.9C209.169 205.94 208.769 207.24 208.769 208.54C208.769 211.44 210.409 213.2 213.329 213.2C214.189 213.2 215.389 212.88 215.989 212.46L216.369 210.82H216.289ZM212.869 205.02C214.109 205.02 214.849 205.72 214.909 207.02L210.489 207.16C210.809 205.62 211.829 205.02 212.869 205.02ZM226.985 203.5C225.845 203.5 224.885 204 224.265 204.66H224.225V204.68C224.165 204.38 224.025 203.74 223.965 203.52L222.365 203.72C222.505 204.4 222.645 205.82 222.645 207.04V216.86L224.245 216.66V213.04C224.705 213.16 225.245 213.22 225.745 213.22C226.925 213.22 228.105 212.72 229.025 211.78C229.885 210.9 230.445 209.58 230.445 207.74C230.445 205.3 229.085 203.5 226.985 203.5ZM226.145 211.68C225.445 211.68 224.765 211.52 224.245 211.3V205.68C224.765 205.3 225.525 205.02 226.345 205.02C227.725 205.02 228.765 205.9 228.765 208.12C228.765 210.26 227.765 211.68 226.145 211.68ZM239.746 210.82C239.166 211.28 238.066 211.66 237.086 211.66C235.146 211.66 233.946 210.84 233.846 208.54C233.846 208.48 233.846 208.4 233.866 208.34L239.606 208.38C239.706 207.86 239.786 207.02 239.786 206.56C239.786 204.7 238.506 203.46 236.586 203.46C235.506 203.46 234.386 203.94 233.546 204.9C232.626 205.94 232.226 207.24 232.226 208.54C232.226 211.44 233.866 213.2 236.786 213.2C237.646 213.2 238.846 212.88 239.446 212.46L239.826 210.82H239.746ZM236.326 205.02C237.566 205.02 238.306 205.72 238.366 207.02L233.946 207.16C234.266 205.62 235.286 205.02 236.326 205.02ZM243.767 213V206.54C244.487 205.76 244.907 205.52 245.547 205.46L246.347 205.6L246.787 203.66L245.967 203.42C245.207 203.54 244.507 203.92 243.667 205.18H243.627C243.587 204.64 243.447 203.82 243.367 203.44L241.827 203.68C241.967 204.42 242.167 206.04 242.167 207.5V213H243.767ZM255.63 199.4L254.03 199.64V203.68C253.59 203.56 253.05 203.48 252.51 203.48C251.41 203.48 250.27 203.94 249.35 204.92C248.39 205.94 247.89 207.24 247.89 209.14C247.89 211.6 249.23 213.2 251.21 213.2C252.35 213.2 253.39 212.72 254.09 211.94H254.13C254.21 212.36 254.35 212.84 254.51 213.18L256.07 212.8C255.83 212.18 255.63 211.18 255.63 210.18V199.4ZM251.61 211.7C250.39 211.7 249.57 210.86 249.57 208.64C249.57 206.22 250.61 205.02 252.23 205.02C252.87 205.02 253.55 205.24 254.03 205.54V210.62C253.51 211.16 252.61 211.7 251.61 211.7ZM265.566 210.82C264.986 211.28 263.886 211.66 262.906 211.66C260.966 211.66 259.766 210.84 259.666 208.54C259.666 208.48 259.666 208.4 259.686 208.34L265.426 208.38C265.526 207.86 265.606 207.02 265.606 206.56C265.606 204.7 264.326 203.46 262.406 203.46C261.326 203.46 260.206 203.94 259.366 204.9C258.446 205.94 258.046 207.24 258.046 208.54C258.046 211.44 259.686 213.2 262.606 213.2C263.466 213.2 264.666 212.88 265.266 212.46L265.646 210.82H265.566ZM262.146 205.02C263.386 205.02 264.126 205.72 264.186 207.02L259.766 207.16C260.086 205.62 261.106 205.02 262.146 205.02ZM269.588 213V206.54C270.308 205.76 270.728 205.52 271.368 205.46L272.168 205.6L272.608 203.66L271.788 203.42C271.028 203.54 270.328 203.92 269.488 205.18H269.448C269.408 204.64 269.268 203.82 269.188 203.44L267.648 203.68C267.788 204.42 267.988 206.04 267.988 207.5V213H269.588ZM275.049 202.16C276.829 201.74 278.489 201.22 280.029 200.64L279.429 198.96H279.329C277.869 199.78 276.309 200.5 274.609 201.16V201.22L274.989 202.16H275.049ZM280.929 211.84C280.729 211.84 280.669 211.74 280.669 211.58V206.06C280.669 204.78 280.109 203.48 277.749 203.48C276.669 203.48 275.269 203.66 274.689 203.82L274.289 205.46C275.329 205.22 276.449 205.04 277.369 205.04C278.349 205.04 279.069 205.46 279.069 206.44V207.44L276.949 207.86C275.829 208.08 275.009 208.48 274.469 209.02C273.989 209.5 273.749 210.16 273.749 210.82C273.749 212.22 274.629 213.18 275.889 213.18C276.849 213.18 277.989 212.6 279.069 211.56L279.109 212.16C279.149 212.94 279.629 213.2 280.169 213.2C280.669 213.2 281.349 213.08 281.769 212.96L281.989 211.62C281.449 211.78 281.069 211.84 280.929 211.84ZM275.409 210.56C275.409 209.64 276.029 209.14 277.169 209.04L279.069 208.88V210.32C277.929 211.3 277.069 211.7 276.429 211.7C275.769 211.7 275.409 211.24 275.409 210.56ZM294.483 211.84C294.283 211.84 294.223 211.74 294.223 211.58V206.06C294.223 204.78 293.663 203.48 291.303 203.48C290.223 203.48 288.823 203.66 288.243 203.82L287.843 205.46C288.883 205.22 290.003 205.04 290.923 205.04C291.903 205.04 292.623 205.46 292.623 206.44V207.44L290.503 207.86C289.383 208.08 288.563 208.48 288.023 209.02C287.543 209.5 287.303 210.16 287.303 210.82C287.303 212.22 288.183 213.18 289.443 213.18C290.403 213.18 291.543 212.6 292.623 211.56L292.663 212.16C292.703 212.94 293.183 213.2 293.723 213.2C294.223 213.2 294.903 213.08 295.323 212.96L295.543 211.62C295.003 211.78 294.623 211.84 294.483 211.84ZM288.963 210.56C288.963 209.64 289.583 209.14 290.723 209.04L292.623 208.88V210.32C291.483 211.3 290.623 211.7 289.983 211.7C289.323 211.7 288.963 211.24 288.963 210.56ZM304.718 213.22C305.758 213.22 306.858 212.92 307.498 212.52L307.938 210.8H307.878C307.218 211.28 306.158 211.68 305.158 211.68C303.538 211.68 302.518 210.64 302.518 208.54C302.518 206.28 303.698 205.02 305.538 205.02C306.158 205.02 306.898 205.24 307.338 205.48L307.718 203.8C307.278 203.62 306.578 203.48 305.718 203.48C304.358 203.48 303.078 204.08 302.238 205.08C301.358 206.12 300.898 207.38 300.898 208.84C300.898 211.58 302.398 213.22 304.718 213.22ZM315.371 203.68V211.12C314.451 211.5 313.771 211.68 313.031 211.68C311.951 211.68 311.611 211.12 311.611 210.22V203.68H310.011V210.46C310.011 212.34 310.991 213.22 312.591 213.22C313.551 213.22 314.591 212.76 315.411 212.08H315.471C315.531 212.5 315.611 212.94 315.671 213.18L317.151 213C317.031 212.14 316.951 211.26 316.951 210.54V203.68H315.371ZM322.367 213.22C323.587 213.22 324.667 212.94 325.387 212.36C326.027 211.86 326.467 211.16 326.467 210.2C326.467 208.94 325.407 208.24 323.507 207.42C322.407 206.96 321.567 206.58 321.567 205.92C321.567 205.34 322.247 205.04 323.107 205.04C323.967 205.04 324.987 205.2 325.687 205.38L325.927 203.78C325.327 203.62 324.467 203.46 323.627 203.46C322.647 203.46 321.667 203.72 320.947 204.28C320.307 204.76 319.987 205.48 319.987 206.14C319.987 207.36 320.747 207.88 322.467 208.7C324.167 209.5 324.887 209.86 324.887 210.48C324.887 211.2 324.087 211.66 323.007 211.66C321.967 211.66 320.687 211.34 319.607 210.84L319.787 212.7C320.387 213 321.447 213.22 322.367 213.22ZM333.581 211.26C332.781 211.64 332.181 211.78 331.841 211.78C331.301 211.78 330.981 211.52 330.981 211.06V205.1H333.541L333.481 203.68H330.981V200.82L329.361 201.42V203.68H327.821L327.721 205.1H329.361V211.28C329.361 212.46 329.921 213.22 331.321 213.22C331.961 213.22 332.801 213.04 333.381 212.74L333.621 211.26H333.581ZM338.996 213.22C340.236 213.22 341.416 212.7 342.196 211.86C343.036 210.96 343.536 209.66 343.536 208.02C343.536 205.12 341.936 203.46 339.536 203.46C338.356 203.46 337.136 203.96 336.256 205.04C335.436 206.04 335.136 207.16 335.136 208.5C335.136 211.62 336.916 213.22 338.996 213.22ZM339.416 211.66C337.696 211.66 336.756 210.54 336.756 208.12C336.756 206.16 337.676 205.02 339.196 205.02C340.956 205.02 341.816 206.1 341.816 208.5C341.816 210.5 340.956 211.66 339.416 211.66ZM355.528 203.46C354.608 203.46 353.508 203.82 352.648 204.66C352.208 203.82 351.388 203.46 350.528 203.46C349.648 203.46 348.728 203.78 347.768 204.68H347.708C347.668 204.3 347.588 203.82 347.548 203.5L346.068 203.68C346.188 204.54 346.268 205.36 346.268 206.14V213H347.888V205.62C348.708 205.22 349.448 205 350.028 205C350.668 205 351.348 205.36 351.348 206.38V213H352.968V206.14C352.968 205.96 352.948 205.78 352.928 205.62C353.808 205.22 354.468 205 355.108 205C355.728 205 356.428 205.36 356.428 206.38V213H358.048V206.14C358.048 204.26 356.848 203.46 355.528 203.46ZM361.908 201.48C362.568 201.48 363.128 201 363.128 200.26C363.128 199.56 362.668 199.2 362.028 199.2C361.328 199.2 360.808 199.62 360.808 200.44C360.808 201.12 361.288 201.48 361.908 201.48ZM362.788 213V203.58L361.188 203.74V213H362.788ZM372.309 204.62L372.169 203.68H365.789L365.609 205.22L369.989 205.18L365.369 212.08L365.709 213H372.249L372.509 211.42L367.609 211.5L372.309 204.62ZM381.3 211.84C381.1 211.84 381.04 211.74 381.04 211.58V206.06C381.04 204.78 380.48 203.48 378.12 203.48C377.04 203.48 375.64 203.66 375.06 203.82L374.66 205.46C375.7 205.22 376.82 205.04 377.74 205.04C378.72 205.04 379.44 205.46 379.44 206.44V207.44L377.32 207.86C376.2 208.08 375.38 208.48 374.84 209.02C374.36 209.5 374.12 210.16 374.12 210.82C374.12 212.22 375 213.18 376.26 213.18C377.22 213.18 378.36 212.6 379.44 211.56L379.48 212.16C379.52 212.94 380 213.2 380.54 213.2C381.04 213.2 381.72 213.08 382.14 212.96L382.36 211.62C381.82 211.78 381.44 211.84 381.3 211.84ZM375.78 210.56C375.78 209.64 376.4 209.14 377.54 209.04L379.44 208.88V210.32C378.3 211.3 377.44 211.7 376.8 211.7C376.14 211.7 375.78 211.24 375.78 210.56ZM390.75 210.8H390.69C390.03 211.28 388.97 211.68 387.97 211.68C386.35 211.68 385.33 210.64 385.33 208.54C385.33 206.28 386.51 205.02 388.35 205.02C388.97 205.02 389.71 205.24 390.15 205.48L390.53 203.8C390.09 203.62 389.39 203.48 388.53 203.48C387.17 203.48 385.89 204.08 385.05 205.08C384.17 206.12 383.71 207.38 383.71 208.84C383.71 211.38 385.01 212.98 387.05 213.2L386.49 214.42L386.51 214.44C387.63 214.78 388.37 215.16 388.37 215.6C388.37 215.98 388.03 216.28 387.33 216.28C386.75 216.28 386.07 216.14 385.61 215.96L385.75 217.12C386.21 217.28 386.73 217.36 387.37 217.36C388.61 217.36 389.81 216.66 389.81 215.56C389.81 214.78 389.19 214.26 387.87 213.82L388.19 213.18C389.01 213.1 389.81 212.84 390.31 212.52L390.75 210.8ZM394.723 200.94C395.443 200.94 396.203 201.76 397.103 201.76C397.903 201.76 398.623 201.1 399.103 200.04L398.083 199.34C397.703 199.94 397.383 200.2 396.983 200.2C396.283 200.2 395.443 199.4 394.643 199.4C393.863 199.4 393.163 199.98 392.663 200.9L393.483 201.78C393.923 201.22 394.303 200.94 394.723 200.94ZM399.483 211.84C399.283 211.84 399.223 211.74 399.223 211.58V206.06C399.223 204.78 398.663 203.48 396.303 203.48C395.223 203.48 393.823 203.66 393.243 203.82L392.843 205.46C393.883 205.22 395.003 205.04 395.923 205.04C396.903 205.04 397.623 205.46 397.623 206.44V207.44L395.503 207.86C394.383 208.08 393.563 208.48 393.023 209.02C392.543 209.5 392.303 210.16 392.303 210.82C392.303 212.22 393.183 213.18 394.443 213.18C395.403 213.18 396.543 212.6 397.623 211.56L397.663 212.16C397.703 212.94 398.183 213.2 398.723 213.2C399.223 213.2 399.903 213.08 400.323 212.96L400.543 211.62C400.003 211.78 399.623 211.84 399.483 211.84ZM393.963 210.56C393.963 209.64 394.583 209.14 395.723 209.04L397.623 208.88V210.32C396.483 211.3 395.623 211.7 394.983 211.7C394.323 211.7 393.963 211.24 393.963 210.56ZM405.754 213.22C406.994 213.22 408.174 212.7 408.954 211.86C409.794 210.96 410.294 209.66 410.294 208.02C410.294 205.12 408.694 203.46 406.294 203.46C405.114 203.46 403.894 203.96 403.014 205.04C402.194 206.04 401.894 207.16 401.894 208.5C401.894 211.62 403.674 213.22 405.754 213.22ZM406.174 211.66C404.454 211.66 403.514 210.54 403.514 208.12C403.514 206.16 404.434 205.02 405.954 205.02C407.714 205.02 408.574 206.1 408.574 208.5C408.574 210.5 407.714 211.66 406.174 211.66ZM419.01 201.66C419.01 201.18 419.29 200.94 419.77 200.94C420.17 200.94 420.53 201 420.85 201.06L421.27 199.28L420.25 199.2C419.37 199.3 418.89 199.44 418.31 199.96C417.51 200.68 417.33 201.42 417.33 202.4V203.68H415.93L415.75 205H417.33V213H419.01V205H420.99L421.19 203.68H419.01V201.66ZM429.863 210.82C429.283 211.28 428.183 211.66 427.203 211.66C425.263 211.66 424.063 210.84 423.963 208.54C423.963 208.48 423.963 208.4 423.983 208.34L429.723 208.38C429.823 207.86 429.903 207.02 429.903 206.56C429.903 204.7 428.623 203.46 426.703 203.46C425.623 203.46 424.503 203.94 423.663 204.9C422.743 205.94 422.343 207.24 422.343 208.54C422.343 211.44 423.983 213.2 426.903 213.2C427.763 213.2 428.963 212.88 429.563 212.46L429.943 210.82H429.863ZM426.443 205.02C427.683 205.02 428.423 205.72 428.483 207.02L424.063 207.16C424.383 205.62 425.403 205.02 426.443 205.02ZM433.275 201.48C433.935 201.48 434.495 201 434.495 200.26C434.495 199.56 434.035 199.2 433.395 199.2C432.695 199.2 432.175 199.62 432.175 200.44C432.175 201.12 432.655 201.48 433.275 201.48ZM434.155 213V203.58L432.555 203.74V213H434.155ZM442.116 211.26C441.316 211.64 440.716 211.78 440.376 211.78C439.836 211.78 439.516 211.52 439.516 211.06V205.1H442.076L442.016 203.68H439.516V200.82L437.896 201.42V203.68H436.356L436.256 205.1H437.896V211.28C437.896 212.46 438.456 213.22 439.856 213.22C440.496 213.22 441.336 213.04 441.916 212.74L442.156 211.26H442.116ZM451.007 211.84C450.807 211.84 450.747 211.74 450.747 211.58V206.06C450.747 204.78 450.187 203.48 447.827 203.48C446.747 203.48 445.347 203.66 444.767 203.82L444.367 205.46C445.407 205.22 446.527 205.04 447.447 205.04C448.427 205.04 449.147 205.46 449.147 206.44V207.44L447.027 207.86C445.907 208.08 445.087 208.48 444.547 209.02C444.067 209.5 443.827 210.16 443.827 210.82C443.827 212.22 444.707 213.18 445.967 213.18C446.927 213.18 448.067 212.6 449.147 211.56L449.187 212.16C449.227 212.94 449.707 213.2 450.247 213.2C450.747 213.2 451.427 213.08 451.847 212.96L452.067 211.62C451.527 211.78 451.147 211.84 451.007 211.84ZM445.487 210.56C445.487 209.64 446.107 209.14 447.247 209.04L449.147 208.88V210.32C448.007 211.3 447.147 211.7 446.507 211.7C445.847 211.7 445.487 211.24 445.487 210.56ZM464.941 210.82C464.361 211.28 463.261 211.66 462.281 211.66C460.341 211.66 459.141 210.84 459.041 208.54C459.041 208.48 459.041 208.4 459.061 208.34L464.801 208.38C464.901 207.86 464.981 207.02 464.981 206.56C464.981 204.7 463.701 203.46 461.781 203.46C460.701 203.46 459.581 203.94 458.741 204.9C457.821 205.94 457.421 207.24 457.421 208.54C457.421 211.44 459.061 213.2 461.981 213.2C462.841 213.2 464.041 212.88 464.641 212.46L465.021 210.82H464.941ZM461.521 205.02C462.761 205.02 463.501 205.72 463.561 207.02L459.141 207.16C459.461 205.62 460.481 205.02 461.521 205.02ZM199.248 238.82C198.668 239.28 197.568 239.66 196.588 239.66C194.648 239.66 193.448 238.84 193.348 236.54C193.348 236.48 193.348 236.4 193.368 236.34L199.108 236.38C199.208 235.86 199.288 235.02 199.288 234.56C199.288 232.7 198.008 231.46 196.088 231.46C195.008 231.46 193.888 231.94 193.048 232.9C192.128 233.94 191.728 235.24 191.728 236.54C191.728 239.44 193.368 241.2 196.288 241.2C197.148 241.2 198.348 240.88 198.948 240.46L199.328 238.82H199.248ZM195.828 233.02C197.068 233.02 197.808 233.72 197.868 235.02L193.448 235.16C193.768 233.62 194.788 233.02 195.828 233.02ZM203.92 241.22C205.14 241.22 206.22 240.94 206.94 240.36C207.58 239.86 208.02 239.16 208.02 238.2C208.02 236.94 206.96 236.24 205.06 235.42C203.96 234.96 203.12 234.58 203.12 233.92C203.12 233.34 203.8 233.04 204.66 233.04C205.52 233.04 206.54 233.2 207.24 233.38L207.48 231.78C206.88 231.62 206.02 231.46 205.18 231.46C204.2 231.46 203.22 231.72 202.5 232.28C201.86 232.76 201.54 233.48 201.54 234.14C201.54 235.36 202.3 235.88 204.02 236.7C205.72 237.5 206.44 237.86 206.44 238.48C206.44 239.2 205.64 239.66 204.56 239.66C203.52 239.66 202.24 239.34 201.16 238.84L201.34 240.7C201.94 241 203 241.22 203.92 241.22ZM215.134 239.26C214.334 239.64 213.734 239.78 213.394 239.78C212.854 239.78 212.534 239.52 212.534 239.06V233.1H215.094L215.034 231.68H212.534V228.82L210.914 229.42V231.68H209.374L209.274 233.1H210.914V239.28C210.914 240.46 211.474 241.22 212.874 241.22C213.514 241.22 214.354 241.04 214.934 240.74L215.174 239.26H215.134ZM224.024 239.84C223.824 239.84 223.764 239.74 223.764 239.58V234.06C223.764 232.78 223.204 231.48 220.844 231.48C219.764 231.48 218.364 231.66 217.784 231.82L217.384 233.46C218.424 233.22 219.544 233.04 220.464 233.04C221.444 233.04 222.164 233.46 222.164 234.44V235.44L220.044 235.86C218.924 236.08 218.104 236.48 217.564 237.02C217.084 237.5 216.844 238.16 216.844 238.82C216.844 240.22 217.724 241.18 218.984 241.18C219.944 241.18 221.084 240.6 222.164 239.56L222.204 240.16C222.244 240.94 222.724 241.2 223.264 241.2C223.764 241.2 224.444 241.08 224.864 240.96L225.084 239.62C224.544 239.78 224.164 239.84 224.024 239.84ZM218.504 238.56C218.504 237.64 219.124 237.14 220.264 237.04L222.164 236.88V238.32C221.024 239.3 220.164 239.7 219.524 239.7C218.864 239.7 218.504 239.24 218.504 238.56ZM237.579 239.84C237.379 239.84 237.319 239.74 237.319 239.58V234.06C237.319 232.78 236.759 231.48 234.399 231.48C233.319 231.48 231.919 231.66 231.339 231.82L230.939 233.46C231.979 233.22 233.099 233.04 234.019 233.04C234.999 233.04 235.719 233.46 235.719 234.44V235.44L233.599 235.86C232.479 236.08 231.659 236.48 231.119 237.02C230.639 237.5 230.399 238.16 230.399 238.82C230.399 240.22 231.279 241.18 232.539 241.18C233.499 241.18 234.639 240.6 235.719 239.56L235.759 240.16C235.799 240.94 236.279 241.2 236.819 241.2C237.319 241.2 237.999 241.08 238.419 240.96L238.639 239.62C238.099 239.78 237.719 239.84 237.579 239.84ZM232.059 238.56C232.059 237.64 232.679 237.14 233.819 237.04L235.719 236.88V238.32C234.579 239.3 233.719 239.7 233.079 239.7C232.419 239.7 232.059 239.24 232.059 238.56ZM247.03 238.8H246.97C246.31 239.28 245.25 239.68 244.25 239.68C242.63 239.68 241.61 238.64 241.61 236.54C241.61 234.28 242.79 233.02 244.63 233.02C245.25 233.02 245.99 233.24 246.43 233.48L246.81 231.8C246.37 231.62 245.67 231.48 244.81 231.48C243.45 231.48 242.17 232.08 241.33 233.08C240.45 234.12 239.99 235.38 239.99 236.84C239.99 239.38 241.29 240.98 243.33 241.2L242.77 242.42L242.79 242.44C243.91 242.78 244.65 243.16 244.65 243.6C244.65 243.98 244.31 244.28 243.61 244.28C243.03 244.28 242.35 244.14 241.89 243.96L242.03 245.12C242.49 245.28 243.01 245.36 243.65 245.36C244.89 245.36 246.09 244.66 246.09 243.56C246.09 242.78 245.47 242.26 244.15 241.82L244.47 241.18C245.29 241.1 246.09 240.84 246.59 240.52L247.03 238.8ZM251.003 228.94C251.723 228.94 252.483 229.76 253.383 229.76C254.183 229.76 254.903 229.1 255.383 228.04L254.363 227.34C253.983 227.94 253.663 228.2 253.263 228.2C252.563 228.2 251.723 227.4 250.923 227.4C250.143 227.4 249.443 227.98 248.943 228.9L249.763 229.78C250.203 229.22 250.583 228.94 251.003 228.94ZM255.763 239.84C255.563 239.84 255.503 239.74 255.503 239.58V234.06C255.503 232.78 254.943 231.48 252.583 231.48C251.503 231.48 250.103 231.66 249.523 231.82L249.123 233.46C250.163 233.22 251.283 233.04 252.203 233.04C253.183 233.04 253.903 233.46 253.903 234.44V235.44L251.783 235.86C250.663 236.08 249.843 236.48 249.303 237.02C248.823 237.5 248.583 238.16 248.583 238.82C248.583 240.22 249.463 241.18 250.723 241.18C251.683 241.18 252.823 240.6 253.903 239.56L253.943 240.16C253.983 240.94 254.463 241.2 255.003 241.2C255.503 241.2 256.183 241.08 256.603 240.96L256.823 239.62C256.283 239.78 255.903 239.84 255.763 239.84ZM250.243 238.56C250.243 237.64 250.863 237.14 252.003 237.04L253.903 236.88V238.32C252.763 239.3 251.903 239.7 251.263 239.7C250.603 239.7 250.243 239.24 250.243 238.56ZM262.033 241.22C263.273 241.22 264.453 240.7 265.233 239.86C266.073 238.96 266.573 237.66 266.573 236.02C266.573 233.12 264.973 231.46 262.573 231.46C261.393 231.46 260.173 231.96 259.293 233.04C258.473 234.04 258.173 235.16 258.173 236.5C258.173 239.62 259.953 241.22 262.033 241.22ZM262.453 239.66C260.733 239.66 259.793 238.54 259.793 236.12C259.793 234.16 260.713 233.02 262.233 233.02C263.993 233.02 264.853 234.1 264.853 236.5C264.853 238.5 263.993 239.66 262.453 239.66ZM274.909 241V233.56C275.869 233.18 276.529 233 277.329 233C278.229 233 278.789 233.34 278.789 234.46V241H280.389V234.22C280.389 232.34 279.369 231.46 277.649 231.46C276.709 231.46 275.589 231.84 274.809 232.54H274.749C274.709 232.26 274.649 231.72 274.589 231.5L273.109 231.68C273.229 232.54 273.309 233.34 273.309 234.14V241H274.909ZM285.202 228.94C285.922 228.94 286.682 229.76 287.582 229.76C288.382 229.76 289.102 229.1 289.582 228.04L288.562 227.34C288.182 227.94 287.862 228.2 287.462 228.2C286.762 228.2 285.922 227.4 285.122 227.4C284.342 227.4 283.642 227.98 283.142 228.9L283.962 229.78C284.402 229.22 284.782 228.94 285.202 228.94ZM289.962 239.84C289.762 239.84 289.702 239.74 289.702 239.58V234.06C289.702 232.78 289.142 231.48 286.782 231.48C285.702 231.48 284.302 231.66 283.722 231.82L283.322 233.46C284.362 233.22 285.482 233.04 286.402 233.04C287.382 233.04 288.102 233.46 288.102 234.44V235.44L285.982 235.86C284.862 236.08 284.042 236.48 283.502 237.02C283.022 237.5 282.782 238.16 282.782 238.82C282.782 240.22 283.662 241.18 284.922 241.18C285.882 241.18 287.022 240.6 288.102 239.56L288.142 240.16C288.182 240.94 288.662 241.2 289.202 241.2C289.702 241.2 290.382 241.08 290.802 240.96L291.022 239.62C290.482 239.78 290.102 239.84 289.962 239.84ZM284.442 238.56C284.442 237.64 285.062 237.14 286.202 237.04L288.102 236.88V238.32C286.962 239.3 286.102 239.7 285.462 239.7C284.802 239.7 284.442 239.24 284.442 238.56ZM296.233 241.22C297.473 241.22 298.653 240.7 299.433 239.86C300.273 238.96 300.773 237.66 300.773 236.02C300.773 233.12 299.173 231.46 296.773 231.46C295.593 231.46 294.373 231.96 293.493 233.04C292.673 234.04 292.373 235.16 292.373 236.5C292.373 239.62 294.153 241.22 296.233 241.22ZM296.653 239.66C294.933 239.66 293.993 238.54 293.993 236.12C293.993 234.16 294.913 233.02 296.433 233.02C298.193 233.02 299.053 234.1 299.053 236.5C299.053 238.5 298.193 239.66 296.653 239.66ZM311.428 231.5C310.288 231.5 309.328 232 308.708 232.66H308.668V232.68C308.608 232.38 308.468 231.74 308.408 231.52L306.808 231.72C306.948 232.4 307.088 233.82 307.088 235.04V244.86L308.688 244.66V241.04C309.148 241.16 309.688 241.22 310.188 241.22C311.368 241.22 312.548 240.72 313.468 239.78C314.328 238.9 314.888 237.58 314.888 235.74C314.888 233.3 313.528 231.5 311.428 231.5ZM310.588 239.68C309.888 239.68 309.208 239.52 308.688 239.3V233.68C309.208 233.3 309.968 233.02 310.788 233.02C312.168 233.02 313.208 233.9 313.208 236.12C313.208 238.26 312.208 239.68 310.588 239.68ZM320.529 241.22C321.769 241.22 322.949 240.7 323.729 239.86C324.569 238.96 325.069 237.66 325.069 236.02C325.069 233.12 323.469 231.46 321.069 231.46C319.889 231.46 318.669 231.96 317.789 233.04C316.969 234.04 316.669 235.16 316.669 236.5C316.669 239.62 318.449 241.22 320.529 241.22ZM320.949 239.66C319.229 239.66 318.289 238.54 318.289 236.12C318.289 234.16 319.209 233.02 320.729 233.02C322.489 233.02 323.349 234.1 323.349 236.5C323.349 238.5 322.489 239.66 320.949 239.66ZM334.761 227.4L333.161 227.64V231.68C332.721 231.56 332.181 231.48 331.641 231.48C330.541 231.48 329.401 231.94 328.481 232.92C327.521 233.94 327.021 235.24 327.021 237.14C327.021 239.6 328.361 241.2 330.341 241.2C331.481 241.2 332.521 240.72 333.221 239.94H333.261C333.341 240.36 333.481 240.84 333.641 241.18L335.201 240.8C334.961 240.18 334.761 239.18 334.761 238.18V227.4ZM330.741 239.7C329.521 239.7 328.701 238.86 328.701 236.64C328.701 234.22 329.741 233.02 331.361 233.02C332.001 233.02 332.681 233.24 333.161 233.54V238.62C332.641 239.16 331.741 239.7 330.741 239.7ZM344.697 238.82C344.117 239.28 343.017 239.66 342.037 239.66C340.097 239.66 338.897 238.84 338.797 236.54C338.797 236.48 338.797 236.4 338.817 236.34L344.557 236.38C344.657 235.86 344.737 235.02 344.737 234.56C344.737 232.7 343.457 231.46 341.537 231.46C340.457 231.46 339.337 231.94 338.497 232.9C337.577 233.94 337.177 235.24 337.177 236.54C337.177 239.44 338.817 241.2 341.737 241.2C342.597 241.2 343.797 240.88 344.397 240.46L344.777 238.82H344.697ZM341.277 233.02C342.517 233.02 343.257 233.72 343.317 235.02L338.897 235.16C339.217 233.62 340.237 233.02 341.277 233.02ZM348.718 241V234.54C349.438 233.76 349.858 233.52 350.498 233.46L351.298 233.6L351.738 231.66L350.918 231.42C350.158 231.54 349.458 231.92 348.618 233.18H348.578C348.538 232.64 348.398 231.82 348.318 231.44L346.778 231.68C346.918 232.42 347.118 234.04 347.118 235.5V241H348.718ZM354.179 230.16C355.959 229.74 357.619 229.22 359.159 228.64L358.559 226.96H358.459C356.999 227.78 355.439 228.5 353.739 229.16V229.22L354.119 230.16H354.179ZM360.059 239.84C359.859 239.84 359.799 239.74 359.799 239.58V234.06C359.799 232.78 359.239 231.48 356.879 231.48C355.799 231.48 354.399 231.66 353.819 231.82L353.419 233.46C354.459 233.22 355.579 233.04 356.499 233.04C357.479 233.04 358.199 233.46 358.199 234.44V235.44L356.079 235.86C354.959 236.08 354.139 236.48 353.599 237.02C353.119 237.5 352.879 238.16 352.879 238.82C352.879 240.22 353.759 241.18 355.019 241.18C355.979 241.18 357.119 240.6 358.199 239.56L358.239 240.16C358.279 240.94 358.759 241.2 359.299 241.2C359.799 241.2 360.479 241.08 360.899 240.96L361.119 239.62C360.579 239.78 360.199 239.84 360.059 239.84ZM354.539 238.56C354.539 237.64 355.159 237.14 356.299 237.04L358.199 236.88V238.32C357.059 239.3 356.199 239.7 355.559 239.7C354.899 239.7 354.539 239.24 354.539 238.56ZM369.154 241.22C370.374 241.22 371.454 240.94 372.174 240.36C372.814 239.86 373.254 239.16 373.254 238.2C373.254 236.94 372.194 236.24 370.294 235.42C369.194 234.96 368.354 234.58 368.354 233.92C368.354 233.34 369.034 233.04 369.894 233.04C370.754 233.04 371.774 233.2 372.474 233.38L372.714 231.78C372.114 231.62 371.254 231.46 370.414 231.46C369.434 231.46 368.454 231.72 367.734 232.28C367.094 232.76 366.774 233.48 366.774 234.14C366.774 235.36 367.534 235.88 369.254 236.7C370.954 237.5 371.674 237.86 371.674 238.48C371.674 239.2 370.874 239.66 369.794 239.66C368.754 239.66 367.474 239.34 366.394 238.84L366.574 240.7C367.174 241 368.234 241.22 369.154 241.22ZM382.588 238.82C382.008 239.28 380.908 239.66 379.928 239.66C377.988 239.66 376.788 238.84 376.688 236.54C376.688 236.48 376.688 236.4 376.708 236.34L382.448 236.38C382.548 235.86 382.628 235.02 382.628 234.56C382.628 232.7 381.348 231.46 379.428 231.46C378.348 231.46 377.228 231.94 376.388 232.9C375.468 233.94 375.068 235.24 375.068 236.54C375.068 239.44 376.708 241.2 379.628 241.2C380.488 241.2 381.688 240.88 382.288 240.46L382.668 238.82H382.588ZM379.168 233.02C380.408 233.02 381.148 233.72 381.208 235.02L376.788 235.16C377.108 233.62 378.128 233.02 379.168 233.02ZM386.609 241V234.54C387.329 233.76 387.749 233.52 388.389 233.46L389.189 233.6L389.629 231.66L388.809 231.42C388.049 231.54 387.349 231.92 386.509 233.18H386.469C386.429 232.64 386.289 231.82 386.209 231.44L384.669 231.68C384.809 232.42 385.009 234.04 385.009 235.5V241H386.609ZM397.429 241V234.54C398.149 233.76 398.569 233.52 399.209 233.46L400.009 233.6L400.449 231.66L399.629 231.42C398.869 231.54 398.169 231.92 397.329 233.18H397.289C397.249 232.64 397.109 231.82 397.029 231.44L395.489 231.68C395.629 232.42 395.829 234.04 395.829 235.5V241H397.429ZM409.072 238.82C408.492 239.28 407.392 239.66 406.412 239.66C404.472 239.66 403.272 238.84 403.172 236.54C403.172 236.48 403.172 236.4 403.192 236.34L408.932 236.38C409.032 235.86 409.112 235.02 409.112 234.56C409.112 232.7 407.832 231.46 405.912 231.46C404.832 231.46 403.712 231.94 402.872 232.9C401.952 233.94 401.552 235.24 401.552 236.54C401.552 239.44 403.192 241.2 406.112 241.2C406.972 241.2 408.172 240.88 408.772 240.46L409.152 238.82H409.072ZM405.652 233.02C406.892 233.02 407.632 233.72 407.692 235.02L403.272 235.16C403.592 233.62 404.612 233.02 405.652 233.02ZM413.433 229.66C413.433 229.18 413.713 228.94 414.193 228.94C414.593 228.94 414.953 229 415.273 229.06L415.693 227.28L414.673 227.2C413.793 227.3 413.313 227.44 412.733 227.96C411.933 228.68 411.753 229.42 411.753 230.4V231.68H410.353L410.173 233H411.753V241H413.433V233H415.413L415.613 231.68H413.433V229.66ZM424.287 238.82C423.707 239.28 422.607 239.66 421.627 239.66C419.687 239.66 418.487 238.84 418.387 236.54C418.387 236.48 418.387 236.4 418.407 236.34L424.147 236.38C424.247 235.86 424.327 235.02 424.327 234.56C424.327 232.7 423.047 231.46 421.127 231.46C420.047 231.46 418.927 231.94 418.087 232.9C417.167 233.94 416.767 235.24 416.767 236.54C416.767 239.44 418.407 241.2 421.327 241.2C422.187 241.2 423.387 240.88 423.987 240.46L424.367 238.82H424.287ZM420.867 233.02C422.107 233.02 422.847 233.72 422.907 235.02L418.487 235.16C418.807 233.62 419.827 233.02 420.867 233.02ZM427.699 229.48C428.359 229.48 428.919 229 428.919 228.26C428.919 227.56 428.459 227.2 427.819 227.2C427.119 227.2 426.599 227.62 426.599 228.44C426.599 229.12 427.079 229.48 427.699 229.48ZM428.579 241V231.58L426.979 231.74V241H428.579ZM436.54 239.26C435.74 239.64 435.14 239.78 434.8 239.78C434.26 239.78 433.94 239.52 433.94 239.06V233.1H436.5L436.44 231.68H433.94V228.82L432.32 229.42V231.68H430.78L430.68 233.1H432.32V239.28C432.32 240.46 432.88 241.22 434.28 241.22C434.92 241.22 435.76 241.04 436.34 240.74L436.58 239.26H436.54ZM445.431 239.84C445.231 239.84 445.171 239.74 445.171 239.58V234.06C445.171 232.78 444.611 231.48 442.251 231.48C441.171 231.48 439.771 231.66 439.191 231.82L438.791 233.46C439.831 233.22 440.951 233.04 441.871 233.04C442.851 233.04 443.571 233.46 443.571 234.44V235.44L441.451 235.86C440.331 236.08 439.511 236.48 438.971 237.02C438.491 237.5 438.251 238.16 438.251 238.82C438.251 240.22 439.131 241.18 440.391 241.18C441.351 241.18 442.491 240.6 443.571 239.56L443.611 240.16C443.651 240.94 444.131 241.2 444.671 241.2C445.171 241.2 445.851 241.08 446.271 240.96L446.491 239.62C445.951 239.78 445.571 239.84 445.431 239.84ZM439.911 238.56C439.911 237.64 440.531 237.14 441.671 237.04L443.571 236.88V238.32C442.431 239.3 441.571 239.7 440.931 239.7C440.271 239.7 439.911 239.24 439.911 238.56ZM449.371 241.2C450.191 241.2 450.711 240.8 450.711 239.92C450.711 239.1 450.171 238.7 449.431 238.7C448.551 238.7 448.011 239.24 448.011 240.02C448.011 240.78 448.531 241.2 449.371 241.2Z" fill="black"/>
<path d="M210.848 115.808C209.92 113.568 209.152 111.488 208.192 108.608L203.136 94.048L198.432 94.24L190.848 116H195.04L196.832 110.176H204.192C204.896 112.416 205.6 114.56 206.24 116.288L210.848 115.808ZM203.168 107.008H197.792L200.448 98.4L203.168 107.008ZM219.111 116.352C221.319 116.352 223.239 115.488 224.679 113.984C226.119 112.512 226.983 110.496 226.983 107.904C226.983 103.424 224.103 100.608 220.135 100.608C217.959 100.608 215.975 101.536 214.503 103.168C213.127 104.736 212.455 106.656 212.455 108.992C212.455 113.76 215.463 116.352 219.111 116.352ZM219.783 112.992C217.735 112.992 216.519 111.616 216.519 108.128C216.519 105.344 217.671 103.936 219.559 103.936C221.671 103.936 222.823 105.28 222.823 108.704C222.823 111.552 221.703 112.992 219.783 112.992ZM241.875 98.624C241.875 97.856 242.291 97.44 243.187 97.44C243.955 97.44 244.627 97.536 245.171 97.632L245.715 94.144L244.179 93.824C242.035 93.92 240.723 94.336 239.571 95.392C238.291 96.544 237.779 97.792 237.779 99.808V101.024H235.539L235.251 103.936H237.779V116H241.875V103.936H245.043L245.363 101.024H241.875V98.624ZM259.877 113.12C259.557 113.12 259.429 112.928 259.429 112.608V105.568C259.429 103.168 258.693 100.64 253.829 100.64C252.133 100.64 250.021 100.896 248.517 101.28L247.845 104.864C249.413 104.352 251.269 103.936 252.837 103.936C254.469 103.936 255.557 104.576 255.557 106.176V106.752L252.965 107.424C251.077 107.936 249.541 108.576 248.517 109.472C247.557 110.272 247.077 111.328 247.077 112.608C247.077 114.816 248.421 116.288 250.597 116.288C252.197 116.288 254.053 115.392 255.621 113.76L255.653 114.144C255.781 115.744 256.677 116.352 257.957 116.352C258.885 116.352 260.037 116.096 260.933 115.68L261.381 112.768C260.677 112.992 260.133 113.12 259.877 113.12ZM252.293 113.216C251.525 113.216 250.949 112.64 250.949 111.68C250.949 110.528 251.781 109.824 253.413 109.728L255.557 109.568V111.648C254.117 112.768 253.125 113.216 252.293 113.216ZM275.075 103.104L274.723 101.024H263.875L263.555 104.448L269.891 104.32L263.171 113.888L263.843 116H274.819L275.331 112.48L268.291 112.608L275.075 103.104ZM285.869 112.896C283.277 112.896 281.645 111.744 281.485 108.864L290.477 108.96C290.669 108.128 290.829 106.912 290.829 106.08C290.829 102.656 288.525 100.608 285.261 100.608C283.053 100.608 281.133 101.632 279.789 103.104C278.381 104.672 277.549 106.752 277.549 108.928C277.549 113.472 280.429 116.352 285.261 116.352C287.149 116.352 289.069 115.744 290.157 114.944L290.605 111.616H290.477C289.517 112.224 287.565 112.896 285.869 112.896ZM284.717 103.616C286.349 103.616 287.373 104.608 287.469 106.4L281.613 106.56C281.965 104.48 283.245 103.616 284.717 103.616ZM298.362 116V106.688C299.194 105.6 299.866 105.152 300.826 105.024L302.426 105.184L303.098 100.832L301.946 100.576C300.378 100.8 299.29 101.664 298.042 103.744H297.978C297.882 102.624 297.626 101.312 297.402 100.608L293.658 101.216C294.042 102.592 294.362 105.152 294.362 107.392V116H298.362ZM319.525 112.896C316.933 112.896 315.301 111.744 315.141 108.864L324.133 108.96C324.325 108.128 324.485 106.912 324.485 106.08C324.485 102.656 322.181 100.608 318.917 100.608C316.709 100.608 314.789 101.632 313.445 103.104C312.037 104.672 311.205 106.752 311.205 108.928C311.205 113.472 314.085 116.352 318.917 116.352C320.805 116.352 322.725 115.744 323.813 114.944L324.261 111.616H324.133C323.173 112.224 321.221 112.896 319.525 112.896ZM318.373 103.616C320.005 103.616 321.029 104.608 321.125 106.4L315.269 106.56C315.621 104.48 316.901 103.616 318.373 103.616ZM331.843 116.384C333.635 116.384 335.587 115.936 336.931 114.944C338.211 114.016 339.107 112.736 339.107 111.136C339.107 109.024 337.635 107.84 334.435 106.784C332.483 106.176 331.395 105.76 331.395 104.928C331.395 104.224 332.227 103.776 333.539 103.776C334.851 103.776 336.419 104.096 337.731 104.576L338.371 101.152C337.283 100.864 335.875 100.64 334.563 100.64C332.483 100.64 330.723 101.184 329.443 102.112C328.323 102.944 327.587 104.256 327.587 105.568C327.587 107.68 328.931 108.672 331.907 109.728C334.211 110.592 335.331 110.976 335.331 111.808C335.331 112.672 334.339 113.216 332.995 113.216C331.235 113.216 328.771 112.576 327.171 111.744L327.523 115.456C328.515 116 330.211 116.384 331.843 116.384ZM351.114 112.32C349.994 112.8 349.066 113.056 348.49 113.056C347.85 113.056 347.498 112.736 347.498 112.096V104.032H351.146L351.05 101.024H347.498V96.448L343.466 97.472V101.024H341.13L340.938 104.032H343.466V112.64C343.466 114.816 344.234 116.352 347.146 116.352C348.234 116.352 349.706 116.096 350.73 115.584L351.21 112.32H351.114ZM366.596 113.12C366.276 113.12 366.148 112.928 366.148 112.608V105.568C366.148 103.168 365.412 100.64 360.548 100.64C358.852 100.64 356.74 100.896 355.236 101.28L354.564 104.864C356.132 104.352 357.988 103.936 359.556 103.936C361.188 103.936 362.276 104.576 362.276 106.176V106.752L359.684 107.424C357.796 107.936 356.26 108.576 355.236 109.472C354.276 110.272 353.796 111.328 353.796 112.608C353.796 114.816 355.14 116.288 357.316 116.288C358.916 116.288 360.772 115.392 362.34 113.76L362.372 114.144C362.5 115.744 363.396 116.352 364.676 116.352C365.604 116.352 366.756 116.096 367.652 115.68L368.1 112.768C367.396 112.992 366.852 113.12 366.596 113.12ZM359.012 113.216C358.244 113.216 357.668 112.64 357.668 111.68C357.668 110.528 358.5 109.824 360.132 109.728L362.276 109.568V111.648C360.836 112.768 359.844 113.216 359.012 113.216ZM388.877 113.12C388.557 113.12 388.429 112.928 388.429 112.608V105.568C388.429 103.168 387.693 100.64 382.829 100.64C381.133 100.64 379.021 100.896 377.517 101.28L376.845 104.864C378.413 104.352 380.269 103.936 381.837 103.936C383.469 103.936 384.557 104.576 384.557 106.176V106.752L381.965 107.424C380.077 107.936 378.541 108.576 377.517 109.472C376.557 110.272 376.077 111.328 376.077 112.608C376.077 114.816 377.421 116.288 379.597 116.288C381.197 116.288 383.053 115.392 384.621 113.76L384.653 114.144C384.781 115.744 385.677 116.352 386.957 116.352C387.885 116.352 389.037 116.096 389.933 115.68L390.381 112.768C389.677 112.992 389.133 113.12 388.877 113.12ZM381.293 113.216C380.525 113.216 379.949 112.64 379.949 111.68C379.949 110.528 380.781 109.824 382.413 109.728L384.557 109.568V111.648C383.117 112.768 382.125 113.216 381.293 113.216ZM403.723 111.744H403.627C402.795 112.352 401.259 112.832 400.011 112.832C397.707 112.832 396.235 111.456 396.235 108.704C396.235 105.792 397.899 104.096 400.395 104.096C401.195 104.096 402.251 104.352 402.987 104.704L403.595 101.152C402.795 100.864 401.643 100.64 400.363 100.64C398.123 100.64 396.043 101.6 394.635 103.168C393.131 104.8 392.299 106.912 392.299 109.376C392.299 113.152 394.251 115.68 397.451 116.256L396.395 118.368L396.427 118.432C398.443 119.008 399.531 119.68 399.531 120.384C399.531 121.024 398.987 121.408 398.027 121.408C397.195 121.408 396.139 121.184 395.243 120.864L395.627 123.2C396.427 123.456 397.291 123.584 398.219 123.584C400.491 123.584 402.603 122.432 402.603 120.352C402.603 118.88 401.387 117.92 399.307 117.184L399.755 116.288C400.939 116.16 402.123 115.808 403.019 115.328L403.723 111.744ZM410.429 96.672C411.741 96.672 413.149 98.176 414.717 98.176C416.061 98.176 417.341 97.216 418.621 95.072L416.669 93.312C415.997 94.336 415.325 94.816 414.493 94.816C413.213 94.816 411.837 93.44 410.365 93.44C408.861 93.44 407.485 94.592 406.461 96.704L407.965 98.336C408.829 97.28 409.597 96.672 410.429 96.672ZM418.877 113.12C418.557 113.12 418.429 112.928 418.429 112.608V105.568C418.429 103.168 417.693 100.64 412.829 100.64C411.133 100.64 409.021 100.896 407.517 101.28L406.845 104.864C408.413 104.352 410.269 103.936 411.837 103.936C413.469 103.936 414.557 104.576 414.557 106.176V106.752L411.965 107.424C410.077 107.936 408.541 108.576 407.517 109.472C406.557 110.272 406.077 111.328 406.077 112.608C406.077 114.816 407.421 116.288 409.597 116.288C411.197 116.288 413.053 115.392 414.621 113.76L414.653 114.144C414.781 115.744 415.677 116.352 416.957 116.352C417.885 116.352 419.037 116.096 419.933 115.68L420.381 112.768C419.677 112.992 419.133 113.12 418.877 113.12ZM411.293 113.216C410.525 113.216 409.949 112.64 409.949 111.68C409.949 110.528 410.781 109.824 412.413 109.728L414.557 109.568V111.648C413.117 112.768 412.125 113.216 411.293 113.216ZM428.955 116.352C431.163 116.352 433.083 115.488 434.523 113.984C435.963 112.512 436.827 110.496 436.827 107.904C436.827 103.424 433.947 100.608 429.979 100.608C427.803 100.608 425.819 101.536 424.347 103.168C422.971 104.736 422.299 106.656 422.299 108.992C422.299 113.76 425.307 116.352 428.955 116.352ZM429.627 112.992C427.579 112.992 426.363 111.616 426.363 108.128C426.363 105.344 427.515 103.936 429.403 103.936C431.515 103.936 432.667 105.28 432.667 108.704C432.667 111.552 431.547 112.992 429.627 112.992ZM440.722 120.544C443.09 118.944 444.306 117.184 444.306 114.88C444.306 113.792 443.986 112.384 443.474 111.36L439.602 112C440.274 113.184 440.626 114.496 440.626 115.552C440.626 117.024 439.954 118.368 438.642 119.648L440.722 120.544ZM165.453 158.384C167.245 158.384 169.197 157.936 170.541 156.944C171.821 156.016 172.717 154.736 172.717 153.136C172.717 151.024 171.245 149.84 168.045 148.784C166.093 148.176 165.005 147.76 165.005 146.928C165.005 146.224 165.837 145.776 167.149 145.776C168.461 145.776 170.029 146.096 171.341 146.576L171.981 143.152C170.893 142.864 169.485 142.64 168.173 142.64C166.093 142.64 164.333 143.184 163.053 144.112C161.933 144.944 161.197 146.256 161.197 147.568C161.197 149.68 162.541 150.672 165.517 151.728C167.821 152.592 168.941 152.976 168.941 153.808C168.941 154.672 167.949 155.216 166.605 155.216C164.845 155.216 162.381 154.576 160.781 153.744L161.133 157.456C162.125 158 163.821 158.384 165.453 158.384ZM184.788 143.024V154.256C183.668 154.736 182.772 154.928 181.908 154.928C180.404 154.928 179.828 154.224 179.828 152.912V143.024H175.828V153.616C175.828 156.88 177.588 158.416 180.212 158.416C181.876 158.416 183.508 157.712 184.916 156.4H185.012C185.14 157.04 185.332 157.904 185.524 158.352L189.14 157.872C188.916 156.56 188.788 155.056 188.788 153.776V143.024H184.788ZM205.236 155.12C204.916 155.12 204.788 154.928 204.788 154.608V147.568C204.788 145.168 204.052 142.64 199.188 142.64C197.492 142.64 195.38 142.896 193.876 143.28L193.204 146.864C194.772 146.352 196.628 145.936 198.196 145.936C199.828 145.936 200.916 146.576 200.916 148.176V148.752L198.324 149.424C196.436 149.936 194.9 150.576 193.876 151.472C192.916 152.272 192.436 153.328 192.436 154.608C192.436 156.816 193.78 158.288 195.956 158.288C197.556 158.288 199.412 157.392 200.98 155.76L201.012 156.144C201.14 157.744 202.036 158.352 203.316 158.352C204.244 158.352 205.396 158.096 206.292 157.68L206.74 154.768C206.036 154.992 205.492 155.12 205.236 155.12ZM197.652 155.216C196.884 155.216 196.308 154.64 196.308 153.68C196.308 152.528 197.14 151.824 198.772 151.728L200.916 151.568V153.648C199.476 154.768 198.484 155.216 197.652 155.216ZM223.166 154.896C220.574 154.896 218.942 153.744 218.782 150.864L227.774 150.96C227.966 150.128 228.126 148.912 228.126 148.08C228.126 144.656 225.822 142.608 222.558 142.608C220.35 142.608 218.43 143.632 217.086 145.104C215.678 146.672 214.846 148.752 214.846 150.928C214.846 155.472 217.726 158.352 222.558 158.352C224.446 158.352 226.366 157.744 227.454 156.944L227.902 153.616H227.774C226.814 154.224 224.862 154.896 223.166 154.896ZM222.014 145.616C223.646 145.616 224.67 146.608 224.766 148.4L218.91 148.56C219.262 146.48 220.542 145.616 222.014 145.616ZM244.636 136.08L240.668 136.496V142.832C240.124 142.672 239.484 142.608 238.78 142.608C236.732 142.608 234.748 143.504 233.18 145.264C231.676 146.928 230.908 149.104 230.908 151.792C230.908 155.6 232.988 158.32 236.156 158.32C237.98 158.32 239.612 157.552 240.828 156.112H240.924C241.052 156.944 241.34 157.744 241.628 158.32L245.436 157.616C244.988 156.528 244.636 154.576 244.636 152.72V136.08ZM237.788 154.832C236.028 154.832 234.972 153.552 234.972 150.736C234.972 147.6 236.316 145.936 238.556 145.936C239.292 145.936 240.028 146.096 240.668 146.384V153.616C240.028 154.224 238.908 154.832 237.788 154.832ZM250.785 140.24C252.449 140.24 253.377 139.28 253.377 137.872C253.377 136.528 252.481 135.824 250.913 135.824C249.281 135.824 248.257 136.624 248.257 138.16C248.257 139.568 249.185 140.24 250.785 140.24ZM252.769 158V142.704L248.769 143.088V158H252.769ZM267.738 153.744H267.642C266.81 154.352 265.274 154.832 264.026 154.832C261.722 154.832 260.25 153.456 260.25 150.704C260.25 147.792 261.914 146.096 264.41 146.096C265.21 146.096 266.266 146.352 267.002 146.704L267.61 143.152C266.81 142.864 265.658 142.64 264.378 142.64C262.138 142.64 260.058 143.6 258.65 145.168C257.146 146.8 256.314 148.912 256.314 151.376C256.314 155.152 258.266 157.68 261.466 158.256L260.41 160.368L260.442 160.432C262.458 161.008 263.546 161.68 263.546 162.384C263.546 163.024 263.002 163.408 262.042 163.408C261.21 163.408 260.154 163.184 259.258 162.864L259.642 165.2C260.442 165.456 261.306 165.584 262.234 165.584C264.506 165.584 266.618 164.432 266.618 162.352C266.618 160.88 265.402 159.92 263.322 159.184L263.77 158.288C264.954 158.16 266.138 157.808 267.034 157.328L267.738 153.744ZM274.445 138.672C275.757 138.672 277.165 140.176 278.733 140.176C280.077 140.176 281.357 139.216 282.637 137.072L280.685 135.312C280.013 136.336 279.341 136.816 278.509 136.816C277.229 136.816 275.853 135.44 274.381 135.44C272.877 135.44 271.501 136.592 270.477 138.704L271.981 140.336C272.845 139.28 273.613 138.672 274.445 138.672ZM282.893 155.12C282.573 155.12 282.445 154.928 282.445 154.608V147.568C282.445 145.168 281.709 142.64 276.845 142.64C275.149 142.64 273.036 142.896 271.533 143.28L270.861 146.864C272.429 146.352 274.285 145.936 275.853 145.936C277.485 145.936 278.573 146.576 278.573 148.176V148.752L275.981 149.424C274.093 149.936 272.557 150.576 271.533 151.472C270.573 152.272 270.093 153.328 270.093 154.608C270.093 156.816 271.437 158.288 273.613 158.288C275.213 158.288 277.069 157.392 278.637 155.76L278.669 156.144C278.797 157.744 279.693 158.352 280.973 158.352C281.901 158.352 283.053 158.096 283.949 157.68L284.397 154.768C283.693 154.992 283.149 155.12 282.893 155.12ZM275.309 155.216C274.541 155.216 273.965 154.64 273.965 153.68C273.965 152.528 274.797 151.824 276.429 151.728L278.573 151.568V153.648C277.133 154.768 276.141 155.216 275.309 155.216ZM292.97 158.352C295.178 158.352 297.098 157.488 298.538 155.984C299.978 154.512 300.842 152.496 300.842 149.904C300.842 145.424 297.962 142.608 293.994 142.608C291.818 142.608 289.834 143.536 288.362 145.168C286.986 146.736 286.314 148.656 286.314 150.992C286.314 155.76 289.322 158.352 292.97 158.352ZM293.642 154.992C291.594 154.992 290.378 153.616 290.378 150.128C290.378 147.344 291.53 145.936 293.418 145.936C295.53 145.936 296.682 147.28 296.682 150.704C296.682 153.552 295.562 154.992 293.642 154.992ZM314.39 158.384C316.182 158.384 318.134 157.936 319.478 156.944C320.758 156.016 321.654 154.736 321.654 153.136C321.654 151.024 320.182 149.84 316.982 148.784C315.03 148.176 313.942 147.76 313.942 146.928C313.942 146.224 314.774 145.776 316.086 145.776C317.398 145.776 318.966 146.096 320.278 146.576L320.918 143.152C319.83 142.864 318.422 142.64 317.11 142.64C315.03 142.64 313.27 143.184 311.99 144.112C310.87 144.944 310.134 146.256 310.134 147.568C310.134 149.68 311.478 150.672 314.454 151.728C316.758 152.592 317.878 152.976 317.878 153.808C317.878 154.672 316.886 155.216 315.542 155.216C313.782 155.216 311.318 154.576 309.718 153.744L310.07 157.456C311.062 158 312.758 158.384 314.39 158.384ZM332.509 154.896C329.917 154.896 328.285 153.744 328.125 150.864L337.117 150.96C337.309 150.128 337.469 148.912 337.469 148.08C337.469 144.656 335.165 142.608 331.901 142.608C329.693 142.608 327.773 143.632 326.429 145.104C325.021 146.672 324.189 148.752 324.189 150.928C324.189 155.472 327.069 158.352 331.901 158.352C333.789 158.352 335.709 157.744 336.797 156.944L337.245 153.616H337.117C336.157 154.224 334.205 154.896 332.509 154.896ZM331.357 145.616C332.989 145.616 334.013 146.608 334.109 148.4L328.253 148.56C328.605 146.48 329.885 145.616 331.357 145.616ZM345.003 158V148.688C345.835 147.6 346.507 147.152 347.467 147.024L349.067 147.184L349.739 142.832L348.587 142.576C347.019 142.8 345.931 143.664 344.683 145.744H344.619C344.523 144.624 344.267 143.312 344.043 142.608L340.299 143.216C340.683 144.592 341.003 147.152 341.003 149.392V158H345.003ZM353.909 140.944C356.821 140.08 359.573 139.088 362.197 137.968L360.821 134.768H360.661C358.261 136.272 355.605 137.616 352.853 138.864V138.96L353.813 140.944H353.909ZM363.861 155.12C363.541 155.12 363.413 154.928 363.413 154.608V147.568C363.413 145.168 362.677 142.64 357.813 142.64C356.117 142.64 354.005 142.896 352.501 143.28L351.829 146.864C353.397 146.352 355.253 145.936 356.821 145.936C358.453 145.936 359.541 146.576 359.541 148.176V148.752L356.949 149.424C355.061 149.936 353.525 150.576 352.501 151.472C351.541 152.272 351.061 153.328 351.061 154.608C351.061 156.816 352.405 158.288 354.581 158.288C356.181 158.288 358.037 157.392 359.605 155.76L359.637 156.144C359.765 157.744 360.661 158.352 361.941 158.352C362.869 158.352 364.021 158.096 364.917 157.68L365.365 154.768C364.661 154.992 364.117 155.12 363.861 155.12ZM356.277 155.216C355.509 155.216 354.933 154.64 354.933 153.68C354.933 152.528 355.765 151.824 357.397 151.728L359.541 151.568V153.648C358.101 154.768 357.109 155.216 356.277 155.216ZM382.271 142.64C380.575 142.64 379.103 143.408 378.047 144.624H377.983V144.656C377.855 144.048 377.663 143.152 377.471 142.672L373.663 143.152C373.887 144.4 374.079 146.672 374.079 149.104V164.272L378.079 163.856V158.16C378.687 158.288 379.359 158.352 380.062 158.352C382.207 158.352 384.127 157.296 385.567 155.696C386.847 154.224 387.839 152.176 387.839 149.424C387.839 145.488 385.663 142.64 382.271 142.64ZM380.415 155.088C379.615 155.088 378.815 154.928 378.079 154.672V146.768C378.783 146.32 379.679 146 380.639 146C382.399 146 383.711 147.216 383.711 150.32C383.711 153.232 382.463 155.088 380.415 155.088ZM398.603 154.896C396.011 154.896 394.379 153.744 394.219 150.864L403.211 150.96C403.403 150.128 403.563 148.912 403.563 148.08C403.563 144.656 401.259 142.608 397.995 142.608C395.787 142.608 393.867 143.632 392.523 145.104C391.115 146.672 390.283 148.752 390.283 150.928C390.283 155.472 393.163 158.352 397.995 158.352C399.883 158.352 401.803 157.744 402.891 156.944L403.339 153.616H403.211C402.251 154.224 400.299 154.896 398.603 154.896ZM397.451 145.616C399.083 145.616 400.107 146.608 400.203 148.4L394.347 148.56C394.699 146.48 395.979 145.616 397.451 145.616ZM411.097 158V148.688C411.929 147.6 412.601 147.152 413.561 147.024L415.161 147.184L415.833 142.832L414.681 142.576C413.113 142.8 412.025 143.664 410.777 145.744H410.713C410.617 144.624 410.361 143.312 410.137 142.608L406.393 143.216C406.777 144.592 407.097 147.152 407.097 149.392V158H411.097ZM431.105 136.08L427.137 136.496V142.832C426.593 142.672 425.953 142.608 425.249 142.608C423.201 142.608 421.217 143.504 419.649 145.264C418.145 146.928 417.377 149.104 417.377 151.792C417.377 155.6 419.457 158.32 422.625 158.32C424.449 158.32 426.081 157.552 427.297 156.112H427.393C427.521 156.944 427.809 157.744 428.097 158.32L431.905 157.616C431.457 156.528 431.105 154.576 431.105 152.72V136.08ZM424.257 154.832C422.497 154.832 421.441 153.552 421.441 150.736C421.441 147.6 422.785 145.936 425.025 145.936C425.761 145.936 426.497 146.096 427.137 146.384V153.616C426.497 154.224 425.377 154.832 424.257 154.832ZM437.254 140.24C438.918 140.24 439.846 139.28 439.846 137.872C439.846 136.528 438.95 135.824 437.382 135.824C435.75 135.824 434.726 136.624 434.726 138.16C434.726 139.568 435.654 140.24 437.254 140.24ZM439.238 158V142.704L435.238 143.088V158H439.238ZM456.511 136.08L452.543 136.496V142.832C451.999 142.672 451.359 142.608 450.655 142.608C448.607 142.608 446.623 143.504 445.055 145.264C443.551 146.928 442.783 149.104 442.783 151.792C442.783 155.6 444.863 158.32 448.031 158.32C449.855 158.32 451.487 157.552 452.703 156.112H452.799C452.927 156.944 453.215 157.744 453.503 158.32L457.311 157.616C456.863 156.528 456.511 154.576 456.511 152.72V136.08ZM449.663 154.832C447.903 154.832 446.847 153.552 446.847 150.736C446.847 147.6 448.191 145.936 450.431 145.936C451.167 145.936 451.903 146.096 452.543 146.384V153.616C451.903 154.224 450.783 154.832 449.663 154.832ZM472.58 155.12C472.26 155.12 472.132 154.928 472.132 154.608V147.568C472.132 145.168 471.396 142.64 466.532 142.64C464.836 142.64 462.724 142.896 461.22 143.28L460.548 146.864C462.116 146.352 463.972 145.936 465.54 145.936C467.172 145.936 468.26 146.576 468.26 148.176V148.752L465.668 149.424C463.78 149.936 462.244 150.576 461.22 151.472C460.26 152.272 459.78 153.328 459.78 154.608C459.78 156.816 461.124 158.288 463.3 158.288C464.9 158.288 466.756 157.392 468.324 155.76L468.356 156.144C468.484 157.744 469.38 158.352 470.66 158.352C471.588 158.352 472.74 158.096 473.636 157.68L474.084 154.768C473.38 154.992 472.836 155.12 472.58 155.12ZM464.996 155.216C464.228 155.216 463.652 154.64 463.652 153.68C463.652 152.528 464.484 151.824 466.116 151.728L468.26 151.568V153.648C466.82 154.768 465.828 155.216 464.996 155.216ZM478.889 158.32C480.489 158.32 481.513 157.488 481.513 155.824C481.513 154.288 480.521 153.488 479.017 153.488C477.353 153.488 476.329 154.48 476.329 156.048C476.329 157.584 477.289 158.32 478.889 158.32Z" fill="#383838"/>
<g clip-path="url(#clip1_1581_20627)">
<g filter="url(#filter1_d_1581_20627)">
<rect x="330" y="298" width="262" height="62" rx="9.49871" fill="#383838"/>
</g>
<path d="M413.391 333.818C414.615 333.818 416.019 333.494 416.739 333.062L417.297 331.316C416.631 331.82 415.047 332.378 413.931 332.378C411.285 332.378 409.737 331.154 409.737 327.626C409.737 324.35 411.555 322.586 414.003 322.586C414.993 322.586 416.127 322.892 416.901 323.288L417.153 321.524C416.577 321.326 415.335 321.128 414.507 321.128C412.599 321.128 411.033 321.704 409.935 322.982C408.693 324.242 408.117 326.15 408.117 328.094C408.117 331.82 410.277 333.818 413.391 333.818ZM425.245 333.818C426.775 333.818 428.323 333.206 429.403 331.946C430.411 330.794 430.987 329.138 430.987 327.122C430.987 323.378 428.701 321.146 425.605 321.146C424.057 321.146 422.653 321.722 421.591 322.82C420.385 324.044 419.845 325.664 419.845 327.644C419.845 331.838 422.563 333.818 425.245 333.818ZM425.371 332.396C422.869 332.396 421.465 330.524 421.465 327.356C421.465 324.458 422.977 322.586 425.371 322.586C427.855 322.586 429.367 324.422 429.367 327.572C429.367 330.524 427.855 332.396 425.371 332.396ZM443.247 330.542L436.137 321.236L434.913 321.308V333.548H436.443V324.26L443.517 333.638L444.741 333.404V321.254L443.247 321.326V330.542ZM456.115 321.308H448.159L448.051 322.748H451.309V333.548H452.911V322.748H456.025L456.115 321.308ZM460.937 333.548V321.308H459.317V333.548H460.937ZM473.861 330.542L466.751 321.236L465.527 321.308V333.548H467.057V324.26L474.131 333.638L475.355 333.404V321.254L473.861 321.326V330.542ZM483.903 333.836C485.001 333.836 486.297 333.476 487.197 332.738C488.151 331.946 488.637 330.974 488.637 329.606V321.308H487.035V330.056C487.035 331.46 485.919 332.45 484.299 332.45C482.715 332.45 481.653 331.856 481.653 330.272V321.308H480.033V330.632C480.033 332.648 481.563 333.836 483.903 333.836ZM497.43 321.2L495.522 321.308L491.22 333.548H492.84L494.136 329.588H498.834L499.05 330.218C499.41 331.244 499.914 332.81 500.31 333.71L501.84 333.332C501.534 332.684 501.156 331.55 500.634 330.092L497.43 321.2ZM496.404 322.73L498.366 328.256H494.586L496.404 322.73ZM509.839 327.878C511.099 327.14 512.377 326.024 512.377 324.296C512.377 322.658 511.153 321.308 508.669 321.308H505.177V333.548H506.797V328.31L508.309 328.364C509.425 330.218 510.631 331.928 511.891 333.548H513.961V333.44C512.467 331.73 511.081 329.858 509.839 327.878ZM508.003 322.748C509.821 322.748 510.685 323.396 510.685 324.584C510.685 325.52 510.091 326.348 508.741 326.996L506.797 326.924V322.748H508.003Z" fill="white"/>
</g>
<g clip-path="url(#clip2_1581_20627)">
<rect x="59.4749" y="298.475" width="261.05" height="61.0501" rx="9.02378" fill="white" stroke="#383838" stroke-width="0.949871"/>
<path d="M148.448 335.27C145.334 335.27 143.174 333.272 143.174 329.546C143.174 327.602 143.75 325.694 144.992 324.434C146.09 323.156 147.656 322.58 149.564 322.58C150.392 322.58 151.634 322.778 152.21 322.976L151.958 324.74C151.184 324.344 150.05 324.038 149.06 324.038C146.612 324.038 144.794 325.802 144.794 329.078C144.794 332.606 146.342 333.83 148.988 333.83C150.104 333.83 151.688 333.272 152.354 332.768L151.796 334.514C151.076 334.946 149.672 335.27 148.448 335.27ZM160.712 322.652L163.916 331.544C164.438 333.002 164.816 334.136 165.122 334.784L163.592 335.162C163.196 334.262 162.692 332.696 162.332 331.67L162.116 331.04H157.418L156.122 335H154.502L158.804 322.76L160.712 322.652ZM159.686 324.182L157.868 329.708H161.648L159.686 324.182ZM176.793 331.994V322.778L178.287 322.706V334.856L177.063 335.09L169.989 325.712V335H168.459V322.76L169.683 322.688L176.793 331.994ZM187.482 335.27C184.368 335.27 182.208 333.272 182.208 329.546C182.208 327.602 182.784 325.694 184.026 324.434C185.124 323.156 186.69 322.58 188.598 322.58C189.426 322.58 190.668 322.778 191.244 322.976L190.992 324.74C190.218 324.344 189.084 324.038 188.094 324.038C185.646 324.038 183.828 325.802 183.828 329.078C183.828 332.606 185.376 333.83 188.022 333.83C189.138 333.83 190.722 333.272 191.388 332.768L190.83 334.514C190.11 334.946 188.706 335.27 187.482 335.27ZM196.313 329.096V333.56H201.641L201.551 335H194.693V322.76H201.353L201.263 324.2H196.313V327.692H200.813L200.759 329.096H196.313ZM206.951 322.76V333.56H212.009L211.829 335H205.331V322.76H206.951ZM220.372 322.652L223.576 331.544C224.098 333.002 224.476 334.136 224.782 334.784L223.252 335.162C222.856 334.262 222.352 332.696 221.992 331.67L221.776 331.04H217.078L215.782 335H214.162L218.464 322.76L220.372 322.652ZM219.346 324.182L217.528 329.708H221.308L219.346 324.182ZM232.781 329.33C234.023 331.31 235.409 333.182 236.903 334.892V335H234.833C233.573 333.38 232.367 331.67 231.251 329.816L229.739 329.762V335H228.119V322.76H231.611C234.095 322.76 235.319 324.11 235.319 325.748C235.319 327.476 234.041 328.592 232.781 329.33ZM230.945 324.2H229.739V328.376L231.683 328.448C233.033 327.8 233.627 326.972 233.627 326.036C233.627 324.848 232.763 324.2 230.945 324.2Z" fill="#383838"/>
</g>
</g>
<defs>
<filter id="filter0_d_1581_20627" x="-26.4424" y="-15.3088" width="694.885" height="464.885" filterUnits="userSpaceOnUse" color-interpolation-filters="sRGB">
<feFlood flood-opacity="0" result="BackgroundImageFix"/>
<feColorMatrix in="SourceAlpha" type="matrix" values="0 0 0 0 0 0 0 0 0 0 0 0 0 0 0 0 0 0 127 0" result="hardAlpha"/>
<feOffset dy="11.1336"/>
<feGaussianBlur stdDeviation="13.2212"/>
<feComposite in2="hardAlpha" operator="out"/>
<feColorMatrix type="matrix" values="0 0 0 0 0 0 0 0 0 0 0 0 0 0 0 0 0 0 0.05 0"/>
<feBlend mode="normal" in2="BackgroundImageFix" result="effect1_dropShadow_1581_20627"/>
<feBlend mode="normal" in="SourceGraphic" in2="effect1_dropShadow_1581_20627" result="shape"/>
</filter>
<filter id="filter1_d_1581_20627" x="326.201" y="294.201" width="269.599" height="69.599" filterUnits="userSpaceOnUse" color-interpolation-filters="sRGB">
<feFlood flood-opacity="0" result="BackgroundImageFix"/>
<feColorMatrix in="SourceAlpha" type="matrix" values="0 0 0 0 0 0 0 0 0 0 0 0 0 0 0 0 0 0 127 0" result="hardAlpha"/>
<feOffset/>
<feGaussianBlur stdDeviation="1.89974"/>
<feComposite in2="hardAlpha" operator="out"/>
<feColorMatrix type="matrix" values="0 0 0 0 0 0 0 0 0 0 0 0 0 0 0 0 0 0 0.25 0"/>
<feBlend mode="normal" in2="BackgroundImageFix" result="effect1_dropShadow_1581_20627"/>
<feBlend mode="normal" in="SourceGraphic" in2="effect1_dropShadow_1581_20627" result="shape"/>
</filter>
<clipPath id="clip0_1581_20627">
<rect width="642" height="412" fill="white"/>
</clipPath>
<clipPath id="clip1_1581_20627">
<rect width="262" height="62" fill="white" transform="translate(330 298)"/>
</clipPath>
<clipPath id="clip2_1581_20627">
<rect width="262" height="62" fill="white" transform="translate(59 298)"/>
</clipPath>
</defs>
</svg>
