<svg width="642" height="363" viewBox="0 0 642 363" fill="none" xmlns="http://www.w3.org/2000/svg">
<g clip-path="url(#clip0_1582_24506)">
<g filter="url(#filter0_d_1582_24506)">
<rect width="642" height="363" rx="27.8341" fill="white"/>
</g>
<path d="M61.0393 94.24V116H69.2633C75.7273 115.104 79.8233 110.976 79.8233 104.512C79.8233 98.592 76.3353 94.24 69.1353 94.24H61.0393ZM65.3593 112.544V97.6H67.9833C72.7513 97.6 75.2793 100.16 75.2793 104.768C75.2793 109.28 72.8793 111.744 69.3913 112.608L65.3593 112.544ZM90.6655 112.896C88.0735 112.896 86.4415 111.744 86.2815 108.864L95.2735 108.96C95.4655 108.128 95.6255 106.912 95.6255 106.08C95.6255 102.656 93.3215 100.608 90.0575 100.608C87.8495 100.608 85.9295 101.632 84.5855 103.104C83.1775 104.672 82.3455 106.752 82.3455 108.928C82.3455 113.472 85.2255 116.352 90.0575 116.352C91.9455 116.352 93.8655 115.744 94.9535 114.944L95.4015 111.616H95.2735C94.3135 112.224 92.3615 112.896 90.6655 112.896ZM89.5135 103.616C91.1455 103.616 92.1695 104.608 92.2655 106.4L86.4095 106.56C86.7615 104.48 88.0415 103.616 89.5135 103.616ZM102.984 116.384C104.776 116.384 106.728 115.936 108.072 114.944C109.352 114.016 110.248 112.736 110.248 111.136C110.248 109.024 108.776 107.84 105.576 106.784C103.624 106.176 102.536 105.76 102.536 104.928C102.536 104.224 103.368 103.776 104.68 103.776C105.992 103.776 107.56 104.096 108.872 104.576L109.512 101.152C108.424 100.864 107.016 100.64 105.704 100.64C103.624 100.64 101.864 101.184 100.584 102.112C99.464 102.944 98.728 104.256 98.728 105.568C98.728 107.68 100.072 108.672 103.048 109.728C105.352 110.592 106.472 110.976 106.472 111.808C106.472 112.672 105.48 113.216 104.136 113.216C102.376 113.216 99.912 112.576 98.312 111.744L98.664 115.456C99.656 116 101.352 116.384 102.984 116.384ZM121.103 112.896C118.511 112.896 116.879 111.744 116.719 108.864L125.711 108.96C125.903 108.128 126.063 106.912 126.063 106.08C126.063 102.656 123.759 100.608 120.495 100.608C118.287 100.608 116.367 101.632 115.023 103.104C113.615 104.672 112.783 106.752 112.783 108.928C112.783 113.472 115.663 116.352 120.495 116.352C122.383 116.352 124.303 115.744 125.391 114.944L125.839 111.616H125.711C124.751 112.224 122.799 112.896 121.103 112.896ZM119.951 103.616C121.583 103.616 122.607 104.608 122.703 106.4L116.847 106.56C117.199 104.48 118.479 103.616 119.951 103.616ZM131.854 98.24C133.518 98.24 134.446 97.28 134.446 95.872C134.446 94.528 133.55 93.824 131.982 93.824C130.35 93.824 129.326 94.624 129.326 96.16C129.326 97.568 130.254 98.24 131.854 98.24ZM128.558 122.272C129.87 122.048 131.118 121.472 132.141 120.544C133.23 119.616 133.966 118.464 133.966 116.64V100.736L129.838 101.088V117.312C129.838 118.4 129.294 118.88 128.43 118.88C127.95 118.88 127.566 118.816 127.053 118.688L126.637 121.984L128.558 122.272ZM150.455 113.12C150.135 113.12 150.007 112.928 150.007 112.608V105.568C150.007 103.168 149.271 100.64 144.407 100.64C142.711 100.64 140.599 100.896 139.095 101.28L138.423 104.864C139.991 104.352 141.847 103.936 143.415 103.936C145.047 103.936 146.135 104.576 146.135 106.176V106.752L143.543 107.424C141.655 107.936 140.119 108.576 139.095 109.472C138.135 110.272 137.655 111.328 137.655 112.608C137.655 114.816 138.999 116.288 141.175 116.288C142.775 116.288 144.631 115.392 146.199 113.76L146.231 114.144C146.359 115.744 147.255 116.352 148.535 116.352C149.463 116.352 150.615 116.096 151.511 115.68L151.959 112.768C151.255 112.992 150.711 113.12 150.455 113.12ZM142.871 113.216C142.103 113.216 141.527 112.64 141.527 111.68C141.527 110.528 142.359 109.824 143.991 109.728L146.135 109.568V111.648C144.695 112.768 143.703 113.216 142.871 113.216ZM172.736 113.12C172.416 113.12 172.288 112.928 172.288 112.608V105.568C172.288 103.168 171.552 100.64 166.688 100.64C164.992 100.64 162.88 100.896 161.376 101.28L160.704 104.864C162.272 104.352 164.128 103.936 165.696 103.936C167.328 103.936 168.416 104.576 168.416 106.176V106.752L165.824 107.424C163.936 107.936 162.4 108.576 161.376 109.472C160.416 110.272 159.936 111.328 159.936 112.608C159.936 114.816 161.28 116.288 163.456 116.288C165.056 116.288 166.912 115.392 168.48 113.76L168.512 114.144C168.64 115.744 169.536 116.352 170.816 116.352C171.744 116.352 172.896 116.096 173.792 115.68L174.24 112.768C173.536 112.992 172.992 113.12 172.736 113.12ZM165.152 113.216C164.384 113.216 163.808 112.64 163.808 111.68C163.808 110.528 164.64 109.824 166.272 109.728L168.416 109.568V111.648C166.976 112.768 165.984 113.216 165.152 113.216ZM189.886 94.08L185.918 94.496V100.832C185.374 100.672 184.734 100.608 184.03 100.608C181.982 100.608 179.998 101.504 178.43 103.264C176.926 104.928 176.158 107.104 176.158 109.792C176.158 113.6 178.238 116.32 181.406 116.32C183.23 116.32 184.862 115.552 186.078 114.112H186.174C186.302 114.944 186.59 115.744 186.878 116.32L190.686 115.616C190.238 114.528 189.886 112.576 189.886 110.72V94.08ZM183.038 112.832C181.278 112.832 180.222 111.552 180.222 108.736C180.222 105.6 181.566 103.936 183.806 103.936C184.542 103.936 185.278 104.096 185.918 104.384V111.616C185.278 112.224 184.158 112.832 183.038 112.832ZM196.035 98.24C197.699 98.24 198.627 97.28 198.627 95.872C198.627 94.528 197.731 93.824 196.163 93.824C194.531 93.824 193.507 94.624 193.507 96.16C193.507 97.568 194.435 98.24 196.035 98.24ZM198.019 116V100.704L194.019 101.088V116H198.019ZM208.092 116.352C209.564 116.352 211.164 115.936 212.284 115.328L212.988 111.744H212.892C212.06 112.352 210.524 112.832 209.276 112.832C206.972 112.832 205.5 111.456 205.5 108.704C205.5 105.792 207.164 104.096 209.66 104.096C210.46 104.096 211.516 104.352 212.252 104.704L212.86 101.152C212.06 100.864 210.908 100.64 209.628 100.64C207.388 100.64 205.308 101.6 203.9 103.168C202.396 104.8 201.564 106.912 201.564 109.376C201.564 113.664 204.06 116.352 208.092 116.352ZM218.223 98.24C219.887 98.24 220.815 97.28 220.815 95.872C220.815 94.528 219.919 93.824 218.351 93.824C216.719 93.824 215.695 94.624 215.695 96.16C215.695 97.568 216.623 98.24 218.223 98.24ZM220.207 116V100.704L216.207 101.088V116H220.207ZM230.408 116.352C232.616 116.352 234.536 115.488 235.976 113.984C237.416 112.512 238.28 110.496 238.28 107.904C238.28 103.424 235.4 100.608 231.432 100.608C229.256 100.608 227.272 101.536 225.8 103.168C224.424 104.736 223.752 106.656 223.752 108.992C223.752 113.76 226.76 116.352 230.408 116.352ZM231.08 112.992C229.032 112.992 227.816 111.616 227.816 108.128C227.816 105.344 228.968 103.936 230.856 103.936C232.968 103.936 234.12 105.28 234.12 108.704C234.12 111.552 233 112.992 231.08 112.992ZM245.868 116V104.768C247.052 104.288 247.916 104.064 248.844 104.064C250.188 104.064 250.924 104.608 250.924 106.08V116H254.924V105.408C254.924 102.112 253.164 100.608 250.444 100.608C248.812 100.608 247.212 101.184 245.708 102.56H245.612C245.516 102.016 245.324 101.088 245.132 100.672L241.516 101.152C241.74 102.464 241.868 103.872 241.868 105.248V116H245.868ZM270.986 113.12C270.666 113.12 270.538 112.928 270.538 112.608V105.568C270.538 103.168 269.802 100.64 264.938 100.64C263.242 100.64 261.13 100.896 259.626 101.28L258.954 104.864C260.522 104.352 262.378 103.936 263.946 103.936C265.578 103.936 266.666 104.576 266.666 106.176V106.752L264.074 107.424C262.186 107.936 260.65 108.576 259.626 109.472C258.666 110.272 258.186 111.328 258.186 112.608C258.186 114.816 259.53 116.288 261.706 116.288C263.306 116.288 265.162 115.392 266.73 113.76L266.762 114.144C266.89 115.744 267.786 116.352 269.066 116.352C269.994 116.352 271.146 116.096 272.042 115.68L272.49 112.768C271.786 112.992 271.242 113.12 270.986 113.12ZM263.402 113.216C262.634 113.216 262.058 112.64 262.058 111.68C262.058 110.528 262.89 109.824 264.522 109.728L266.666 109.568V111.648C265.226 112.768 264.234 113.216 263.402 113.216ZM279.784 116V106.688C280.616 105.6 281.288 105.152 282.248 105.024L283.848 105.184L284.52 100.832L283.368 100.576C281.8 100.8 280.712 101.664 279.464 103.744H279.4C279.304 102.624 279.048 101.312 278.824 100.608L275.08 101.216C275.464 102.592 275.784 105.152 275.784 107.392V116H279.784ZM297.203 116.384C298.995 116.384 300.947 115.936 302.291 114.944C303.571 114.016 304.467 112.736 304.467 111.136C304.467 109.024 302.995 107.84 299.795 106.784C297.843 106.176 296.755 105.76 296.755 104.928C296.755 104.224 297.587 103.776 298.899 103.776C300.211 103.776 301.779 104.096 303.091 104.576L303.731 101.152C302.643 100.864 301.235 100.64 299.923 100.64C297.843 100.64 296.083 101.184 294.803 102.112C293.683 102.944 292.947 104.256 292.947 105.568C292.947 107.68 294.291 108.672 297.267 109.728C299.571 110.592 300.691 110.976 300.691 111.808C300.691 112.672 299.699 113.216 298.355 113.216C296.595 113.216 294.131 112.576 292.531 111.744L292.883 115.456C293.875 116 295.571 116.384 297.203 116.384ZM315.322 112.896C312.73 112.896 311.098 111.744 310.938 108.864L319.93 108.96C320.122 108.128 320.282 106.912 320.282 106.08C320.282 102.656 317.978 100.608 314.714 100.608C312.506 100.608 310.586 101.632 309.242 103.104C307.834 104.672 307.002 106.752 307.002 108.928C307.002 113.472 309.882 116.352 314.714 116.352C316.602 116.352 318.522 115.744 319.61 114.944L320.058 111.616H319.93C318.97 112.224 317.018 112.896 315.322 112.896ZM314.17 103.616C315.802 103.616 316.826 104.608 316.922 106.4L311.066 106.56C311.418 104.48 312.698 103.616 314.17 103.616ZM332.6 101.024V112.256C331.48 112.736 330.584 112.928 329.72 112.928C328.216 112.928 327.64 112.224 327.64 110.912V101.024H323.64V111.616C323.64 114.88 325.4 116.416 328.024 116.416C329.688 116.416 331.32 115.712 332.728 114.4H332.824C332.952 115.04 333.144 115.904 333.336 116.352L336.952 115.872C336.728 114.56 336.6 113.056 336.6 111.776V101.024H332.6ZM355.364 100.64C353.668 100.64 352.196 101.408 351.14 102.624H351.076V102.656C350.948 102.048 350.756 101.152 350.564 100.672L346.756 101.152C346.98 102.4 347.172 104.672 347.172 107.104V122.272L351.172 121.856V116.16C351.78 116.288 352.452 116.352 353.156 116.352C355.3 116.352 357.22 115.296 358.66 113.696C359.94 112.224 360.932 110.176 360.932 107.424C360.932 103.488 358.756 100.64 355.364 100.64ZM353.508 113.088C352.708 113.088 351.908 112.928 351.172 112.672V104.768C351.876 104.32 352.772 104 353.732 104C355.492 104 356.804 105.216 356.804 108.32C356.804 111.232 355.556 113.088 353.508 113.088ZM368.597 116V106.688C369.429 105.6 370.101 105.152 371.061 105.024L372.661 105.184L373.333 100.832L372.181 100.576C370.613 100.8 369.525 101.664 368.277 103.744H368.213C368.117 102.624 367.861 101.312 367.637 100.608L363.893 101.216C364.277 102.592 364.597 105.152 364.597 107.392V116H368.597ZM381.533 116.352C383.741 116.352 385.661 115.488 387.101 113.984C388.541 112.512 389.405 110.496 389.405 107.904C389.405 103.424 386.525 100.608 382.557 100.608C380.381 100.608 378.397 101.536 376.925 103.168C375.549 104.736 374.877 106.656 374.877 108.992C374.877 113.76 377.885 116.352 381.533 116.352ZM382.205 112.992C380.157 112.992 378.941 111.616 378.941 108.128C378.941 105.344 380.093 103.936 381.981 103.936C384.093 103.936 385.245 105.28 385.245 108.704C385.245 111.552 384.125 112.992 382.205 112.992ZM405.917 94.08L401.949 94.496V100.832C401.405 100.672 400.765 100.608 400.061 100.608C398.013 100.608 396.029 101.504 394.461 103.264C392.957 104.928 392.189 107.104 392.189 109.792C392.189 113.6 394.269 116.32 397.437 116.32C399.261 116.32 400.893 115.552 402.109 114.112H402.205C402.333 114.944 402.621 115.744 402.909 116.32L406.717 115.616C406.269 114.528 405.917 112.576 405.917 110.72V94.08ZM399.069 112.832C397.309 112.832 396.253 111.552 396.253 108.736C396.253 105.6 397.597 103.936 399.837 103.936C400.573 103.936 401.309 104.096 401.949 104.384V111.616C401.309 112.224 400.189 112.832 399.069 112.832ZM418.85 101.024V112.256C417.73 112.736 416.834 112.928 415.97 112.928C414.466 112.928 413.89 112.224 413.89 110.912V101.024H409.89V111.616C409.89 114.88 411.65 116.416 414.274 116.416C415.938 116.416 417.57 115.712 418.978 114.4H419.074C419.202 115.04 419.394 115.904 419.586 116.352L423.202 115.872C422.978 114.56 422.85 113.056 422.85 111.776V101.024H418.85ZM436.099 112.32C434.979 112.8 434.051 113.056 433.475 113.056C432.835 113.056 432.483 112.736 432.483 112.096V104.032H436.131L436.035 101.024H432.483V96.448L428.451 97.472V101.024H426.115L425.923 104.032H428.451V112.64C428.451 114.816 429.219 116.352 432.131 116.352C433.219 116.352 434.691 116.096 435.715 115.584L436.195 112.32H436.099ZM445.252 116.352C447.46 116.352 449.38 115.488 450.82 113.984C452.26 112.512 453.124 110.496 453.124 107.904C453.124 103.424 450.244 100.608 446.276 100.608C444.1 100.608 442.116 101.536 440.644 103.168C439.268 104.736 438.596 106.656 438.596 108.992C438.596 113.76 441.604 116.352 445.252 116.352ZM445.924 112.992C443.876 112.992 442.66 111.616 442.66 108.128C442.66 105.344 443.812 103.936 445.7 103.936C447.812 103.936 448.964 105.28 448.964 108.704C448.964 111.552 447.844 112.992 445.924 112.992ZM472.784 96.96V96.864C470.095 95.648 467.44 94.24 464.976 92.768H464.816L463.44 95.968C466.128 97.088 468.88 98.112 471.728 98.944H471.824L472.784 96.96ZM474.768 113.12C474.448 113.12 474.32 112.928 474.32 112.608V105.568C474.32 103.168 473.584 100.64 468.72 100.64C467.024 100.64 464.911 100.896 463.408 101.28L462.736 104.864C464.304 104.352 466.16 103.936 467.728 103.936C469.36 103.936 470.448 104.576 470.448 106.176V106.752L467.856 107.424C465.968 107.936 464.432 108.576 463.408 109.472C462.448 110.272 461.968 111.328 461.968 112.608C461.968 114.816 463.312 116.288 465.488 116.288C467.088 116.288 468.944 115.392 470.512 113.76L470.544 114.144C470.672 115.744 471.568 116.352 472.848 116.352C473.776 116.352 474.928 116.096 475.824 115.68L476.272 112.768C475.568 112.992 475.024 113.12 474.768 113.12ZM467.184 113.216C466.416 113.216 465.84 112.64 465.84 111.68C465.84 110.528 466.672 109.824 468.304 109.728L470.448 109.568V111.648C469.008 112.768 468.016 113.216 467.184 113.216ZM488.953 116.384C490.745 116.384 492.697 115.936 494.041 114.944C495.321 114.016 496.217 112.736 496.217 111.136C496.217 109.024 494.745 107.84 491.545 106.784C489.593 106.176 488.505 105.76 488.505 104.928C488.505 104.224 489.337 103.776 490.649 103.776C491.961 103.776 493.529 104.096 494.841 104.576L495.481 101.152C494.393 100.864 492.985 100.64 491.673 100.64C489.593 100.64 487.833 101.184 486.553 102.112C485.433 102.944 484.697 104.256 484.697 105.568C484.697 107.68 486.041 108.672 489.017 109.728C491.321 110.592 492.441 110.976 492.441 111.808C492.441 112.672 491.449 113.216 490.105 113.216C488.345 113.216 485.881 112.576 484.281 111.744L484.633 115.456C485.625 116 487.321 116.384 488.953 116.384ZM511.424 113.12C511.104 113.12 510.976 112.928 510.976 112.608V105.568C510.976 103.168 510.24 100.64 505.376 100.64C503.68 100.64 501.568 100.896 500.064 101.28L499.392 104.864C500.96 104.352 502.816 103.936 504.384 103.936C506.016 103.936 507.104 104.576 507.104 106.176V106.752L504.512 107.424C502.624 107.936 501.088 108.576 500.064 109.472C499.104 110.272 498.624 111.328 498.624 112.608C498.624 114.816 499.968 116.288 502.144 116.288C503.744 116.288 505.6 115.392 507.168 113.76L507.2 114.144C507.328 115.744 508.224 116.352 509.504 116.352C510.432 116.352 511.584 116.096 512.48 115.68L512.928 112.768C512.224 112.992 511.68 113.12 511.424 113.12ZM503.84 113.216C503.072 113.216 502.496 112.64 502.496 111.68C502.496 110.528 503.328 109.824 504.96 109.728L507.104 109.568V111.648C505.664 112.768 504.672 113.216 503.84 113.216ZM521.374 116.352C522.845 116.352 524.446 115.936 525.566 115.328L526.27 111.744H526.174C525.342 112.352 523.806 112.832 522.558 112.832C520.254 112.832 518.782 111.456 518.782 108.704C518.782 105.792 520.446 104.096 522.942 104.096C523.742 104.096 524.798 104.352 525.534 104.704L526.142 101.152C525.342 100.864 524.19 100.64 522.91 100.64C520.67 100.64 518.59 101.6 517.182 103.168C515.678 104.8 514.846 106.912 514.846 109.376C514.846 113.664 517.342 116.352 521.374 116.352ZM535.095 116.352C537.303 116.352 539.223 115.488 540.663 113.984C542.103 112.512 542.967 110.496 542.967 107.904C542.967 103.424 540.087 100.608 536.119 100.608C533.943 100.608 531.959 101.536 530.487 103.168C529.111 104.736 528.439 106.656 528.439 108.992C528.439 113.76 531.447 116.352 535.095 116.352ZM535.767 112.992C533.719 112.992 532.503 111.616 532.503 108.128C532.503 105.344 533.655 103.936 535.543 103.936C537.655 103.936 538.807 105.28 538.807 108.704C538.807 111.552 537.687 112.992 535.767 112.992ZM550.424 116V93.824L546.424 94.176V116H550.424ZM566.549 113.12C566.229 113.12 566.101 112.928 566.101 112.608V105.568C566.101 103.168 565.365 100.64 560.501 100.64C558.805 100.64 556.693 100.896 555.189 101.28L554.517 104.864C556.085 104.352 557.941 103.936 559.509 103.936C561.141 103.936 562.229 104.576 562.229 106.176V106.752L559.637 107.424C557.749 107.936 556.213 108.576 555.189 109.472C554.229 110.272 553.749 111.328 553.749 112.608C553.749 114.816 555.093 116.288 557.269 116.288C558.869 116.288 560.725 115.392 562.293 113.76L562.325 114.144C562.453 115.744 563.349 116.352 564.629 116.352C565.557 116.352 566.709 116.096 567.605 115.68L568.053 112.768C567.349 112.992 566.805 113.12 566.549 113.12ZM558.965 113.216C558.197 113.216 557.621 112.64 557.621 111.68C557.621 110.528 558.453 109.824 560.085 109.728L562.229 109.568V111.648C560.789 112.768 559.797 113.216 558.965 113.216ZM576.211 93.888C574.323 93.888 572.179 94.336 570.867 94.912L570.163 98.88C571.859 98.048 573.683 97.6 575.315 97.6C577.363 97.6 578.771 98.4 578.771 99.84C578.771 101.376 577.171 102.816 573.331 104.672L573.683 109.024H577.01L577.395 106.368C581.139 104.416 583.411 102.048 583.411 99.008C583.411 96.096 581.011 93.888 576.211 93.888ZM575.507 111.488C573.843 111.488 572.819 112.48 572.819 114.048C572.819 115.584 573.779 116.32 575.379 116.32C576.979 116.32 578.003 115.488 578.003 113.824C578.003 112.288 577.01 111.488 575.507 111.488Z" fill="#00A347"/>
<g clip-path="url(#clip1_1582_24506)">
<g filter="url(#filter1_d_1582_24506)">
<rect x="330" y="249" width="262" height="62" rx="9.49871" fill="#00A347"/>
</g>
<path d="M370.835 273.652L374.039 282.544C374.561 284.002 374.939 285.136 375.245 285.784L373.715 286.162C373.319 285.262 372.815 283.696 372.455 282.67L372.239 282.04H367.541L366.245 286H364.625L368.927 273.76L370.835 273.652ZM369.809 275.182L367.991 280.708H371.771L369.809 275.182ZM378.581 273.76H382.271C386.555 273.76 388.625 275.974 388.625 279.574C388.625 283.426 385.601 286 382.001 286H378.581V273.76ZM380.201 284.596H382.757C385.133 284.236 386.933 282.58 386.933 279.628C386.933 276.766 385.223 275.2 381.821 275.2H380.201V284.596ZM394.072 286H392.452V273.76H394.072V286ZM403.181 286.27C400.067 286.27 397.907 284.272 397.907 280.546C397.907 278.602 398.483 276.694 399.725 275.434C400.823 274.156 402.389 273.58 404.297 273.58C405.125 273.58 406.367 273.778 406.943 273.976L406.691 275.74C405.917 275.344 404.783 275.038 403.793 275.038C401.345 275.038 399.527 276.802 399.527 280.078C399.527 283.606 401.075 284.83 403.721 284.83C404.837 284.83 406.421 284.272 407.087 283.768L406.529 285.514C405.809 285.946 404.405 286.27 403.181 286.27ZM411.921 286H410.301V273.76H411.921V286ZM421.156 286.27C418.474 286.27 415.756 284.29 415.756 280.096C415.756 278.116 416.296 276.496 417.502 275.272C418.564 274.174 419.968 273.598 421.516 273.598C424.612 273.598 426.898 275.83 426.898 279.574C426.898 281.59 426.322 283.246 425.314 284.398C424.234 285.658 422.686 286.27 421.156 286.27ZM421.282 284.848C423.766 284.848 425.278 282.976 425.278 280.024C425.278 276.874 423.766 275.038 421.282 275.038C418.888 275.038 417.376 276.91 417.376 279.808C417.376 282.976 418.78 284.848 421.282 284.848ZM439.158 282.994V273.778L440.652 273.706V285.856L439.428 286.09L432.354 276.712V286H430.824V273.76L432.048 273.688L439.158 282.994ZM450.207 273.652L453.411 282.544C453.933 284.002 454.311 285.136 454.617 285.784L453.087 286.162C452.691 285.262 452.187 283.696 451.827 282.67L451.611 282.04H446.913L445.617 286H443.997L448.299 273.76L450.207 273.652ZM449.181 275.182L447.363 280.708H451.143L449.181 275.182ZM462.616 280.33C463.858 282.31 465.244 284.182 466.738 285.892V286H464.668C463.408 284.38 462.202 282.67 461.086 280.816L459.574 280.762V286H457.954V273.76H461.446C463.93 273.76 465.154 275.11 465.154 276.748C465.154 278.476 463.876 279.592 462.616 280.33ZM460.78 275.2H459.574V279.376L461.518 279.448C462.868 278.8 463.462 277.972 463.462 277.036C463.462 275.848 462.598 275.2 460.78 275.2ZM480.205 271.546L479.863 272.392H479.809C478.297 272.068 476.821 271.564 475.327 271.024L475.867 269.512H475.957C477.379 270.268 478.765 270.952 480.205 271.492V271.546ZM478.747 273.652L481.951 282.544C482.473 284.002 482.851 285.136 483.157 285.784L481.627 286.162C481.231 285.262 480.727 283.696 480.367 282.67L480.151 282.04H475.453L474.157 286H472.537L476.839 273.76L478.747 273.652ZM477.721 275.182L475.903 280.708H479.683L477.721 275.182ZM492.27 286.18C491.082 286.18 490.29 286.018 489.714 285.766L489.444 284.038C490.326 284.362 491.604 284.65 492.702 284.65C494.412 284.65 495.618 283.858 495.618 282.706C495.618 281.518 494.358 280.924 493.026 280.294C491.514 279.556 489.894 278.8 489.894 277.072C489.894 276.19 490.362 275.182 491.262 274.534C492.162 273.886 493.224 273.58 494.466 273.58C495.24 273.58 495.924 273.67 496.482 273.796L496.158 275.452C495.564 275.308 494.682 275.182 493.944 275.182C492.468 275.182 491.406 275.776 491.406 276.802C491.406 277.774 492.594 278.368 493.89 278.998C495.456 279.79 497.202 280.654 497.202 282.4C497.202 283.444 496.644 284.434 495.87 285.082C494.97 285.82 493.584 286.18 492.27 286.18ZM505.195 273.652L508.399 282.544C508.921 284.002 509.299 285.136 509.605 285.784L508.075 286.162C507.679 285.262 507.175 283.696 506.815 282.67L506.599 282.04H501.901L500.605 286H498.985L503.287 273.76L505.195 273.652ZM504.169 275.182L502.351 280.708H506.131L504.169 275.182ZM516.739 286.27C513.625 286.27 511.465 284.272 511.465 280.546C511.465 278.602 512.041 276.694 513.283 275.434C514.381 274.156 515.947 273.58 517.855 273.58C518.683 273.58 519.925 273.778 520.501 273.976L520.249 275.74C519.475 275.344 518.341 275.038 517.351 275.038C514.903 275.038 513.085 276.802 513.085 280.078C513.085 283.606 514.633 284.83 517.279 284.83C518.395 284.83 519.979 284.272 520.645 283.768L520.087 285.514C519.367 285.946 517.963 286.27 516.739 286.27ZM528.593 286.27C525.911 286.27 523.193 284.29 523.193 280.096C523.193 278.116 523.733 276.496 524.939 275.272C526.001 274.174 527.405 273.598 528.953 273.598C532.049 273.598 534.335 275.83 534.335 279.574C534.335 281.59 533.759 283.246 532.751 284.398C531.671 285.658 530.123 286.27 528.593 286.27ZM528.719 284.848C531.203 284.848 532.715 282.976 532.715 280.024C532.715 276.874 531.203 275.038 528.719 275.038C526.325 275.038 524.813 276.91 524.813 279.808C524.813 282.976 526.217 284.848 528.719 284.848ZM539.881 273.76V284.56H544.939L544.759 286H538.261V273.76H539.881ZM553.303 273.652L556.507 282.544C557.029 284.002 557.407 285.136 557.713 285.784L556.183 286.162C555.787 285.262 555.283 283.696 554.923 282.67L554.707 282.04H550.009L548.713 286H547.093L551.395 273.76L553.303 273.652ZM552.277 275.182L550.459 280.708H554.239L552.277 275.182Z" fill="white"/>
</g>
<g clip-path="url(#clip2_1582_24506)">
<rect x="59.4749" y="249.475" width="261.05" height="61.0501" rx="9.02378" fill="white" stroke="#383838" stroke-width="0.949871"/>
<path d="M106.22 286.27C103.106 286.27 100.946 284.272 100.946 280.546C100.946 278.602 101.522 276.694 102.764 275.434C103.862 274.156 105.428 273.58 107.336 273.58C108.164 273.58 109.406 273.778 109.982 273.976L109.73 275.74C108.956 275.344 107.822 275.038 106.832 275.038C104.384 275.038 102.566 276.802 102.566 280.078C102.566 283.606 104.114 284.83 106.76 284.83C107.876 284.83 109.46 284.272 110.126 283.768L109.568 285.514C108.848 285.946 107.444 286.27 106.22 286.27ZM118.074 286.27C115.392 286.27 112.674 284.29 112.674 280.096C112.674 278.116 113.214 276.496 114.42 275.272C115.482 274.174 116.886 273.598 118.434 273.598C121.53 273.598 123.816 275.83 123.816 279.574C123.816 281.59 123.24 283.246 122.232 284.398C121.152 285.658 119.604 286.27 118.074 286.27ZM118.2 284.848C120.684 284.848 122.196 282.976 122.196 280.024C122.196 276.874 120.684 275.038 118.2 275.038C115.806 275.038 114.294 276.91 114.294 279.808C114.294 282.976 115.698 284.848 118.2 284.848ZM136.076 282.994V273.778L137.57 273.706V285.856L136.346 286.09L129.272 276.712V286H127.742V273.76L128.966 273.688L136.076 282.994ZM148.943 273.76L148.853 275.2H145.739V286H144.137V275.2H140.879L140.987 273.76H148.943ZM153.765 286H152.145V273.76H153.765V286ZM166.69 282.994V273.778L168.184 273.706V285.856L166.96 286.09L159.886 276.712V286H158.356V273.76L159.58 273.688L166.69 282.994ZM176.731 286.288C174.391 286.288 172.861 285.1 172.861 283.084V273.76H174.481V282.724C174.481 284.308 175.543 284.902 177.127 284.902C178.747 284.902 179.863 283.912 179.863 282.508V273.76H181.465V282.058C181.465 283.426 180.979 284.398 180.025 285.19C179.125 285.928 177.829 286.288 176.731 286.288ZM190.258 273.652L193.462 282.544C193.984 284.002 194.362 285.136 194.668 285.784L193.138 286.162C192.742 285.262 192.238 283.696 191.878 282.67L191.662 282.04H186.964L185.668 286H184.048L188.35 273.76L190.258 273.652ZM189.232 275.182L187.414 280.708H191.194L189.232 275.182ZM202.667 280.33C203.909 282.31 205.295 284.182 206.789 285.892V286H204.719C203.459 284.38 202.253 282.67 201.137 280.816L199.625 280.762V286H198.005V273.76H201.497C203.981 273.76 205.205 275.11 205.205 276.748C205.205 278.476 203.927 279.592 202.667 280.33ZM200.831 275.2H199.625V279.376L201.569 279.448C202.919 278.8 203.513 277.972 203.513 277.036C203.513 275.848 202.649 275.2 200.831 275.2ZM216.085 280.096V284.56H221.413L221.323 286H214.465V273.76H221.125L221.035 275.2H216.085V278.692H220.585L220.531 280.096H216.085ZM225.104 273.76H228.794C233.078 273.76 235.148 275.974 235.148 279.574C235.148 283.426 232.124 286 228.524 286H225.104V273.76ZM226.724 284.596H229.28C231.656 284.236 233.456 282.58 233.456 279.628C233.456 276.766 231.746 275.2 228.344 275.2H226.724V284.596ZM240.594 286H238.974V273.76H240.594V286ZM253.609 283.768L253.051 285.514C252.421 285.892 251.287 286.18 250.189 286.252L249.955 286.738C251.143 287.134 251.701 287.602 251.701 288.304C251.701 289.294 250.621 289.924 249.505 289.924C248.929 289.924 248.461 289.852 248.047 289.708L247.921 288.664C248.335 288.826 248.947 288.952 249.469 288.952C250.099 288.952 250.405 288.682 250.405 288.34C250.405 287.944 249.739 287.602 248.731 287.296L248.713 287.278L249.181 286.252C246.355 286.036 244.429 284.056 244.429 280.546C244.429 278.602 245.005 276.694 246.247 275.434C247.345 274.156 248.911 273.58 250.819 273.58C251.647 273.58 252.889 273.778 253.465 273.976L253.213 275.74C252.439 275.344 251.305 275.038 250.315 275.038C247.867 275.038 246.049 276.802 246.049 280.078C246.049 283.606 247.597 284.83 250.243 284.83C251.359 284.83 252.943 284.272 253.609 283.768ZM260.113 271.834C259.735 271.834 259.393 272.086 258.997 272.59L258.259 271.798C258.709 270.97 259.339 270.448 260.041 270.448C260.761 270.448 261.517 271.168 262.147 271.168C262.507 271.168 262.795 270.934 263.137 270.394L264.055 271.024C263.623 271.978 262.975 272.572 262.255 272.572C261.445 272.572 260.761 271.834 260.113 271.834ZM261.967 273.652L265.171 282.544C265.693 284.002 266.071 285.136 266.377 285.784L264.847 286.162C264.451 285.262 263.947 283.696 263.587 282.67L263.371 282.04H258.673L257.377 286H255.757L260.059 273.76L261.967 273.652ZM260.941 275.182L259.123 280.708H262.903L260.941 275.182ZM273.637 286.27C270.955 286.27 268.237 284.29 268.237 280.096C268.237 278.116 268.777 276.496 269.983 275.272C271.045 274.174 272.449 273.598 273.997 273.598C277.093 273.598 279.379 275.83 279.379 279.574C279.379 281.59 278.803 283.246 277.795 284.398C276.715 285.658 275.167 286.27 273.637 286.27ZM273.763 284.848C276.247 284.848 277.759 282.976 277.759 280.024C277.759 276.874 276.247 275.038 273.763 275.038C271.369 275.038 269.857 276.91 269.857 279.808C269.857 282.976 271.261 284.848 273.763 284.848Z" fill="#383838"/>
</g>
<path d="M85.6805 171.3C87.0405 171.3 88.6005 170.94 89.4005 170.46L90.0205 168.52C89.2805 169.08 87.5205 169.7 86.2805 169.7C83.3405 169.7 81.6205 168.34 81.6205 164.42C81.6205 160.78 83.6405 158.82 86.3605 158.82C87.4605 158.82 88.7205 159.16 89.5805 159.6L89.8605 157.64C89.2205 157.42 87.8405 157.2 86.9205 157.2C84.8005 157.2 83.0605 157.84 81.8405 159.26C80.4605 160.66 79.8205 162.78 79.8205 164.94C79.8205 169.08 82.2205 171.3 85.6805 171.3ZM99.1024 169.84C98.9024 169.84 98.8424 169.74 98.8424 169.58V164.06C98.8424 162.78 98.2824 161.48 95.9224 161.48C94.8424 161.48 93.4424 161.66 92.8624 161.82L92.4624 163.46C93.5024 163.22 94.6224 163.04 95.5424 163.04C96.5224 163.04 97.2424 163.46 97.2424 164.44V165.44L95.1224 165.86C94.0024 166.08 93.1824 166.48 92.6424 167.02C92.1624 167.5 91.9224 168.16 91.9224 168.82C91.9224 170.22 92.8024 171.18 94.0624 171.18C95.0224 171.18 96.1624 170.6 97.2424 169.56L97.2824 170.16C97.3224 170.94 97.8024 171.2 98.3424 171.2C98.8424 171.2 99.5224 171.08 99.9424 170.96L100.162 169.62C99.6224 169.78 99.2424 169.84 99.1024 169.84ZM93.5824 168.56C93.5824 167.64 94.2024 167.14 95.3424 167.04L97.2424 166.88V168.32C96.1024 169.3 95.2424 169.7 94.6024 169.7C93.9424 169.7 93.5824 169.24 93.5824 168.56ZM104.193 171.22C105.413 171.22 106.493 170.94 107.213 170.36C107.853 169.86 108.293 169.16 108.293 168.2C108.293 166.94 107.233 166.24 105.333 165.42C104.233 164.96 103.393 164.58 103.393 163.92C103.393 163.34 104.073 163.04 104.933 163.04C105.793 163.04 106.813 163.2 107.513 163.38L107.753 161.78C107.153 161.62 106.293 161.46 105.453 161.46C104.473 161.46 103.493 161.72 102.773 162.28C102.133 162.76 101.813 163.48 101.813 164.14C101.813 165.36 102.573 165.88 104.293 166.7C105.993 167.5 106.713 167.86 106.713 168.48C106.713 169.2 105.913 169.66 104.833 169.66C103.793 169.66 102.513 169.34 101.433 168.84L101.613 170.7C102.213 171 103.273 171.22 104.193 171.22ZM113.967 171.22C115.207 171.22 116.387 170.7 117.167 169.86C118.007 168.96 118.507 167.66 118.507 166.02C118.507 163.12 116.907 161.46 114.507 161.46C113.327 161.46 112.107 161.96 111.227 163.04C110.407 164.04 110.107 165.16 110.107 166.5C110.107 169.62 111.887 171.22 113.967 171.22ZM114.387 169.66C112.667 169.66 111.727 168.54 111.727 166.12C111.727 164.16 112.647 163.02 114.167 163.02C115.927 163.02 116.787 164.1 116.787 166.5C116.787 168.5 115.927 169.66 114.387 169.66ZM131.982 168.82C131.402 169.28 130.302 169.66 129.322 169.66C127.382 169.66 126.182 168.84 126.082 166.54C126.082 166.48 126.082 166.4 126.102 166.34L131.842 166.38C131.942 165.86 132.022 165.02 132.022 164.56C132.022 162.7 130.742 161.46 128.822 161.46C127.742 161.46 126.622 161.94 125.782 162.9C124.862 163.94 124.462 165.24 124.462 166.54C124.462 169.44 126.102 171.2 129.022 171.2C129.882 171.2 131.082 170.88 131.682 170.46L132.062 168.82H131.982ZM128.562 163.02C129.802 163.02 130.542 163.72 130.602 165.02L126.182 165.16C126.502 163.62 127.522 163.02 128.562 163.02ZM136.654 171.22C137.874 171.22 138.954 170.94 139.674 170.36C140.314 169.86 140.754 169.16 140.754 168.2C140.754 166.94 139.694 166.24 137.794 165.42C136.694 164.96 135.854 164.58 135.854 163.92C135.854 163.34 136.534 163.04 137.394 163.04C138.254 163.04 139.274 163.2 139.974 163.38L140.214 161.78C139.614 161.62 138.754 161.46 137.914 161.46C136.934 161.46 135.954 161.72 135.234 162.28C134.594 162.76 134.274 163.48 134.274 164.14C134.274 165.36 135.034 165.88 136.754 166.7C138.454 167.5 139.174 167.86 139.174 168.48C139.174 169.2 138.374 169.66 137.294 169.66C136.254 169.66 134.974 169.34 133.894 168.84L134.074 170.7C134.674 171 135.734 171.22 136.654 171.22ZM147.868 169.26C147.068 169.64 146.468 169.78 146.128 169.78C145.588 169.78 145.268 169.52 145.268 169.06V163.1H147.828L147.768 161.68H145.268V158.82L143.648 159.42V161.68H142.108L142.008 163.1H143.648V169.28C143.648 170.46 144.208 171.22 145.608 171.22C146.248 171.22 147.088 171.04 147.668 170.74L147.908 169.26H147.868ZM156.943 168.82C156.363 169.28 155.263 169.66 154.283 169.66C152.343 169.66 151.143 168.84 151.043 166.54C151.043 166.48 151.043 166.4 151.063 166.34L156.803 166.38C156.903 165.86 156.983 165.02 156.983 164.56C156.983 162.7 155.703 161.46 153.783 161.46C152.703 161.46 151.583 161.94 150.743 162.9C149.823 163.94 149.423 165.24 149.423 166.54C149.423 169.44 151.063 171.2 153.983 171.2C154.843 171.2 156.043 170.88 156.643 170.46L157.023 168.82H156.943ZM153.523 163.02C154.763 163.02 155.503 163.72 155.563 165.02L151.143 165.16C151.463 163.62 152.483 163.02 153.523 163.02ZM160.415 159.48C161.075 159.48 161.635 159 161.635 158.26C161.635 157.56 161.175 157.2 160.535 157.2C159.835 157.2 159.315 157.62 159.315 158.44C159.315 159.12 159.795 159.48 160.415 159.48ZM158.495 174.8C159.335 174.68 159.915 174.4 160.395 174C160.895 173.6 161.315 173 161.315 172.26V161.52L159.635 161.68V172.24C159.635 172.92 159.235 173.26 158.715 173.26C158.415 173.26 158.235 173.24 157.855 173.16L157.615 174.68L158.495 174.8ZM171.114 169.84C170.914 169.84 170.854 169.74 170.854 169.58V164.06C170.854 162.78 170.294 161.48 167.934 161.48C166.854 161.48 165.454 161.66 164.874 161.82L164.474 163.46C165.514 163.22 166.634 163.04 167.554 163.04C168.534 163.04 169.254 163.46 169.254 164.44V165.44L167.134 165.86C166.014 166.08 165.194 166.48 164.654 167.02C164.174 167.5 163.934 168.16 163.934 168.82C163.934 170.22 164.814 171.18 166.074 171.18C167.034 171.18 168.174 170.6 169.254 169.56L169.294 170.16C169.334 170.94 169.814 171.2 170.354 171.2C170.854 171.2 171.534 171.08 171.954 170.96L172.174 169.62C171.634 169.78 171.254 169.84 171.114 169.84ZM165.594 168.56C165.594 167.64 166.214 167.14 167.354 167.04L169.254 166.88V168.32C168.114 169.3 167.254 169.7 166.614 169.7C165.954 169.7 165.594 169.24 165.594 168.56ZM180.209 171.22C181.429 171.22 182.509 170.94 183.229 170.36C183.869 169.86 184.309 169.16 184.309 168.2C184.309 166.94 183.249 166.24 181.349 165.42C180.249 164.96 179.409 164.58 179.409 163.92C179.409 163.34 180.089 163.04 180.949 163.04C181.809 163.04 182.829 163.2 183.529 163.38L183.769 161.78C183.169 161.62 182.309 161.46 181.469 161.46C180.489 161.46 179.509 161.72 178.789 162.28C178.149 162.76 177.829 163.48 177.829 164.14C177.829 165.36 178.589 165.88 180.309 166.7C182.009 167.5 182.729 167.86 182.729 168.48C182.729 169.2 181.929 169.66 180.849 169.66C179.809 169.66 178.529 169.34 177.449 168.84L177.629 170.7C178.229 171 179.289 171.22 180.209 171.22ZM193.263 169.84C193.063 169.84 193.003 169.74 193.003 169.58V164.06C193.003 162.78 192.443 161.48 190.083 161.48C189.003 161.48 187.603 161.66 187.023 161.82L186.623 163.46C187.663 163.22 188.783 163.04 189.703 163.04C190.683 163.04 191.403 163.46 191.403 164.44V165.44L189.283 165.86C188.163 166.08 187.343 166.48 186.803 167.02C186.323 167.5 186.083 168.16 186.083 168.82C186.083 170.22 186.963 171.18 188.223 171.18C189.183 171.18 190.323 170.6 191.403 169.56L191.443 170.16C191.483 170.94 191.963 171.2 192.503 171.2C193.003 171.2 193.683 171.08 194.103 170.96L194.323 169.62C193.783 169.78 193.403 169.84 193.263 169.84ZM187.743 168.56C187.743 167.64 188.363 167.14 189.503 167.04L191.403 166.88V168.32C190.263 169.3 189.403 169.7 188.763 169.7C188.103 169.7 187.743 169.24 187.743 168.56ZM200.973 169.26C200.173 169.64 199.573 169.78 199.233 169.78C198.693 169.78 198.373 169.52 198.373 169.06V163.1H200.933L200.873 161.68H198.373V158.82L196.753 159.42V161.68H195.213L195.113 163.1H196.753V169.28C196.753 170.46 197.313 171.22 198.713 171.22C199.353 171.22 200.193 171.04 200.773 170.74L201.013 169.26H200.973ZM204.144 159.48C204.804 159.48 205.364 159 205.364 158.26C205.364 157.56 204.904 157.2 204.264 157.2C203.564 157.2 203.044 157.62 203.044 158.44C203.044 159.12 203.524 159.48 204.144 159.48ZM205.024 171V161.58L203.424 161.74V171H205.024ZM210.365 171.22C211.585 171.22 212.665 170.94 213.385 170.36C214.025 169.86 214.465 169.16 214.465 168.2C214.465 166.94 213.405 166.24 211.505 165.42C210.405 164.96 209.565 164.58 209.565 163.92C209.565 163.34 210.245 163.04 211.105 163.04C211.965 163.04 212.985 163.2 213.685 163.38L213.925 161.78C213.325 161.62 212.465 161.46 211.625 161.46C210.645 161.46 209.665 161.72 208.945 162.28C208.305 162.76 207.985 163.48 207.985 164.14C207.985 165.36 208.745 165.88 210.465 166.7C212.165 167.5 212.885 167.86 212.885 168.48C212.885 169.2 212.085 169.66 211.005 169.66C209.965 169.66 208.685 169.34 207.605 168.84L207.785 170.7C208.385 171 209.445 171.22 210.365 171.22ZM219.039 159.66C219.039 159.18 219.319 158.94 219.799 158.94C220.199 158.94 220.559 159 220.879 159.06L221.299 157.28L220.279 157.2C219.399 157.3 218.919 157.44 218.339 157.96C217.539 158.68 217.359 159.42 217.359 160.4V161.68H215.959L215.779 163H217.359V171H219.039V163H221.019L221.219 161.68H219.039V159.66ZM229.893 168.82C229.313 169.28 228.213 169.66 227.233 169.66C225.293 169.66 224.093 168.84 223.993 166.54C223.993 166.48 223.993 166.4 224.013 166.34L229.753 166.38C229.853 165.86 229.933 165.02 229.933 164.56C229.933 162.7 228.653 161.46 226.733 161.46C225.653 161.46 224.533 161.94 223.693 162.9C222.773 163.94 222.373 165.24 222.373 166.54C222.373 169.44 224.013 171.2 226.933 171.2C227.793 171.2 228.993 170.88 229.593 170.46L229.973 168.82H229.893ZM226.473 163.02C227.713 163.02 228.453 163.72 228.513 165.02L224.093 165.16C224.413 163.62 225.433 163.02 226.473 163.02ZM233.304 159.48C233.964 159.48 234.524 159 234.524 158.26C234.524 157.56 234.064 157.2 233.424 157.2C232.724 157.2 232.204 157.62 232.204 158.44C232.204 159.12 232.684 159.48 233.304 159.48ZM234.184 171V161.58L232.584 161.74V171H234.184ZM242.145 169.26C241.345 169.64 240.745 169.78 240.405 169.78C239.865 169.78 239.545 169.52 239.545 169.06V163.1H242.105L242.045 161.68H239.545V158.82L237.925 159.42V161.68H236.385L236.285 163.1H237.925V169.28C237.925 170.46 238.485 171.22 239.885 171.22C240.525 171.22 241.365 171.04 241.945 170.74L242.185 169.26H242.145ZM247.561 171.22C248.801 171.22 249.981 170.7 250.761 169.86C251.601 168.96 252.101 167.66 252.101 166.02C252.101 163.12 250.501 161.46 248.101 161.46C246.921 161.46 245.701 161.96 244.821 163.04C244.001 164.04 243.701 165.16 243.701 166.5C243.701 169.62 245.481 171.22 247.561 171.22ZM247.981 169.66C246.261 169.66 245.321 168.54 245.321 166.12C245.321 164.16 246.241 163.02 247.761 163.02C249.521 163.02 250.381 164.1 250.381 166.5C250.381 168.5 249.521 169.66 247.981 169.66ZM254.727 173.66C255.987 172.72 256.647 171.7 256.647 170.44C256.647 169.78 256.507 169.1 256.227 168.3L254.607 168.58C254.887 169.34 255.047 170.02 255.047 170.62C255.047 171.58 254.607 172.38 253.747 173.22L254.727 173.66ZM266.439 171.22C267.659 171.22 268.739 170.94 269.459 170.36C270.099 169.86 270.539 169.16 270.539 168.2C270.539 166.94 269.479 166.24 267.579 165.42C266.479 164.96 265.639 164.58 265.639 163.92C265.639 163.34 266.319 163.04 267.179 163.04C268.039 163.04 269.059 163.2 269.759 163.38L269.999 161.78C269.399 161.62 268.539 161.46 267.699 161.46C266.719 161.46 265.739 161.72 265.019 162.28C264.379 162.76 264.059 163.48 264.059 164.14C264.059 165.36 264.819 165.88 266.539 166.7C268.239 167.5 268.959 167.86 268.959 168.48C268.959 169.2 268.159 169.66 267.079 169.66C266.039 169.66 264.759 169.34 263.679 168.84L263.859 170.7C264.459 171 265.519 171.22 266.439 171.22ZM279.873 168.82C279.293 169.28 278.193 169.66 277.213 169.66C275.273 169.66 274.073 168.84 273.973 166.54C273.973 166.48 273.973 166.4 273.993 166.34L279.733 166.38C279.833 165.86 279.913 165.02 279.913 164.56C279.913 162.7 278.633 161.46 276.713 161.46C275.633 161.46 274.513 161.94 273.673 162.9C272.753 163.94 272.353 165.24 272.353 166.54C272.353 169.44 273.993 171.2 276.913 171.2C277.773 171.2 278.973 170.88 279.573 170.46L279.953 168.82H279.873ZM276.453 163.02C277.693 163.02 278.433 163.72 278.493 165.02L274.073 165.16C274.393 163.62 275.413 163.02 276.453 163.02ZM287.705 161.68V169.12C286.785 169.5 286.105 169.68 285.365 169.68C284.285 169.68 283.945 169.12 283.945 168.22V161.68H282.345V168.46C282.345 170.34 283.325 171.22 284.925 171.22C285.885 171.22 286.925 170.76 287.745 170.08H287.805C287.865 170.5 287.945 170.94 288.005 171.18L289.485 171C289.365 170.14 289.285 169.26 289.285 168.54V161.68H287.705ZM300.725 161.5C299.585 161.5 298.625 162 298.005 162.66H297.965V162.68C297.905 162.38 297.765 161.74 297.705 161.52L296.105 161.72C296.245 162.4 296.385 163.82 296.385 165.04V174.86L297.985 174.66V171.04C298.445 171.16 298.985 171.22 299.485 171.22C300.665 171.22 301.845 170.72 302.765 169.78C303.625 168.9 304.185 167.58 304.185 165.74C304.185 163.3 302.825 161.5 300.725 161.5ZM299.885 169.68C299.185 169.68 298.505 169.52 297.985 169.3V163.68C298.505 163.3 299.265 163.02 300.085 163.02C301.465 163.02 302.505 163.9 302.505 166.12C302.505 168.26 301.505 169.68 299.885 169.68ZM308.386 171V164.54C309.106 163.76 309.526 163.52 310.166 163.46L310.966 163.6L311.406 161.66L310.586 161.42C309.826 161.54 309.126 161.92 308.286 163.18H308.246C308.206 162.64 308.066 161.82 307.986 161.44L306.446 161.68C306.586 162.42 306.786 164.04 306.786 165.5V171H308.386ZM316.369 171.22C317.609 171.22 318.789 170.7 319.569 169.86C320.409 168.96 320.909 167.66 320.909 166.02C320.909 163.12 319.309 161.46 316.909 161.46C315.729 161.46 314.509 161.96 313.629 163.04C312.809 164.04 312.509 165.16 312.509 166.5C312.509 169.62 314.289 171.22 316.369 171.22ZM316.789 169.66C315.069 169.66 314.129 168.54 314.129 166.12C314.129 164.16 315.049 163.02 316.569 163.02C318.329 163.02 319.189 164.1 319.189 166.5C319.189 168.5 318.329 169.66 316.789 169.66ZM330.601 157.4L329.001 157.64V161.68C328.561 161.56 328.021 161.48 327.481 161.48C326.381 161.48 325.241 161.94 324.321 162.92C323.361 163.94 322.861 165.24 322.861 167.14C322.861 169.6 324.201 171.2 326.181 171.2C327.321 171.2 328.361 170.72 329.061 169.94H329.101C329.181 170.36 329.321 170.84 329.481 171.18L331.041 170.8C330.801 170.18 330.601 169.18 330.601 168.18V157.4ZM326.581 169.7C325.361 169.7 324.541 168.86 324.541 166.64C324.541 164.22 325.581 163.02 327.201 163.02C327.841 163.02 328.521 163.24 329.001 163.54V168.62C328.481 169.16 327.581 169.7 326.581 169.7ZM338.857 161.68V169.12C337.937 169.5 337.257 169.68 336.517 169.68C335.437 169.68 335.097 169.12 335.097 168.22V161.68H333.497V168.46C333.497 170.34 334.477 171.22 336.077 171.22C337.037 171.22 338.077 170.76 338.897 170.08H338.957C339.017 170.5 339.097 170.94 339.157 171.18L340.637 171C340.517 170.14 340.437 169.26 340.437 168.54V161.68H338.857ZM348.473 169.26C347.673 169.64 347.073 169.78 346.733 169.78C346.193 169.78 345.873 169.52 345.873 169.06V163.1H348.433L348.373 161.68H345.873V158.82L344.253 159.42V161.68H342.713L342.613 163.1H344.253V169.28C344.253 170.46 344.813 171.22 346.213 171.22C346.853 171.22 347.693 171.04 348.273 170.74L348.513 169.26H348.473ZM353.889 171.22C355.129 171.22 356.309 170.7 357.089 169.86C357.929 168.96 358.429 167.66 358.429 166.02C358.429 163.12 356.829 161.46 354.429 161.46C353.249 161.46 352.029 161.96 351.149 163.04C350.329 164.04 350.029 165.16 350.029 166.5C350.029 169.62 351.809 171.22 353.889 171.22ZM354.309 169.66C352.589 169.66 351.649 168.54 351.649 166.12C351.649 164.16 352.569 163.02 354.089 163.02C355.849 163.02 356.709 164.1 356.709 166.5C356.709 168.5 355.849 169.66 354.309 169.66ZM367.064 171.22C368.284 171.22 369.364 170.94 370.084 170.36C370.724 169.86 371.164 169.16 371.164 168.2C371.164 166.94 370.104 166.24 368.204 165.42C367.104 164.96 366.264 164.58 366.264 163.92C366.264 163.34 366.944 163.04 367.804 163.04C368.664 163.04 369.684 163.2 370.384 163.38L370.624 161.78C370.024 161.62 369.164 161.46 368.324 161.46C367.344 161.46 366.364 161.72 365.644 162.28C365.004 162.76 364.684 163.48 364.684 164.14C364.684 165.36 365.444 165.88 367.164 166.7C368.864 167.5 369.584 167.86 369.584 168.48C369.584 169.2 368.784 169.66 367.704 169.66C366.664 169.66 365.384 169.34 364.304 168.84L364.484 170.7C365.084 171 366.144 171.22 367.064 171.22ZM380.498 168.82C379.918 169.28 378.818 169.66 377.838 169.66C375.898 169.66 374.698 168.84 374.598 166.54C374.598 166.48 374.598 166.4 374.618 166.34L380.358 166.38C380.458 165.86 380.538 165.02 380.538 164.56C380.538 162.7 379.258 161.46 377.338 161.46C376.258 161.46 375.138 161.94 374.298 162.9C373.378 163.94 372.978 165.24 372.978 166.54C372.978 169.44 374.618 171.2 377.538 171.2C378.398 171.2 379.598 170.88 380.198 170.46L380.578 168.82H380.498ZM377.078 163.02C378.318 163.02 379.058 163.72 379.118 165.02L374.698 165.16C375.018 163.62 376.038 163.02 377.078 163.02ZM384.519 171V164.54C385.239 163.76 385.659 163.52 386.299 163.46L387.099 163.6L387.539 161.66L386.719 161.42C385.959 161.54 385.259 161.92 384.419 163.18H384.379C384.339 162.64 384.199 161.82 384.119 161.44L382.579 161.68C382.719 162.42 382.919 164.04 382.919 165.5V171H384.519ZM389.98 160.16C391.76 159.74 393.42 159.22 394.96 158.64L394.36 156.96H394.26C392.8 157.78 391.24 158.5 389.54 159.16V159.22L389.92 160.16H389.98ZM395.86 169.84C395.66 169.84 395.6 169.74 395.6 169.58V164.06C395.6 162.78 395.04 161.48 392.68 161.48C391.6 161.48 390.2 161.66 389.62 161.82L389.22 163.46C390.26 163.22 391.38 163.04 392.3 163.04C393.28 163.04 394 163.46 394 164.44V165.44L391.88 165.86C390.76 166.08 389.94 166.48 389.4 167.02C388.92 167.5 388.68 168.16 388.68 168.82C388.68 170.22 389.56 171.18 390.82 171.18C391.78 171.18 392.92 170.6 394 169.56L394.04 170.16C394.08 170.94 394.56 171.2 395.1 171.2C395.6 171.2 396.28 171.08 396.7 170.96L396.92 169.62C396.38 169.78 396 169.84 395.86 169.84ZM390.34 168.56C390.34 167.64 390.96 167.14 392.1 167.04L394 166.88V168.32C392.86 169.3 392 169.7 391.36 169.7C390.7 169.7 390.34 169.24 390.34 168.56ZM409.415 169.84C409.215 169.84 409.155 169.74 409.155 169.58V164.06C409.155 162.78 408.595 161.48 406.235 161.48C405.155 161.48 403.755 161.66 403.175 161.82L402.775 163.46C403.815 163.22 404.935 163.04 405.855 163.04C406.835 163.04 407.555 163.46 407.555 164.44V165.44L405.435 165.86C404.315 166.08 403.495 166.48 402.955 167.02C402.475 167.5 402.235 168.16 402.235 168.82C402.235 170.22 403.115 171.18 404.375 171.18C405.335 171.18 406.475 170.6 407.555 169.56L407.595 170.16C407.635 170.94 408.115 171.2 408.655 171.2C409.155 171.2 409.835 171.08 410.255 170.96L410.475 169.62C409.935 169.78 409.555 169.84 409.415 169.84ZM403.895 168.56C403.895 167.64 404.515 167.14 405.655 167.04L407.555 166.88V168.32C406.415 169.3 405.555 169.7 404.915 169.7C404.255 169.7 403.895 169.24 403.895 168.56ZM419.566 157.4L417.966 157.64V161.68C417.526 161.56 416.986 161.48 416.446 161.48C415.346 161.48 414.206 161.94 413.286 162.92C412.326 163.94 411.826 165.24 411.826 167.14C411.826 169.6 413.166 171.2 415.146 171.2C416.286 171.2 417.326 170.72 418.026 169.94H418.066C418.146 170.36 418.286 170.84 418.446 171.18L420.006 170.8C419.766 170.18 419.566 169.18 419.566 168.18V157.4ZM415.546 169.7C414.326 169.7 413.506 168.86 413.506 166.64C413.506 164.22 414.546 163.02 416.166 163.02C416.806 163.02 417.486 163.24 417.966 163.54V168.62C417.446 169.16 416.546 169.7 415.546 169.7ZM423.402 159.48C424.062 159.48 424.622 159 424.622 158.26C424.622 157.56 424.162 157.2 423.522 157.2C422.822 157.2 422.302 157.62 422.302 158.44C422.302 159.12 422.782 159.48 423.402 159.48ZM424.282 171V161.58L422.682 161.74V171H424.282ZM430.763 171.22C431.803 171.22 432.903 170.92 433.543 170.52L433.983 168.8H433.923C433.263 169.28 432.203 169.68 431.203 169.68C429.583 169.68 428.563 168.64 428.563 166.54C428.563 164.28 429.743 163.02 431.583 163.02C432.203 163.02 432.943 163.24 433.383 163.48L433.763 161.8C433.323 161.62 432.623 161.48 431.763 161.48C430.403 161.48 429.123 162.08 428.283 163.08C427.403 164.12 426.943 165.38 426.943 166.84C426.943 169.58 428.443 171.22 430.763 171.22ZM436.996 159.48C437.656 159.48 438.216 159 438.216 158.26C438.216 157.56 437.756 157.2 437.116 157.2C436.416 157.2 435.896 157.62 435.896 158.44C435.896 159.12 436.376 159.48 436.996 159.48ZM437.876 171V161.58L436.276 161.74V171H437.876ZM444.397 171.22C445.637 171.22 446.817 170.7 447.597 169.86C448.437 168.96 448.937 167.66 448.937 166.02C448.937 163.12 447.337 161.46 444.937 161.46C443.757 161.46 442.537 161.96 441.657 163.04C440.837 164.04 440.537 165.16 440.537 166.5C440.537 169.62 442.317 171.22 444.397 171.22ZM444.817 169.66C443.097 169.66 442.157 168.54 442.157 166.12C442.157 164.16 443.077 163.02 444.597 163.02C446.357 163.02 447.217 164.1 447.217 166.5C447.217 168.5 446.357 169.66 444.817 169.66ZM453.268 171V163.56C454.228 163.18 454.888 163 455.688 163C456.588 163 457.148 163.34 457.148 164.46V171H458.748V164.22C458.748 162.34 457.728 161.46 456.008 161.46C455.068 161.46 453.948 161.84 453.168 162.54H453.108C453.068 162.26 453.008 161.72 452.948 161.5L451.468 161.68C451.588 162.54 451.668 163.34 451.668 164.14V171H453.268ZM468.321 169.84C468.121 169.84 468.061 169.74 468.061 169.58V164.06C468.061 162.78 467.501 161.48 465.141 161.48C464.061 161.48 462.661 161.66 462.081 161.82L461.681 163.46C462.721 163.22 463.841 163.04 464.761 163.04C465.741 163.04 466.461 163.46 466.461 164.44V165.44L464.341 165.86C463.221 166.08 462.401 166.48 461.861 167.02C461.381 167.5 461.141 168.16 461.141 168.82C461.141 170.22 462.021 171.18 463.281 171.18C464.241 171.18 465.381 170.6 466.461 169.56L466.501 170.16C466.541 170.94 467.021 171.2 467.561 171.2C468.061 171.2 468.741 171.08 469.161 170.96L469.381 169.62C468.841 169.78 468.461 169.84 468.321 169.84ZM462.801 168.56C462.801 167.64 463.421 167.14 464.561 167.04L466.461 166.88V168.32C465.321 169.3 464.461 169.7 463.821 169.7C463.161 169.7 462.801 169.24 462.801 168.56ZM478.472 157.4L476.872 157.64V161.68C476.432 161.56 475.892 161.48 475.352 161.48C474.252 161.48 473.112 161.94 472.192 162.92C471.232 163.94 470.732 165.24 470.732 167.14C470.732 169.6 472.072 171.2 474.052 171.2C475.192 171.2 476.232 170.72 476.932 169.94H476.972C477.052 170.36 477.192 170.84 477.352 171.18L478.912 170.8C478.672 170.18 478.472 169.18 478.472 168.18V157.4ZM474.452 169.7C473.232 169.7 472.412 168.86 472.412 166.64C472.412 164.22 473.452 163.02 475.072 163.02C475.712 163.02 476.392 163.24 476.872 163.54V168.62C476.352 169.16 475.452 169.7 474.452 169.7ZM484.748 171.22C485.988 171.22 487.168 170.7 487.948 169.86C488.788 168.96 489.288 167.66 489.288 166.02C489.288 163.12 487.688 161.46 485.288 161.46C484.108 161.46 482.888 161.96 482.008 163.04C481.188 164.04 480.888 165.16 480.888 166.5C480.888 169.62 482.668 171.22 484.748 171.22ZM485.168 169.66C483.448 169.66 482.508 168.54 482.508 166.12C482.508 164.16 483.428 163.02 484.948 163.02C486.708 163.02 487.568 164.1 487.568 166.5C487.568 168.5 486.708 169.66 485.168 169.66ZM501.304 159.22V159.16C499.704 158.56 498.164 157.8 496.584 156.96H496.484L495.884 158.64C497.544 159.24 499.184 159.8 500.864 160.16H500.924L501.304 159.22ZM502.384 169.84C502.184 169.84 502.124 169.74 502.124 169.58V164.06C502.124 162.78 501.564 161.48 499.204 161.48C498.124 161.48 496.724 161.66 496.144 161.82L495.744 163.46C496.784 163.22 497.904 163.04 498.824 163.04C499.804 163.04 500.524 163.46 500.524 164.44V165.44L498.404 165.86C497.284 166.08 496.464 166.48 495.924 167.02C495.444 167.5 495.204 168.16 495.204 168.82C495.204 170.22 496.084 171.18 497.344 171.18C498.304 171.18 499.444 170.6 500.524 169.56L500.564 170.16C500.604 170.94 501.084 171.2 501.624 171.2C502.124 171.2 502.804 171.08 503.224 170.96L503.444 169.62C502.904 169.78 502.524 169.84 502.384 169.84ZM496.864 168.56C496.864 167.64 497.484 167.14 498.624 167.04L500.524 166.88V168.32C499.384 169.3 498.524 169.7 497.884 169.7C497.224 169.7 496.864 169.24 496.864 168.56ZM511.478 171.22C512.698 171.22 513.778 170.94 514.498 170.36C515.138 169.86 515.578 169.16 515.578 168.2C515.578 166.94 514.518 166.24 512.618 165.42C511.518 164.96 510.678 164.58 510.678 163.92C510.678 163.34 511.358 163.04 512.218 163.04C513.078 163.04 514.098 163.2 514.798 163.38L515.038 161.78C514.438 161.62 513.578 161.46 512.738 161.46C511.758 161.46 510.778 161.72 510.058 162.28C509.418 162.76 509.098 163.48 509.098 164.14C509.098 165.36 509.858 165.88 511.578 166.7C513.278 167.5 513.998 167.86 513.998 168.48C513.998 169.2 513.198 169.66 512.118 169.66C511.078 169.66 509.798 169.34 508.718 168.84L508.898 170.7C509.498 171 510.558 171.22 511.478 171.22ZM524.532 169.84C524.332 169.84 524.272 169.74 524.272 169.58V164.06C524.272 162.78 523.712 161.48 521.352 161.48C520.272 161.48 518.872 161.66 518.292 161.82L517.892 163.46C518.932 163.22 520.052 163.04 520.972 163.04C521.952 163.04 522.672 163.46 522.672 164.44V165.44L520.552 165.86C519.432 166.08 518.612 166.48 518.072 167.02C517.592 167.5 517.352 168.16 517.352 168.82C517.352 170.22 518.232 171.18 519.492 171.18C520.452 171.18 521.592 170.6 522.672 169.56L522.712 170.16C522.752 170.94 523.232 171.2 523.772 171.2C524.272 171.2 524.952 171.08 525.372 170.96L525.592 169.62C525.052 169.78 524.672 169.84 524.532 169.84ZM519.012 168.56C519.012 167.64 519.632 167.14 520.772 167.04L522.672 166.88V168.32C521.532 169.3 520.672 169.7 520.032 169.7C519.372 169.7 519.012 169.24 519.012 168.56ZM530.763 171.22C531.803 171.22 532.903 170.92 533.543 170.52L533.983 168.8H533.923C533.263 169.28 532.203 169.68 531.203 169.68C529.583 169.68 528.563 168.64 528.563 166.54C528.563 164.28 529.743 163.02 531.583 163.02C532.203 163.02 532.943 163.24 533.383 163.48L533.763 161.8C533.323 161.62 532.623 161.48 531.763 161.48C530.403 161.48 529.123 162.08 528.283 163.08C527.403 164.12 526.943 165.38 526.943 166.84C526.943 169.58 528.443 171.22 530.763 171.22ZM539.436 171.22C540.676 171.22 541.856 170.7 542.636 169.86C543.476 168.96 543.976 167.66 543.976 166.02C543.976 163.12 542.376 161.46 539.976 161.46C538.796 161.46 537.576 161.96 536.696 163.04C535.876 164.04 535.576 165.16 535.576 166.5C535.576 169.62 537.356 171.22 539.436 171.22ZM539.856 169.66C538.136 169.66 537.196 168.54 537.196 166.12C537.196 164.16 538.116 163.02 539.636 163.02C541.396 163.02 542.256 164.1 542.256 166.5C542.256 168.5 541.396 169.66 539.856 169.66ZM548.027 171V157.2L546.427 157.38V171H548.027ZM557.618 169.84C557.418 169.84 557.358 169.74 557.358 169.58V164.06C557.358 162.78 556.798 161.48 554.438 161.48C553.358 161.48 551.958 161.66 551.378 161.82L550.978 163.46C552.018 163.22 553.138 163.04 554.058 163.04C555.038 163.04 555.758 163.46 555.758 164.44V165.44L553.638 165.86C552.518 166.08 551.698 166.48 551.158 167.02C550.678 167.5 550.438 168.16 550.438 168.82C550.438 170.22 551.318 171.18 552.578 171.18C553.538 171.18 554.678 170.6 555.758 169.56L555.798 170.16C555.838 170.94 556.318 171.2 556.858 171.2C557.358 171.2 558.038 171.08 558.458 170.96L558.678 169.62C558.138 169.78 557.758 169.84 557.618 169.84ZM552.098 168.56C552.098 167.64 552.718 167.14 553.858 167.04L555.758 166.88V168.32C554.618 169.3 553.758 169.7 553.118 169.7C552.458 169.7 552.098 169.24 552.098 168.56ZM561.558 171.2C562.378 171.2 562.898 170.8 562.898 169.92C562.898 169.1 562.358 168.7 561.618 168.7C560.738 168.7 560.198 169.24 560.198 170.02C560.198 170.78 560.718 171.2 561.558 171.2ZM141.553 199.3C143.253 199.3 144.973 198.62 146.173 197.22C147.293 195.94 147.933 194.1 147.933 191.86C147.933 187.7 145.393 185.22 141.953 185.22C140.233 185.22 138.673 185.86 137.493 187.08C136.153 188.44 135.553 190.24 135.553 192.44C135.553 197.1 138.573 199.3 141.553 199.3ZM141.693 197.72C138.913 197.72 137.353 195.64 137.353 192.12C137.353 188.9 139.033 186.82 141.693 186.82C144.453 186.82 146.133 188.86 146.133 192.36C146.133 195.64 144.453 197.72 141.693 197.72ZM156.015 189.68V197.12C155.095 197.5 154.415 197.68 153.675 197.68C152.595 197.68 152.255 197.12 152.255 196.22V189.68H150.655V196.46C150.655 198.34 151.635 199.22 153.235 199.22C154.195 199.22 155.235 198.76 156.055 198.08H156.115C156.175 198.5 156.255 198.94 156.315 199.18L157.795 199C157.675 198.14 157.595 197.26 157.595 196.54V189.68H156.015ZM167.015 199.22C168.235 199.22 169.315 198.94 170.035 198.36C170.675 197.86 171.115 197.16 171.115 196.2C171.115 194.94 170.055 194.24 168.155 193.42C167.055 192.96 166.215 192.58 166.215 191.92C166.215 191.34 166.895 191.04 167.755 191.04C168.615 191.04 169.635 191.2 170.335 191.38L170.575 189.78C169.975 189.62 169.115 189.46 168.275 189.46C167.295 189.46 166.315 189.72 165.595 190.28C164.955 190.76 164.635 191.48 164.635 192.14C164.635 193.36 165.395 193.88 167.115 194.7C168.815 195.5 169.535 195.86 169.535 196.48C169.535 197.2 168.735 197.66 167.655 197.66C166.615 197.66 165.335 197.34 164.255 196.84L164.435 198.7C165.035 199 166.095 199.22 167.015 199.22ZM180.449 196.82C179.869 197.28 178.769 197.66 177.789 197.66C175.849 197.66 174.649 196.84 174.549 194.54C174.549 194.48 174.549 194.4 174.569 194.34L180.309 194.38C180.409 193.86 180.489 193.02 180.489 192.56C180.489 190.7 179.209 189.46 177.289 189.46C176.209 189.46 175.089 189.94 174.249 190.9C173.329 191.94 172.929 193.24 172.929 194.54C172.929 197.44 174.569 199.2 177.489 199.2C178.349 199.2 179.549 198.88 180.149 198.46L180.529 196.82H180.449ZM177.029 191.02C178.269 191.02 179.009 191.72 179.069 193.02L174.649 193.16C174.969 191.62 175.989 191.02 177.029 191.02ZM191.145 189.5C190.005 189.5 189.045 190 188.425 190.66H188.385V190.68C188.325 190.38 188.185 189.74 188.125 189.52L186.525 189.72C186.665 190.4 186.805 191.82 186.805 193.04V202.86L188.405 202.66V199.04C188.865 199.16 189.405 199.22 189.905 199.22C191.085 199.22 192.265 198.72 193.185 197.78C194.045 196.9 194.605 195.58 194.605 193.74C194.605 191.3 193.245 189.5 191.145 189.5ZM190.305 197.68C189.605 197.68 188.925 197.52 188.405 197.3V191.68C188.925 191.3 189.685 191.02 190.505 191.02C191.885 191.02 192.925 191.9 192.925 194.12C192.925 196.26 191.925 197.68 190.305 197.68ZM198.806 199V192.54C199.526 191.76 199.946 191.52 200.586 191.46L201.386 191.6L201.826 189.66L201.006 189.42C200.246 189.54 199.546 189.92 198.706 191.18H198.666C198.626 190.64 198.486 189.82 198.406 189.44L196.866 189.68C197.006 190.42 197.206 192.04 197.206 193.5V199H198.806ZM210.449 196.82C209.869 197.28 208.769 197.66 207.789 197.66C205.849 197.66 204.649 196.84 204.549 194.54C204.549 194.48 204.549 194.4 204.569 194.34L210.309 194.38C210.409 193.86 210.489 193.02 210.489 192.56C210.489 190.7 209.209 189.46 207.289 189.46C206.209 189.46 205.089 189.94 204.249 190.9C203.329 191.94 202.929 193.24 202.929 194.54C202.929 197.44 204.569 199.2 207.489 199.2C208.349 199.2 209.549 198.88 210.149 198.46L210.529 196.82H210.449ZM207.029 191.02C208.269 191.02 209.009 191.72 209.069 193.02L204.649 193.16C204.969 191.62 205.989 191.02 207.029 191.02ZM214.81 187.66C214.81 187.18 215.09 186.94 215.57 186.94C215.97 186.94 216.33 187 216.65 187.06L217.07 185.28L216.05 185.2C215.17 185.3 214.69 185.44 214.11 185.96C213.31 186.68 213.13 187.42 213.13 188.4V189.68H211.73L211.55 191H213.13V199H214.81V191H216.79L216.99 189.68H214.81V187.66ZM225.664 196.82C225.084 197.28 223.984 197.66 223.004 197.66C221.064 197.66 219.864 196.84 219.764 194.54C219.764 194.48 219.764 194.4 219.784 194.34L225.524 194.38C225.624 193.86 225.704 193.02 225.704 192.56C225.704 190.7 224.424 189.46 222.504 189.46C221.424 189.46 220.304 189.94 219.464 190.9C218.544 191.94 218.144 193.24 218.144 194.54C218.144 197.44 219.784 199.2 222.704 199.2C223.564 199.2 224.764 198.88 225.364 198.46L225.744 196.82H225.664ZM222.244 191.02C223.484 191.02 224.224 191.72 224.284 193.02L219.864 193.16C220.184 191.62 221.204 191.02 222.244 191.02ZM229.685 199V192.54C230.405 191.76 230.825 191.52 231.465 191.46L232.265 191.6L232.705 189.66L231.885 189.42C231.125 189.54 230.425 189.92 229.585 191.18H229.545C229.505 190.64 229.365 189.82 229.285 189.44L227.745 189.68C227.885 190.42 228.085 192.04 228.085 193.5V199H229.685ZM235.502 187.48C236.162 187.48 236.722 187 236.722 186.26C236.722 185.56 236.262 185.2 235.622 185.2C234.922 185.2 234.402 185.62 234.402 186.44C234.402 187.12 234.882 187.48 235.502 187.48ZM236.382 199V189.58L234.782 189.74V199H236.382ZM241.463 199V192.54C242.183 191.76 242.603 191.52 243.243 191.46L244.043 191.6L244.483 189.66L243.663 189.42C242.903 189.54 242.203 189.92 241.363 191.18H241.323C241.283 190.64 241.143 189.82 241.063 189.44L239.523 189.68C239.663 190.42 239.863 192.04 239.863 193.5V199H241.463ZM245.948 201.66C247.208 200.72 247.868 199.7 247.868 198.44C247.868 197.78 247.728 197.1 247.448 196.3L245.828 196.58C246.108 197.34 246.268 198.02 246.268 198.62C246.268 199.58 245.828 200.38 244.968 201.22L245.948 201.66ZM259.68 189.5C258.54 189.5 257.58 190 256.96 190.66H256.92V190.68C256.86 190.38 256.72 189.74 256.66 189.52L255.06 189.72C255.2 190.4 255.34 191.82 255.34 193.04V202.86L256.94 202.66V199.04C257.4 199.16 257.94 199.22 258.44 199.22C259.62 199.22 260.8 198.72 261.72 197.78C262.58 196.9 263.14 195.58 263.14 193.74C263.14 191.3 261.78 189.5 259.68 189.5ZM258.84 197.68C258.14 197.68 257.46 197.52 256.94 197.3V191.68C257.46 191.3 258.22 191.02 259.04 191.02C260.42 191.02 261.46 191.9 261.46 194.12C261.46 196.26 260.46 197.68 258.84 197.68ZM268.781 199.22C270.021 199.22 271.201 198.7 271.981 197.86C272.821 196.96 273.321 195.66 273.321 194.02C273.321 191.12 271.721 189.46 269.321 189.46C268.141 189.46 266.921 189.96 266.041 191.04C265.221 192.04 264.921 193.16 264.921 194.5C264.921 197.62 266.701 199.22 268.781 199.22ZM269.201 197.66C267.481 197.66 266.541 196.54 266.541 194.12C266.541 192.16 267.461 191.02 268.981 191.02C270.741 191.02 271.601 192.1 271.601 194.5C271.601 196.5 270.741 197.66 269.201 197.66ZM283.013 185.4L281.413 185.64V189.68C280.973 189.56 280.433 189.48 279.893 189.48C278.793 189.48 277.653 189.94 276.733 190.92C275.773 191.94 275.273 193.24 275.273 195.14C275.273 197.6 276.613 199.2 278.593 199.2C279.733 199.2 280.773 198.72 281.473 197.94H281.513C281.593 198.36 281.733 198.84 281.893 199.18L283.453 198.8C283.213 198.18 283.013 197.18 283.013 196.18V185.4ZM278.993 197.7C277.773 197.7 276.953 196.86 276.953 194.64C276.953 192.22 277.993 191.02 279.613 191.02C280.253 191.02 280.933 191.24 281.413 191.54V196.62C280.893 197.16 279.993 197.7 278.993 197.7ZM292.949 196.82C292.369 197.28 291.269 197.66 290.289 197.66C288.349 197.66 287.149 196.84 287.049 194.54C287.049 194.48 287.049 194.4 287.069 194.34L292.809 194.38C292.909 193.86 292.989 193.02 292.989 192.56C292.989 190.7 291.709 189.46 289.789 189.46C288.709 189.46 287.589 189.94 286.749 190.9C285.829 191.94 285.429 193.24 285.429 194.54C285.429 197.44 287.069 199.2 289.989 199.2C290.849 199.2 292.049 198.88 292.649 198.46L293.029 196.82H292.949ZM289.529 191.02C290.769 191.02 291.509 191.72 291.569 193.02L287.149 193.16C287.469 191.62 288.489 191.02 289.529 191.02ZM302.765 199.22C303.805 199.22 304.905 198.92 305.545 198.52L305.985 196.8H305.925C305.265 197.28 304.205 197.68 303.205 197.68C301.585 197.68 300.565 196.64 300.565 194.54C300.565 192.28 301.745 191.02 303.585 191.02C304.205 191.02 304.945 191.24 305.385 191.48L305.765 189.8C305.325 189.62 304.625 189.48 303.765 189.48C302.405 189.48 301.125 190.08 300.285 191.08C299.405 192.12 298.945 193.38 298.945 194.84C298.945 197.58 300.445 199.22 302.765 199.22ZM311.438 199.22C312.678 199.22 313.858 198.7 314.638 197.86C315.478 196.96 315.978 195.66 315.978 194.02C315.978 191.12 314.378 189.46 311.978 189.46C310.798 189.46 309.578 189.96 308.698 191.04C307.878 192.04 307.578 193.16 307.578 194.5C307.578 197.62 309.358 199.22 311.438 199.22ZM311.858 197.66C310.138 197.66 309.198 196.54 309.198 194.12C309.198 192.16 310.118 191.02 311.638 191.02C313.398 191.02 314.258 192.1 314.258 194.5C314.258 196.5 313.398 197.66 311.858 197.66ZM320.309 199V191.56C321.269 191.18 321.929 191 322.729 191C323.629 191 324.189 191.34 324.189 192.46V199H325.789V192.22C325.789 190.34 324.769 189.46 323.049 189.46C322.109 189.46 320.989 189.84 320.209 190.54H320.149C320.109 190.26 320.049 189.72 319.989 189.5L318.509 189.68C318.629 190.54 318.709 191.34 318.709 192.14V199H320.309ZM333.522 197.26C332.722 197.64 332.122 197.78 331.782 197.78C331.242 197.78 330.922 197.52 330.922 197.06V191.1H333.482L333.422 189.68H330.922V186.82L329.302 187.42V189.68H327.762L327.662 191.1H329.302V197.28C329.302 198.46 329.862 199.22 331.262 199.22C331.902 199.22 332.742 199.04 333.322 198.74L333.562 197.26H333.522ZM336.693 187.48C337.353 187.48 337.913 187 337.913 186.26C337.913 185.56 337.453 185.2 336.813 185.2C336.113 185.2 335.593 185.62 335.593 186.44C335.593 187.12 336.073 187.48 336.693 187.48ZM337.573 199V189.58L335.973 189.74V199H337.573ZM342.614 199V191.56C343.574 191.18 344.234 191 345.034 191C345.934 191 346.494 191.34 346.494 192.46V199H348.094V192.22C348.094 190.34 347.074 189.46 345.354 189.46C344.414 189.46 343.294 189.84 342.514 190.54H342.454C342.414 190.26 342.354 189.72 342.294 189.5L340.814 189.68C340.934 190.54 341.014 191.34 341.014 192.14V199H342.614ZM356.367 189.68V197.12C355.447 197.5 354.767 197.68 354.027 197.68C352.947 197.68 352.607 197.12 352.607 196.22V189.68H351.007V196.46C351.007 198.34 351.987 199.22 353.587 199.22C354.547 199.22 355.587 198.76 356.407 198.08H356.467C356.527 198.5 356.607 198.94 356.667 199.18L358.147 199C358.027 198.14 357.947 197.26 357.947 196.54V189.68H356.367ZM367.823 197.84C367.623 197.84 367.563 197.74 367.563 197.58V192.06C367.563 190.78 367.003 189.48 364.643 189.48C363.563 189.48 362.163 189.66 361.583 189.82L361.183 191.46C362.223 191.22 363.343 191.04 364.263 191.04C365.243 191.04 365.963 191.46 365.963 192.44V193.44L363.843 193.86C362.723 194.08 361.903 194.48 361.363 195.02C360.883 195.5 360.643 196.16 360.643 196.82C360.643 198.22 361.523 199.18 362.783 199.18C363.743 199.18 364.883 198.6 365.963 197.56L366.003 198.16C366.043 198.94 366.523 199.2 367.063 199.2C367.563 199.2 368.243 199.08 368.663 198.96L368.883 197.62C368.343 197.78 367.963 197.84 367.823 197.84ZM362.303 196.56C362.303 195.64 362.923 195.14 364.063 195.04L365.963 194.88V196.32C364.823 197.3 363.963 197.7 363.323 197.7C362.663 197.7 362.303 197.24 362.303 196.56ZM372.654 199V192.54C373.374 191.76 373.794 191.52 374.434 191.46L375.234 191.6L375.674 189.66L374.854 189.42C374.094 189.54 373.394 189.92 372.554 191.18H372.514C372.474 190.64 372.334 189.82 372.254 189.44L370.714 189.68C370.854 190.42 371.054 192.04 371.054 193.5V199H372.654ZM384.874 199.22C385.914 199.22 387.014 198.92 387.654 198.52L388.094 196.8H388.034C387.374 197.28 386.314 197.68 385.314 197.68C383.694 197.68 382.674 196.64 382.674 194.54C382.674 192.28 383.854 191.02 385.694 191.02C386.314 191.02 387.054 191.24 387.494 191.48L387.874 189.8C387.434 189.62 386.734 189.48 385.874 189.48C384.514 189.48 383.234 190.08 382.394 191.08C381.514 192.12 381.054 193.38 381.054 194.84C381.054 197.58 382.554 199.22 384.874 199.22ZM393.547 199.22C394.787 199.22 395.967 198.7 396.747 197.86C397.587 196.96 398.087 195.66 398.087 194.02C398.087 191.12 396.487 189.46 394.087 189.46C392.907 189.46 391.687 189.96 390.807 191.04C389.987 192.04 389.687 193.16 389.687 194.5C389.687 197.62 391.467 199.22 393.547 199.22ZM393.967 197.66C392.247 197.66 391.307 196.54 391.307 194.12C391.307 192.16 392.227 191.02 393.747 191.02C395.507 191.02 396.367 192.1 396.367 194.5C396.367 196.5 395.507 197.66 393.967 197.66ZM410.079 189.46C409.159 189.46 408.059 189.82 407.199 190.66C406.759 189.82 405.939 189.46 405.079 189.46C404.199 189.46 403.279 189.78 402.319 190.68H402.259C402.219 190.3 402.139 189.82 402.099 189.5L400.619 189.68C400.739 190.54 400.819 191.36 400.819 192.14V199H402.439V191.62C403.259 191.22 403.999 191 404.579 191C405.219 191 405.899 191.36 405.899 192.38V199H407.519V192.14C407.519 191.96 407.499 191.78 407.479 191.62C408.359 191.22 409.019 191 409.659 191C410.279 191 410.979 191.36 410.979 192.38V199H412.599V192.14C412.599 190.26 411.399 189.46 410.079 189.46ZM421.723 199.22C422.943 199.22 424.023 198.94 424.743 198.36C425.383 197.86 425.823 197.16 425.823 196.2C425.823 194.94 424.763 194.24 422.863 193.42C421.763 192.96 420.923 192.58 420.923 191.92C420.923 191.34 421.603 191.04 422.463 191.04C423.323 191.04 424.343 191.2 425.043 191.38L425.283 189.78C424.683 189.62 423.823 189.46 422.983 189.46C422.003 189.46 421.023 189.72 420.303 190.28C419.663 190.76 419.343 191.48 419.343 192.14C419.343 193.36 420.103 193.88 421.823 194.7C423.523 195.5 424.243 195.86 424.243 196.48C424.243 197.2 423.443 197.66 422.363 197.66C421.323 197.66 420.043 197.34 418.963 196.84L419.143 198.7C419.743 199 420.803 199.22 421.723 199.22ZM433.476 189.68V197.12C432.556 197.5 431.876 197.68 431.136 197.68C430.056 197.68 429.716 197.12 429.716 196.22V189.68H428.116V196.46C428.116 198.34 429.096 199.22 430.696 199.22C431.656 199.22 432.696 198.76 433.516 198.08H433.576C433.636 198.5 433.716 198.94 433.776 199.18L435.256 199C435.136 198.14 435.056 197.26 435.056 196.54V189.68H433.476ZM444.933 197.84C444.733 197.84 444.673 197.74 444.673 197.58V192.06C444.673 190.78 444.113 189.48 441.753 189.48C440.673 189.48 439.273 189.66 438.693 189.82L438.293 191.46C439.333 191.22 440.453 191.04 441.373 191.04C442.353 191.04 443.073 191.46 443.073 192.44V193.44L440.953 193.86C439.833 194.08 439.013 194.48 438.473 195.02C437.993 195.5 437.753 196.16 437.753 196.82C437.753 198.22 438.633 199.18 439.893 199.18C440.853 199.18 441.993 198.6 443.073 197.56L443.113 198.16C443.153 198.94 443.633 199.2 444.173 199.2C444.673 199.2 445.353 199.08 445.773 198.96L445.993 197.62C445.453 197.78 445.073 197.84 444.933 197.84ZM439.413 196.56C439.413 195.64 440.033 195.14 441.173 195.04L443.073 194.88V196.32C441.933 197.3 441.073 197.7 440.433 197.7C439.773 197.7 439.413 197.24 439.413 196.56ZM458.867 196.82C458.287 197.28 457.187 197.66 456.207 197.66C454.267 197.66 453.067 196.84 452.967 194.54C452.967 194.48 452.967 194.4 452.987 194.34L458.727 194.38C458.827 193.86 458.907 193.02 458.907 192.56C458.907 190.7 457.627 189.46 455.707 189.46C454.627 189.46 453.507 189.94 452.667 190.9C451.747 191.94 451.347 193.24 451.347 194.54C451.347 197.44 452.987 199.2 455.907 199.2C456.767 199.2 457.967 198.88 458.567 198.46L458.947 196.82H458.867ZM455.447 191.02C456.687 191.02 457.427 191.72 457.487 193.02L453.067 193.16C453.387 191.62 454.407 191.02 455.447 191.02ZM468.599 185.4L466.999 185.64V189.68C466.559 189.56 466.019 189.48 465.479 189.48C464.379 189.48 463.239 189.94 462.319 190.92C461.359 191.94 460.859 193.24 460.859 195.14C460.859 197.6 462.199 199.2 464.179 199.2C465.319 199.2 466.359 198.72 467.059 197.94H467.099C467.179 198.36 467.319 198.84 467.479 199.18L469.039 198.8C468.799 198.18 468.599 197.18 468.599 196.18V185.4ZM464.579 197.7C463.359 197.7 462.539 196.86 462.539 194.64C462.539 192.22 463.579 191.02 465.199 191.02C465.839 191.02 466.519 191.24 466.999 191.54V196.62C466.479 197.16 465.579 197.7 464.579 197.7ZM472.435 187.48C473.095 187.48 473.655 187 473.655 186.26C473.655 185.56 473.195 185.2 472.555 185.2C471.855 185.2 471.335 185.62 471.335 186.44C471.335 187.12 471.815 187.48 472.435 187.48ZM473.315 199V189.58L471.715 189.74V199H473.315ZM483.016 196.8H482.956C482.296 197.28 481.236 197.68 480.236 197.68C478.616 197.68 477.596 196.64 477.596 194.54C477.596 192.28 478.776 191.02 480.616 191.02C481.236 191.02 481.976 191.24 482.416 191.48L482.796 189.8C482.356 189.62 481.656 189.48 480.796 189.48C479.436 189.48 478.156 190.08 477.316 191.08C476.436 192.12 475.976 193.38 475.976 194.84C475.976 197.38 477.276 198.98 479.316 199.2L478.756 200.42L478.776 200.44C479.896 200.78 480.636 201.16 480.636 201.6C480.636 201.98 480.296 202.28 479.596 202.28C479.016 202.28 478.336 202.14 477.876 201.96L478.016 203.12C478.476 203.28 478.996 203.36 479.636 203.36C480.876 203.36 482.076 202.66 482.076 201.56C482.076 200.78 481.456 200.26 480.136 199.82L480.456 199.18C481.276 199.1 482.076 198.84 482.576 198.52L483.016 196.8ZM486.989 186.94C487.709 186.94 488.469 187.76 489.369 187.76C490.169 187.76 490.889 187.1 491.369 186.04L490.349 185.34C489.969 185.94 489.649 186.2 489.249 186.2C488.549 186.2 487.709 185.4 486.909 185.4C486.129 185.4 485.429 185.98 484.929 186.9L485.749 187.78C486.189 187.22 486.569 186.94 486.989 186.94ZM491.749 197.84C491.549 197.84 491.489 197.74 491.489 197.58V192.06C491.489 190.78 490.929 189.48 488.569 189.48C487.489 189.48 486.089 189.66 485.509 189.82L485.109 191.46C486.149 191.22 487.269 191.04 488.189 191.04C489.169 191.04 489.889 191.46 489.889 192.44V193.44L487.769 193.86C486.649 194.08 485.829 194.48 485.289 195.02C484.809 195.5 484.569 196.16 484.569 196.82C484.569 198.22 485.449 199.18 486.709 199.18C487.669 199.18 488.809 198.6 489.889 197.56L489.929 198.16C489.969 198.94 490.449 199.2 490.989 199.2C491.489 199.2 492.169 199.08 492.589 198.96L492.809 197.62C492.269 197.78 491.889 197.84 491.749 197.84ZM486.229 196.56C486.229 195.64 486.849 195.14 487.989 195.04L489.889 194.88V196.32C488.749 197.3 487.889 197.7 487.249 197.7C486.589 197.7 486.229 197.24 486.229 196.56ZM498.02 199.22C499.26 199.22 500.44 198.7 501.22 197.86C502.06 196.96 502.56 195.66 502.56 194.02C502.56 191.12 500.96 189.46 498.56 189.46C497.38 189.46 496.16 189.96 495.28 191.04C494.46 192.04 494.16 193.16 494.16 194.5C494.16 197.62 495.94 199.22 498.02 199.22ZM498.44 197.66C496.72 197.66 495.78 196.54 495.78 194.12C495.78 192.16 496.7 191.02 498.22 191.02C499.98 191.02 500.84 192.1 500.84 194.5C500.84 196.5 499.98 197.66 498.44 197.66ZM505.826 199.2C506.646 199.2 507.166 198.8 507.166 197.92C507.166 197.1 506.626 196.7 505.886 196.7C505.006 196.7 504.466 197.24 504.466 198.02C504.466 198.78 504.986 199.2 505.826 199.2Z" fill="black"/>
</g>
<defs>
<filter id="filter0_d_1582_24506" x="-26.4424" y="-15.3088" width="694.885" height="415.885" filterUnits="userSpaceOnUse" color-interpolation-filters="sRGB">
<feFlood flood-opacity="0" result="BackgroundImageFix"/>
<feColorMatrix in="SourceAlpha" type="matrix" values="0 0 0 0 0 0 0 0 0 0 0 0 0 0 0 0 0 0 127 0" result="hardAlpha"/>
<feOffset dy="11.1336"/>
<feGaussianBlur stdDeviation="13.2212"/>
<feComposite in2="hardAlpha" operator="out"/>
<feColorMatrix type="matrix" values="0 0 0 0 0 0 0 0 0 0 0 0 0 0 0 0 0 0 0.05 0"/>
<feBlend mode="normal" in2="BackgroundImageFix" result="effect1_dropShadow_1582_24506"/>
<feBlend mode="normal" in="SourceGraphic" in2="effect1_dropShadow_1582_24506" result="shape"/>
</filter>
<filter id="filter1_d_1582_24506" x="326.201" y="245.201" width="269.599" height="69.599" filterUnits="userSpaceOnUse" color-interpolation-filters="sRGB">
<feFlood flood-opacity="0" result="BackgroundImageFix"/>
<feColorMatrix in="SourceAlpha" type="matrix" values="0 0 0 0 0 0 0 0 0 0 0 0 0 0 0 0 0 0 127 0" result="hardAlpha"/>
<feOffset/>
<feGaussianBlur stdDeviation="1.89974"/>
<feComposite in2="hardAlpha" operator="out"/>
<feColorMatrix type="matrix" values="0 0 0 0 0 0 0 0 0 0 0 0 0 0 0 0 0 0 0.25 0"/>
<feBlend mode="normal" in2="BackgroundImageFix" result="effect1_dropShadow_1582_24506"/>
<feBlend mode="normal" in="SourceGraphic" in2="effect1_dropShadow_1582_24506" result="shape"/>
</filter>
<clipPath id="clip0_1582_24506">
<rect width="642" height="363" fill="white"/>
</clipPath>
<clipPath id="clip1_1582_24506">
<rect width="262" height="62" fill="white" transform="translate(330 249)"/>
</clipPath>
<clipPath id="clip2_1582_24506">
<rect width="262" height="62" fill="white" transform="translate(59 249)"/>
</clipPath>
</defs>
</svg>
